<svg viewBox="0 0 1578.2000732421875 400" xmlns="http://www.w3.org/2000/svg"><g><g><g><g><g><line x1="40" y1="377" x2="35" y2="377" style="visibility: inherit;" fill="rgb(0, 0, 0)" stroke="rgb(204, 204, 204)" stroke-width="1px"></line><line x1="40" y1="335.1111111111111" x2="35" y2="335.1111111111111" style="visibility: inherit;" fill="rgb(0, 0, 0)" stroke="rgb(204, 204, 204)" stroke-width="1px"></line><line x1="40" y1="293.22222222222223" x2="35" y2="293.22222222222223" style="visibility: inherit;" fill="rgb(0, 0, 0)" stroke="rgb(204, 204, 204)" stroke-width="1px"></line><line x1="40" y1="251.33333333333337" x2="35" y2="251.33333333333337" style="visibility: inherit;" fill="rgb(0, 0, 0)" stroke="rgb(204, 204, 204)" stroke-width="1px"></line><line x1="40" y1="209.44444444444446" x2="35" y2="209.44444444444446" style="visibility: inherit;" fill="rgb(0, 0, 0)" stroke="rgb(204, 204, 204)" stroke-width="1px"></line><line x1="40" y1="167.55555555555554" x2="35" y2="167.55555555555554" style="visibility: inherit;" fill="rgb(0, 0, 0)" stroke="rgb(204, 204, 204)" stroke-width="1px"></line><line x1="40" y1="125.66666666666669" x2="35" y2="125.66666666666669" style="visibility: inherit;" fill="rgb(0, 0, 0)" stroke="rgb(204, 204, 204)" stroke-width="1px"></line><line x1="40" y1="83.77777777777777" x2="35" y2="83.77777777777777" style="visibility: inherit;" fill="rgb(0, 0, 0)" stroke="rgb(204, 204, 204)" stroke-width="1px"></line><line x1="40" y1="41.88888888888891" x2="35" y2="41.88888888888891" style="visibility: inherit;" fill="rgb(0, 0, 0)" stroke="rgb(204, 204, 204)" stroke-width="1px"></line><line x1="40" y1="0" x2="35" y2="0" style="visibility: inherit;" fill="rgb(0, 0, 0)" stroke="rgb(204, 204, 204)" stroke-width="1px"></line></g><g transform="translate(30, 0)"><text x="0" y="377" dx="0em" dy="0.3em" style="text-anchor: end; visibility: hidden; font-family: Roboto, sans-serif; font-size: 12px; font-weight: 200;" fill="rgb(33, 33, 33)" stroke="none" stroke-width="1px">20</text><text x="0" y="335.1111111111111" dx="0em" dy="0.3em" style="text-anchor: end; visibility: inherit; font-family: Roboto, sans-serif; font-size: 12px; font-weight: 200;" fill="rgb(33, 33, 33)" stroke="none" stroke-width="1px">30</text><text x="0" y="293.22222222222223" dx="0em" dy="0.3em" style="text-anchor: end; visibility: inherit; font-family: Roboto, sans-serif; font-size: 12px; font-weight: 200;" fill="rgb(33, 33, 33)" stroke="none" stroke-width="1px">40</text><text x="0" y="251.33333333333337" dx="0em" dy="0.3em" style="text-anchor: end; visibility: inherit; font-family: Roboto, sans-serif; font-size: 12px; font-weight: 200;" fill="rgb(33, 33, 33)" stroke="none" stroke-width="1px">50</text><text x="0" y="209.44444444444446" dx="0em" dy="0.3em" style="text-anchor: end; visibility: inherit; font-family: Roboto, sans-serif; font-size: 12px; font-weight: 200;" fill="rgb(33, 33, 33)" stroke="none" stroke-width="1px">60</text><text x="0" y="167.55555555555554" dx="0em" dy="0.3em" style="text-anchor: end; visibility: inherit; font-family: Roboto, sans-serif; font-size: 12px; font-weight: 200;" fill="rgb(33, 33, 33)" stroke="none" stroke-width="1px">70</text><text x="0" y="125.66666666666669" dx="0em" dy="0.3em" style="text-anchor: end; visibility: inherit; font-family: Roboto, sans-serif; font-size: 12px; font-weight: 200;" fill="rgb(33, 33, 33)" stroke="none" stroke-width="1px">80</text><text x="0" y="83.77777777777777" dx="0em" dy="0.3em" style="text-anchor: end; visibility: inherit; font-family: Roboto, sans-serif; font-size: 12px; font-weight: 200;" fill="rgb(33, 33, 33)" stroke="none" stroke-width="1px">90</text><text x="0" y="41.88888888888891" dx="0em" dy="0.3em" style="text-anchor: end; visibility: inherit; font-family: Roboto, sans-serif; font-size: 12px; font-weight: 200;" fill="rgb(33, 33, 33)" stroke="none" stroke-width="1px">100</text><text x="0" y="0" dx="0em" dy="0.3em" style="text-anchor: end; visibility: hidden; font-family: Roboto, sans-serif; font-size: 12px; font-weight: 200;" fill="rgb(33, 33, 33)" stroke="none" stroke-width="1px">110</text></g><line x1="40" y1="0" x2="40" y2="377" fill="rgb(0, 0, 0)" stroke="rgb(204, 204, 204)" stroke-width="1px"></line></g></g><g transform="translate(40, 0)" clip-path="url(#clip_0)"><clipPath id="clip_0"><rect width="1538" height="377"></rect></clipPath><g><g><g><line x1="0" y1="0" x2="0" y2="377" fill="rgb(0, 0, 0)" stroke="rgb(66, 66, 66)" stroke-width="1px" opacity="0.25"></line><line x1="128.18333333333334" y1="0" x2="128.18333333333334" y2="377" fill="rgb(0, 0, 0)" stroke="rgb(66, 66, 66)" stroke-width="1px" opacity="0.25"></line><line x1="256.3666666666667" y1="0" x2="256.3666666666667" y2="377" fill="rgb(0, 0, 0)" stroke="rgb(66, 66, 66)" stroke-width="1px" opacity="0.25"></line><line x1="384.55" y1="0" x2="384.55" y2="377" fill="rgb(0, 0, 0)" stroke="rgb(66, 66, 66)" stroke-width="1px" opacity="0.25"></line><line x1="512.7333333333333" y1="0" x2="512.7333333333333" y2="377" fill="rgb(0, 0, 0)" stroke="rgb(66, 66, 66)" stroke-width="1px" opacity="0.25"></line><line x1="640.9166666666667" y1="0" x2="640.9166666666667" y2="377" fill="rgb(0, 0, 0)" stroke="rgb(66, 66, 66)" stroke-width="1px" opacity="0.25"></line><line x1="769.1" y1="0" x2="769.1" y2="377" fill="rgb(0, 0, 0)" stroke="rgb(66, 66, 66)" stroke-width="1px" opacity="0.25"></line><line x1="897.2833333333334" y1="0" x2="897.2833333333334" y2="377" fill="rgb(0, 0, 0)" stroke="rgb(66, 66, 66)" stroke-width="1px" opacity="0.25"></line><line x1="1025.4666666666667" y1="0" x2="1025.4666666666667" y2="377" fill="rgb(0, 0, 0)" stroke="rgb(66, 66, 66)" stroke-width="1px" opacity="0.25"></line><line x1="1153.65" y1="0" x2="1153.65" y2="377" fill="rgb(0, 0, 0)" stroke="rgb(66, 66, 66)" stroke-width="1px" opacity="0.25"></line><line x1="1281.8333333333335" y1="0" x2="1281.8333333333335" y2="377" fill="rgb(0, 0, 0)" stroke="rgb(66, 66, 66)" stroke-width="1px" opacity="0.25"></line><line x1="1410.0166666666667" y1="0" x2="1410.0166666666667" y2="377" fill="rgb(0, 0, 0)" stroke="rgb(66, 66, 66)" stroke-width="1px" opacity="0.25"></line><line x1="1538.2" y1="0" x2="1538.2" y2="377" fill="rgb(0, 0, 0)" stroke="rgb(66, 66, 66)" stroke-width="1px" opacity="0.25"></line></g><g><line x1="0" y1="377" x2="1538.2" y2="377" fill="rgb(0, 0, 0)" stroke="rgb(66, 66, 66)" stroke-width="1px" opacity="0.25"></line><line x1="0" y1="335.1111111111111" x2="1538.2" y2="335.1111111111111" fill="rgb(0, 0, 0)" stroke="rgb(66, 66, 66)" stroke-width="1px" opacity="0.25"></line><line x1="0" y1="293.22222222222223" x2="1538.2" y2="293.22222222222223" fill="rgb(0, 0, 0)" stroke="rgb(66, 66, 66)" stroke-width="1px" opacity="0.25"></line><line x1="0" y1="251.33333333333337" x2="1538.2" y2="251.33333333333337" fill="rgb(0, 0, 0)" stroke="rgb(66, 66, 66)" stroke-width="1px" opacity="0.25"></line><line x1="0" y1="209.44444444444446" x2="1538.2" y2="209.44444444444446" fill="rgb(0, 0, 0)" stroke="rgb(66, 66, 66)" stroke-width="1px" opacity="0.25"></line><line x1="0" y1="167.55555555555554" x2="1538.2" y2="167.55555555555554" fill="rgb(0, 0, 0)" stroke="rgb(66, 66, 66)" stroke-width="1px" opacity="0.25"></line><line x1="0" y1="125.66666666666669" x2="1538.2" y2="125.66666666666669" fill="rgb(0, 0, 0)" stroke="rgb(66, 66, 66)" stroke-width="1px" opacity="0.25"></line><line x1="0" y1="83.77777777777777" x2="1538.2" y2="83.77777777777777" fill="rgb(0, 0, 0)" stroke="rgb(66, 66, 66)" stroke-width="1px" opacity="0.25"></line><line x1="0" y1="41.88888888888891" x2="1538.2" y2="41.88888888888891" fill="rgb(0, 0, 0)" stroke="rgb(66, 66, 66)" stroke-width="1px" opacity="0.25"></line><line x1="0" y1="0" x2="1538.2" y2="0" fill="rgb(0, 0, 0)" stroke="rgb(66, 66, 66)" stroke-width="1px" opacity="0.25"></line></g></g></g><g><g><line x1="0" y1="460.7777777777778" x2="1538.2" y2="460.7777777777778" fill="rgb(0, 0, 0)" stroke="rgb(153, 153, 153)" stroke-width="1.5px"></line></g></g><g><g><line x1="128.18333333333334" y1="0" x2="128.18333333333334" y2="377" fill="rgb(0, 0, 0)" stroke="rgb(153, 153, 153)" stroke-width="1.5px"></line></g></g><g><g><g><g><g><path stroke="rgb(204, 51, 17)" stroke-width="2px" d="M128.18333333333334,265.29629096984866L141.00166666666667,195.48148680792917L153.82000000000002,132.6481374952528L166.63833333333335,97.74075139363606L179.45666666666668,62.83333333333332L192.275,41.88888888888891L205.09333333333333,41.88888888888891L217.91166666666666,41.88888888888891L230.73,41.88888888888891L243.54833333333332,41.88888888888891L256.3666666666667,41.88888888888891L269.185,41.88888888888891L282.00333333333333,41.88888888888891L294.8216666666667,41.88888888888891L307.64000000000004,41.88888888888891L320.45833333333337,41.88888888888891L333.2766666666667,41.88888888888891L346.095,41.88888888888891L358.91333333333336,41.88888888888891L371.7316666666667,41.88888888888891L384.55,41.88888888888891L397.3683333333334,41.88888888888891L410.18666666666667,41.88888888888891L423.00500000000005,41.88888888888891L435.8233333333333,41.88888888888891L448.6416666666667,41.88888888888891L461.46,41.88888888888891L474.27833333333336,41.88888888888891L487.09666666666664,41.88888888888891L499.915,41.88888888888891L512.7333333333333,41.88888888888891L525.5516666666667,41.88888888888891L538.37,41.88888888888891L551.1883333333334,41.88888888888891L564.0066666666667,41.88888888888891L576.825,41.88888888888891L589.6433333333334,41.88888888888891L602.4616666666667,41.88888888888891L615.2800000000001,41.88888888888891L628.0983333333334,41.88888888888891L640.9166666666667,41.88888888888891L653.735,41.88888888888891L666.5533333333334,41.88888888888891L679.3716666666667,41.88888888888891L692.19,41.88888888888891L705.0083333333333,41.88888888888891L717.8266666666667,41.88888888888891L730.645,41.88888888888891L743.4633333333334,41.88888888888891L756.2816666666666,41.88888888888891L769.1,41.88888888888891L781.9183333333333,41.88888888888891L794.7366666666668,41.88888888888891L807.5550000000001,41.88888888888891L820.3733333333333,41.88888888888891L833.1916666666666,41.88888888888891L846.0100000000001,41.88888888888891L858.8283333333334,41.88888888888891L871.6466666666666,41.88888888888891L884.4649999999999,41.88888888888891L897.2833333333334,41.88888888888891L910.1016666666667,41.88888888888891L922.92,41.88888888888891L935.7383333333332,41.88888888888891L948.5566666666667,41.88888888888891L961.375,41.88888888888891L974.1933333333333,41.88888888888891L987.0116666666668,41.88888888888891L999.83,41.88888888888891L1012.6483333333333,41.88888888888891L1025.4666666666667,41.88888888888891L1038.285,41.88888888888891L1051.1033333333335,41.88888888888891L1063.9216666666666,41.88888888888891L1076.74,41.88888888888891L1089.5583333333334,41.88888888888891L1102.3766666666668,41.88888888888891L1115.195,41.88888888888891L1128.0133333333333,41.88888888888891L1140.8316666666667,41.88888888888891L1153.65,41.88888888888891L1166.4683333333332,41.88888888888891L1179.2866666666669,41.88888888888891L1192.105,41.88888888888891L1204.9233333333334,41.88888888888891L1217.7416666666666,41.88888888888891L1230.5600000000002,41.88888888888891L1243.3783333333333,41.88888888888891L1256.1966666666667,41.88888888888891L1269.0149999999999,41.88888888888891L1281.8333333333335,41.88888888888891L1294.6516666666666,41.88888888888891L1307.47,41.88888888888891L1320.2883333333332,41.88888888888891L1333.1066666666668,41.88888888888891L1345.925,41.88888888888891L1358.7433333333333,41.88888888888891L1371.5616666666667,41.88888888888891L1384.38,41.88888888888891L1397.1983333333333,41.88888888888891" style="fill: none;" fill="none"></path></g><g><path stroke="rgb(0, 119, 187)" stroke-width="2px" d="M128.18333333333334,307.1851798587375L141.00166666666667,307.1851798587375L153.82000000000002,335.1111111111111L166.63833333333335,293.22222222222223L179.45666666666668,265.29629096984866L192.275,118.68519583808052L205.09333333333333,69.81480416191948L217.91166666666666,48.87035971747503L230.73,62.83333333333332L243.54833333333332,55.851862504747196L256.3666666666667,76.7963069491916L269.185,55.851862504747196L282.00333333333333,62.83333333333332L294.8216666666667,76.7963069491916L307.64000000000004,48.87035971747503L320.45833333333337,62.83333333333332L333.2766666666667,62.83333333333332L346.095,48.87035971747503L358.91333333333336,48.87035971747503L371.7316666666667,48.87035971747503L384.55,48.87035971747503L397.3683333333334,62.83333333333332L410.18666666666667,62.83333333333332L423.00500000000005,69.81480416191948L435.8233333333333,48.87035971747503L448.6416666666667,48.87035971747503L461.46,48.87035971747503L474.27833333333336,55.851862504747196L487.09666666666664,55.851862504747196L499.915,55.851862504747196L512.7333333333333,48.87035971747503L525.5516666666667,62.83333333333332L538.37,55.851862504747196L551.1883333333334,48.87035971747503L564.0066666666667,48.87035971747503L576.825,48.87035971747503L589.6433333333334,48.87035971747503L602.4616666666667,48.87035971747503L615.2800000000001,48.87035971747503L628.0983333333334,48.87035971747503L640.9166666666667,48.87035971747503L653.735,48.87035971747503L666.5533333333334,48.87035971747503L679.3716666666667,48.87035971747503L692.19,41.88888888888891L705.0083333333333,41.88888888888891L717.8266666666667,41.88888888888891L730.645,41.88888888888891L743.4633333333334,41.88888888888891L756.2816666666666,41.88888888888891L769.1,41.88888888888891L781.9183333333333,41.88888888888891L794.7366666666668,41.88888888888891L807.5550000000001,41.88888888888891L820.3733333333333,41.88888888888891L833.1916666666666,41.88888888888891L846.0100000000001,41.88888888888891L858.8283333333334,41.88888888888891L871.6466666666666,41.88888888888891L884.4649999999999,41.88888888888891L897.2833333333334,41.88888888888891L910.1016666666667,41.88888888888891L922.92,41.88888888888891L935.7383333333332,41.88888888888891L948.5566666666667,41.88888888888891L961.375,41.88888888888891L974.1933333333333,41.88888888888891L987.0116666666668,41.88888888888891L999.83,41.88888888888891L1012.6483333333333,41.88888888888891L1025.4666666666667,41.88888888888891L1038.285,41.88888888888891L1051.1033333333335,41.88888888888891L1063.9216666666666,41.88888888888891L1076.74,41.88888888888891L1089.5583333333334,41.88888888888891L1102.3766666666668,41.88888888888891L1115.195,41.88888888888891L1128.0133333333333,41.88888888888891L1140.8316666666667,41.88888888888891L1153.65,41.88888888888891L1166.4683333333332,41.88888888888891L1179.2866666666669,41.88888888888891L1192.105,41.88888888888891L1204.9233333333334,41.88888888888891L1217.7416666666666,41.88888888888891L1230.5600000000002,41.88888888888891L1243.3783333333333,41.88888888888891L1256.1966666666667,41.88888888888891L1269.0149999999999,41.88888888888891L1281.8333333333335,41.88888888888891L1294.6516666666666,41.88888888888891L1307.47,41.88888888888891L1320.2883333333332,41.88888888888891L1333.1066666666668,41.88888888888891L1345.925,41.88888888888891L1358.7433333333333,41.88888888888891L1371.5616666666667,41.88888888888891L1384.38,41.88888888888891L1397.1983333333333,41.88888888888891" style="fill: none;" fill="none"></path></g><g><path stroke="rgb(255, 112, 67)" stroke-width="2px" d="M128.18333333333334,349.0740767372979L141.00166666666667,349.0740767372979L153.82000000000002,349.0740767372979L166.63833333333335,349.0740767372979L179.45666666666668,349.0740767372979L192.275,349.0740767372979L205.09333333333333,349.0740767372979L217.91166666666666,349.0740767372979L230.73,349.0740767372979L243.54833333333332,349.0740767372979L256.3666666666667,349.0740767372979L269.185,349.0740767372979L282.00333333333333,349.0740767372979L294.8216666666667,349.0740767372979L307.64000000000004,349.0740767372979L320.45833333333337,349.0740767372979L333.2766666666667,349.0740767372979L346.095,349.0740767372979L358.91333333333336,349.0740767372979L371.7316666666667,349.0740767372979L384.55,349.0740767372979L397.3683333333334,342.0925899293688L410.18666666666667,342.0925899293688L423.00500000000005,328.12963229285344L435.8233333333333,328.12963229285344L448.6416666666667,307.1851798587375L461.46,307.1851798587375L474.27833333333336,293.22222222222223L487.09666666666664,279.2592645857069L499.915,265.29629096984866L512.7333333333333,237.37037569681803L525.5516666666667,223.40740208095974L538.37,188.5L551.1883333333334,139.62964028252497L564.0066666666667,132.6481374952528L576.825,104.72222222222223L589.6433333333334,90.75924860636394L602.4616666666667,83.77777777777777L615.2800000000001,76.7963069491916L628.0983333333334,76.7963069491916L640.9166666666667,76.7963069491916L653.735,69.81480416191948L666.5533333333334,69.81480416191948L679.3716666666667,69.81480416191948L692.19,62.83333333333332L705.0083333333333,62.83333333333332L717.8266666666667,62.83333333333332L730.645,62.83333333333332L743.4633333333334,62.83333333333332L756.2816666666666,62.83333333333332L769.1,55.851862504747196L781.9183333333333,55.851862504747196L794.7366666666668,48.87035971747503L807.5550000000001,48.87035971747503L820.3733333333333,48.87035971747503L833.1916666666666,48.87035971747503L846.0100000000001,48.87035971747503L858.8283333333334,48.87035971747503L871.6466666666666,48.87035971747503L884.4649999999999,48.87035971747503L897.2833333333334,48.87035971747503L910.1016666666667,48.87035971747503L922.92,48.87035971747503L935.7383333333332,48.87035971747503L948.5566666666667,48.87035971747503L961.375,48.87035971747503L974.1933333333333,48.87035971747503L987.0116666666668,48.87035971747503L999.83,48.87035971747503L1012.6483333333333,48.87035971747503L1025.4666666666667,48.87035971747503L1038.285,48.87035971747503L1051.1033333333335,41.88888888888891L1063.9216666666666,41.88888888888891L1076.74,41.88888888888891L1089.5583333333334,41.88888888888891L1102.3766666666668,41.88888888888891L1115.195,41.88888888888891L1128.0133333333333,41.88888888888891L1140.8316666666667,41.88888888888891L1153.65,41.88888888888891L1166.4683333333332,41.88888888888891L1179.2866666666669,41.88888888888891L1192.105,41.88888888888891L1204.9233333333334,41.88888888888891L1217.7416666666666,41.88888888888891L1230.5600000000002,41.88888888888891L1243.3783333333333,41.88888888888891L1256.1966666666667,41.88888888888891L1269.0149999999999,41.88888888888891L1281.8333333333335,41.88888888888891L1294.6516666666666,41.88888888888891L1307.47,41.88888888888891L1320.2883333333332,41.88888888888891L1333.1066666666668,41.88888888888891L1345.925,41.88888888888891L1358.7433333333333,41.88888888888891L1371.5616666666667,41.88888888888891L1384.38,41.88888888888891L1397.1983333333333,41.88888888888891" style="fill: none;" fill="none"></path></g><g><path stroke="rgb(51, 187, 238)" stroke-width="2px" d="M128.18333333333334,342.0925899293688L141.00166666666667,174.5370263841417L153.82000000000002,69.81480416191948L166.63833333333335,55.851862504747196L179.45666666666668,48.87035971747503L192.275,48.87035971747503L205.09333333333333,48.87035971747503L217.91166666666666,55.851862504747196L230.73,55.851862504747196L243.54833333333332,55.851862504747196L256.3666666666667,55.851862504747196L269.185,55.851862504747196L282.00333333333333,41.88888888888891L294.8216666666667,41.88888888888891L307.64000000000004,41.88888888888891L320.45833333333337,41.88888888888891L333.2766666666667,41.88888888888891L346.095,41.88888888888891L358.91333333333336,41.88888888888891L371.7316666666667,41.88888888888891L384.55,41.88888888888891L397.3683333333334,41.88888888888891L410.18666666666667,41.88888888888891L423.00500000000005,41.88888888888891L435.8233333333333,41.88888888888891L448.6416666666667,41.88888888888891L461.46,41.88888888888891L474.27833333333336,41.88888888888891L487.09666666666664,41.88888888888891L499.915,41.88888888888891L512.7333333333333,41.88888888888891L525.5516666666667,41.88888888888891L538.37,41.88888888888891L551.1883333333334,41.88888888888891L564.0066666666667,41.88888888888891L576.825,41.88888888888891L589.6433333333334,41.88888888888891L602.4616666666667,41.88888888888891L615.2800000000001,41.88888888888891L628.0983333333334,41.88888888888891L640.9166666666667,41.88888888888891L653.735,41.88888888888891L666.5533333333334,41.88888888888891L679.3716666666667,41.88888888888891L692.19,41.88888888888891L705.0083333333333,41.88888888888891L717.8266666666667,41.88888888888891L730.645,41.88888888888891L743.4633333333334,41.88888888888891L756.2816666666666,41.88888888888891L769.1,41.88888888888891L781.9183333333333,41.88888888888891L794.7366666666668,41.88888888888891L807.5550000000001,41.88888888888891L820.3733333333333,41.88888888888891L833.1916666666666,41.88888888888891L846.0100000000001,41.88888888888891L858.8283333333334,41.88888888888891L871.6466666666666,41.88888888888891L884.4649999999999,41.88888888888891L897.2833333333334,41.88888888888891L910.1016666666667,41.88888888888891L922.92,41.88888888888891L935.7383333333332,41.88888888888891L948.5566666666667,41.88888888888891L961.375,41.88888888888891L974.1933333333333,41.88888888888891L987.0116666666668,41.88888888888891L999.83,41.88888888888891L1012.6483333333333,41.88888888888891L1025.4666666666667,41.88888888888891L1038.285,41.88888888888891L1051.1033333333335,41.88888888888891L1063.9216666666666,41.88888888888891L1076.74,41.88888888888891L1089.5583333333334,41.88888888888891L1102.3766666666668,41.88888888888891L1115.195,41.88888888888891L1128.0133333333333,41.88888888888891L1140.8316666666667,41.88888888888891L1153.65,41.88888888888891L1166.4683333333332,41.88888888888891L1179.2866666666669,41.88888888888891L1192.105,41.88888888888891L1204.9233333333334,41.88888888888891L1217.7416666666666,41.88888888888891L1230.5600000000002,41.88888888888891L1243.3783333333333,41.88888888888891L1256.1966666666667,41.88888888888891L1269.0149999999999,41.88888888888891L1281.8333333333335,41.88888888888891L1294.6516666666666,41.88888888888891L1307.47,41.88888888888891L1320.2883333333332,41.88888888888891L1333.1066666666668,41.88888888888891L1345.925,41.88888888888891L1358.7433333333333,41.88888888888891L1371.5616666666667,41.88888888888891L1384.38,41.88888888888891L1397.1983333333333,41.88888888888891" style="fill: none;" fill="none"></path></g></g></g></g></g></g><g transform="translate(40, 377)" clip-path="url(#clip_1)"><clipPath id="clip_1"><rect width="1538" height="23"></rect></clipPath><g><g><line x1="0" y1="0" x2="0" y2="5" style="visibility: inherit;" fill="rgb(0, 0, 0)" stroke="rgb(204, 204, 204)" stroke-width="1px"></line><line x1="128.18333333333334" y1="0" x2="128.18333333333334" y2="5" style="visibility: inherit;" fill="rgb(0, 0, 0)" stroke="rgb(204, 204, 204)" stroke-width="1px"></line><line x1="256.3666666666667" y1="0" x2="256.3666666666667" y2="5" style="visibility: inherit;" fill="rgb(0, 0, 0)" stroke="rgb(204, 204, 204)" stroke-width="1px"></line><line x1="384.55" y1="0" x2="384.55" y2="5" style="visibility: inherit;" fill="rgb(0, 0, 0)" stroke="rgb(204, 204, 204)" stroke-width="1px"></line><line x1="512.7333333333333" y1="0" x2="512.7333333333333" y2="5" style="visibility: inherit;" fill="rgb(0, 0, 0)" stroke="rgb(204, 204, 204)" stroke-width="1px"></line><line x1="640.9166666666667" y1="0" x2="640.9166666666667" y2="5" style="visibility: inherit;" fill="rgb(0, 0, 0)" stroke="rgb(204, 204, 204)" stroke-width="1px"></line><line x1="769.1" y1="0" x2="769.1" y2="5" style="visibility: inherit;" fill="rgb(0, 0, 0)" stroke="rgb(204, 204, 204)" stroke-width="1px"></line><line x1="897.2833333333334" y1="0" x2="897.2833333333334" y2="5" style="visibility: inherit;" fill="rgb(0, 0, 0)" stroke="rgb(204, 204, 204)" stroke-width="1px"></line><line x1="1025.4666666666667" y1="0" x2="1025.4666666666667" y2="5" style="visibility: inherit;" fill="rgb(0, 0, 0)" stroke="rgb(204, 204, 204)" stroke-width="1px"></line><line x1="1153.65" y1="0" x2="1153.65" y2="5" style="visibility: inherit;" fill="rgb(0, 0, 0)" stroke="rgb(204, 204, 204)" stroke-width="1px"></line><line x1="1281.8333333333335" y1="0" x2="1281.8333333333335" y2="5" style="visibility: inherit;" fill="rgb(0, 0, 0)" stroke="rgb(204, 204, 204)" stroke-width="1px"></line><line x1="1410.0166666666667" y1="0" x2="1410.0166666666667" y2="5" style="visibility: inherit;" fill="rgb(0, 0, 0)" stroke="rgb(204, 204, 204)" stroke-width="1px"></line><line x1="1538.2" y1="0" x2="1538.2" y2="5" style="visibility: inherit;" fill="rgb(0, 0, 0)" stroke="rgb(204, 204, 204)" stroke-width="1px"></line></g><g transform="translate(0, 8)"><text x="0" y="0" dx="0em" dy="0.95em" style="text-anchor: middle; visibility: hidden; font-family: Roboto, sans-serif; font-size: 12px; font-weight: 200;" fill="rgb(33, 33, 33)" stroke="none" stroke-width="1px">-10</text><text x="128.18333333333334" y="0" dx="0em" dy="0.95em" style="text-anchor: middle; visibility: inherit; font-family: Roboto, sans-serif; font-size: 12px; font-weight: 200;" fill="rgb(33, 33, 33)" stroke="none" stroke-width="1px">0</text><text x="256.3666666666667" y="0" dx="0em" dy="0.95em" style="text-anchor: middle; visibility: inherit; font-family: Roboto, sans-serif; font-size: 12px; font-weight: 200;" fill="rgb(33, 33, 33)" stroke="none" stroke-width="1px">10</text><text x="384.55" y="0" dx="0em" dy="0.95em" style="text-anchor: middle; visibility: inherit; font-family: Roboto, sans-serif; font-size: 12px; font-weight: 200;" fill="rgb(33, 33, 33)" stroke="none" stroke-width="1px">20</text><text x="512.7333333333333" y="0" dx="0em" dy="0.95em" style="text-anchor: middle; visibility: inherit; font-family: Roboto, sans-serif; font-size: 12px; font-weight: 200;" fill="rgb(33, 33, 33)" stroke="none" stroke-width="1px">30</text><text x="640.9166666666667" y="0" dx="0em" dy="0.95em" style="text-anchor: middle; visibility: inherit; font-family: Roboto, sans-serif; font-size: 12px; font-weight: 200;" fill="rgb(33, 33, 33)" stroke="none" stroke-width="1px">40</text><text x="769.1" y="0" dx="0em" dy="0.95em" style="text-anchor: middle; visibility: inherit; font-family: Roboto, sans-serif; font-size: 12px; font-weight: 200;" fill="rgb(33, 33, 33)" stroke="none" stroke-width="1px">50</text><text x="897.2833333333334" y="0" dx="0em" dy="0.95em" style="text-anchor: middle; visibility: inherit; font-family: Roboto, sans-serif; font-size: 12px; font-weight: 200;" fill="rgb(33, 33, 33)" stroke="none" stroke-width="1px">60</text><text x="1025.4666666666667" y="0" dx="0em" dy="0.95em" style="text-anchor: middle; visibility: inherit; font-family: Roboto, sans-serif; font-size: 12px; font-weight: 200;" fill="rgb(33, 33, 33)" stroke="none" stroke-width="1px">70</text><text x="1153.65" y="0" dx="0em" dy="0.95em" style="text-anchor: middle; visibility: inherit; font-family: Roboto, sans-serif; font-size: 12px; font-weight: 200;" fill="rgb(33, 33, 33)" stroke="none" stroke-width="1px">80</text><text x="1281.8333333333335" y="0" dx="0em" dy="0.95em" style="text-anchor: middle; visibility: inherit; font-family: Roboto, sans-serif; font-size: 12px; font-weight: 200;" fill="rgb(33, 33, 33)" stroke="none" stroke-width="1px">90</text><text x="1410.0166666666667" y="0" dx="0em" dy="0.95em" style="text-anchor: middle; visibility: inherit; font-family: Roboto, sans-serif; font-size: 12px; font-weight: 200;" fill="rgb(33, 33, 33)" stroke="none" stroke-width="1px">100</text><text x="1538.2" y="0" dx="0em" dy="0.95em" style="text-anchor: middle; visibility: hidden; font-family: Roboto, sans-serif; font-size: 12px; font-weight: 200;" fill="rgb(33, 33, 33)" stroke="none" stroke-width="1px">110</text></g><line x1="0" y1="0" x2="1538.2" y2="0" fill="rgb(0, 0, 0)" stroke="rgb(204, 204, 204)" stroke-width="1px"></line></g></g></g></g></svg>