<svg viewBox="0 0 1578.2000732421875 400" xmlns="http://www.w3.org/2000/svg"><g><g><g><g><g><line x1="40" y1="377" x2="35" y2="377" style="visibility: inherit;" fill="rgb(0, 0, 0)" stroke="rgb(204, 204, 204)" stroke-width="1px"></line><line x1="40" y1="335.1111111111111" x2="35" y2="335.1111111111111" style="visibility: inherit;" fill="rgb(0, 0, 0)" stroke="rgb(204, 204, 204)" stroke-width="1px"></line><line x1="40" y1="293.22222222222223" x2="35" y2="293.22222222222223" style="visibility: inherit;" fill="rgb(0, 0, 0)" stroke="rgb(204, 204, 204)" stroke-width="1px"></line><line x1="40" y1="251.33333333333337" x2="35" y2="251.33333333333337" style="visibility: inherit;" fill="rgb(0, 0, 0)" stroke="rgb(204, 204, 204)" stroke-width="1px"></line><line x1="40" y1="209.44444444444446" x2="35" y2="209.44444444444446" style="visibility: inherit;" fill="rgb(0, 0, 0)" stroke="rgb(204, 204, 204)" stroke-width="1px"></line><line x1="40" y1="167.55555555555554" x2="35" y2="167.55555555555554" style="visibility: inherit;" fill="rgb(0, 0, 0)" stroke="rgb(204, 204, 204)" stroke-width="1px"></line><line x1="40" y1="125.66666666666669" x2="35" y2="125.66666666666669" style="visibility: inherit;" fill="rgb(0, 0, 0)" stroke="rgb(204, 204, 204)" stroke-width="1px"></line><line x1="40" y1="83.77777777777777" x2="35" y2="83.77777777777777" style="visibility: inherit;" fill="rgb(0, 0, 0)" stroke="rgb(204, 204, 204)" stroke-width="1px"></line><line x1="40" y1="41.88888888888891" x2="35" y2="41.88888888888891" style="visibility: inherit;" fill="rgb(0, 0, 0)" stroke="rgb(204, 204, 204)" stroke-width="1px"></line><line x1="40" y1="0" x2="35" y2="0" style="visibility: inherit;" fill="rgb(0, 0, 0)" stroke="rgb(204, 204, 204)" stroke-width="1px"></line></g><g transform="translate(30, 0)"><text x="0" y="377" dx="0em" dy="0.3em" style="text-anchor: end; visibility: hidden; font-family: Roboto, sans-serif; font-size: 12px; font-weight: 200;" fill="rgb(33, 33, 33)" stroke="none" stroke-width="1px">20</text><text x="0" y="335.1111111111111" dx="0em" dy="0.3em" style="text-anchor: end; visibility: inherit; font-family: Roboto, sans-serif; font-size: 12px; font-weight: 200;" fill="rgb(33, 33, 33)" stroke="none" stroke-width="1px">30</text><text x="0" y="293.22222222222223" dx="0em" dy="0.3em" style="text-anchor: end; visibility: inherit; font-family: Roboto, sans-serif; font-size: 12px; font-weight: 200;" fill="rgb(33, 33, 33)" stroke="none" stroke-width="1px">40</text><text x="0" y="251.33333333333337" dx="0em" dy="0.3em" style="text-anchor: end; visibility: inherit; font-family: Roboto, sans-serif; font-size: 12px; font-weight: 200;" fill="rgb(33, 33, 33)" stroke="none" stroke-width="1px">50</text><text x="0" y="209.44444444444446" dx="0em" dy="0.3em" style="text-anchor: end; visibility: inherit; font-family: Roboto, sans-serif; font-size: 12px; font-weight: 200;" fill="rgb(33, 33, 33)" stroke="none" stroke-width="1px">60</text><text x="0" y="167.55555555555554" dx="0em" dy="0.3em" style="text-anchor: end; visibility: inherit; font-family: Roboto, sans-serif; font-size: 12px; font-weight: 200;" fill="rgb(33, 33, 33)" stroke="none" stroke-width="1px">70</text><text x="0" y="125.66666666666669" dx="0em" dy="0.3em" style="text-anchor: end; visibility: inherit; font-family: Roboto, sans-serif; font-size: 12px; font-weight: 200;" fill="rgb(33, 33, 33)" stroke="none" stroke-width="1px">80</text><text x="0" y="83.77777777777777" dx="0em" dy="0.3em" style="text-anchor: end; visibility: inherit; font-family: Roboto, sans-serif; font-size: 12px; font-weight: 200;" fill="rgb(33, 33, 33)" stroke="none" stroke-width="1px">90</text><text x="0" y="41.88888888888891" dx="0em" dy="0.3em" style="text-anchor: end; visibility: inherit; font-family: Roboto, sans-serif; font-size: 12px; font-weight: 200;" fill="rgb(33, 33, 33)" stroke="none" stroke-width="1px">100</text><text x="0" y="0" dx="0em" dy="0.3em" style="text-anchor: end; visibility: hidden; font-family: Roboto, sans-serif; font-size: 12px; font-weight: 200;" fill="rgb(33, 33, 33)" stroke="none" stroke-width="1px">110</text></g><line x1="40" y1="0" x2="40" y2="377" fill="rgb(0, 0, 0)" stroke="rgb(204, 204, 204)" stroke-width="1px"></line></g></g><g transform="translate(40, 0)" clip-path="url(#clip_0)"><clipPath id="clip_0"><rect width="1538" height="377"></rect></clipPath><g><g><g><line x1="0" y1="0" x2="0" y2="377" fill="rgb(0, 0, 0)" stroke="rgb(66, 66, 66)" stroke-width="1px" opacity="0.25"></line><line x1="128.18333333333334" y1="0" x2="128.18333333333334" y2="377" fill="rgb(0, 0, 0)" stroke="rgb(66, 66, 66)" stroke-width="1px" opacity="0.25"></line><line x1="256.3666666666667" y1="0" x2="256.3666666666667" y2="377" fill="rgb(0, 0, 0)" stroke="rgb(66, 66, 66)" stroke-width="1px" opacity="0.25"></line><line x1="384.55" y1="0" x2="384.55" y2="377" fill="rgb(0, 0, 0)" stroke="rgb(66, 66, 66)" stroke-width="1px" opacity="0.25"></line><line x1="512.7333333333333" y1="0" x2="512.7333333333333" y2="377" fill="rgb(0, 0, 0)" stroke="rgb(66, 66, 66)" stroke-width="1px" opacity="0.25"></line><line x1="640.9166666666667" y1="0" x2="640.9166666666667" y2="377" fill="rgb(0, 0, 0)" stroke="rgb(66, 66, 66)" stroke-width="1px" opacity="0.25"></line><line x1="769.1" y1="0" x2="769.1" y2="377" fill="rgb(0, 0, 0)" stroke="rgb(66, 66, 66)" stroke-width="1px" opacity="0.25"></line><line x1="897.2833333333334" y1="0" x2="897.2833333333334" y2="377" fill="rgb(0, 0, 0)" stroke="rgb(66, 66, 66)" stroke-width="1px" opacity="0.25"></line><line x1="1025.4666666666667" y1="0" x2="1025.4666666666667" y2="377" fill="rgb(0, 0, 0)" stroke="rgb(66, 66, 66)" stroke-width="1px" opacity="0.25"></line><line x1="1153.65" y1="0" x2="1153.65" y2="377" fill="rgb(0, 0, 0)" stroke="rgb(66, 66, 66)" stroke-width="1px" opacity="0.25"></line><line x1="1281.8333333333335" y1="0" x2="1281.8333333333335" y2="377" fill="rgb(0, 0, 0)" stroke="rgb(66, 66, 66)" stroke-width="1px" opacity="0.25"></line><line x1="1410.0166666666667" y1="0" x2="1410.0166666666667" y2="377" fill="rgb(0, 0, 0)" stroke="rgb(66, 66, 66)" stroke-width="1px" opacity="0.25"></line><line x1="1538.2" y1="0" x2="1538.2" y2="377" fill="rgb(0, 0, 0)" stroke="rgb(66, 66, 66)" stroke-width="1px" opacity="0.25"></line></g><g><line x1="0" y1="377" x2="1538.2" y2="377" fill="rgb(0, 0, 0)" stroke="rgb(66, 66, 66)" stroke-width="1px" opacity="0.25"></line><line x1="0" y1="335.1111111111111" x2="1538.2" y2="335.1111111111111" fill="rgb(0, 0, 0)" stroke="rgb(66, 66, 66)" stroke-width="1px" opacity="0.25"></line><line x1="0" y1="293.22222222222223" x2="1538.2" y2="293.22222222222223" fill="rgb(0, 0, 0)" stroke="rgb(66, 66, 66)" stroke-width="1px" opacity="0.25"></line><line x1="0" y1="251.33333333333337" x2="1538.2" y2="251.33333333333337" fill="rgb(0, 0, 0)" stroke="rgb(66, 66, 66)" stroke-width="1px" opacity="0.25"></line><line x1="0" y1="209.44444444444446" x2="1538.2" y2="209.44444444444446" fill="rgb(0, 0, 0)" stroke="rgb(66, 66, 66)" stroke-width="1px" opacity="0.25"></line><line x1="0" y1="167.55555555555554" x2="1538.2" y2="167.55555555555554" fill="rgb(0, 0, 0)" stroke="rgb(66, 66, 66)" stroke-width="1px" opacity="0.25"></line><line x1="0" y1="125.66666666666669" x2="1538.2" y2="125.66666666666669" fill="rgb(0, 0, 0)" stroke="rgb(66, 66, 66)" stroke-width="1px" opacity="0.25"></line><line x1="0" y1="83.77777777777777" x2="1538.2" y2="83.77777777777777" fill="rgb(0, 0, 0)" stroke="rgb(66, 66, 66)" stroke-width="1px" opacity="0.25"></line><line x1="0" y1="41.88888888888891" x2="1538.2" y2="41.88888888888891" fill="rgb(0, 0, 0)" stroke="rgb(66, 66, 66)" stroke-width="1px" opacity="0.25"></line><line x1="0" y1="0" x2="1538.2" y2="0" fill="rgb(0, 0, 0)" stroke="rgb(66, 66, 66)" stroke-width="1px" opacity="0.25"></line></g></g></g><g><g><line x1="0" y1="460.7777777777778" x2="1538.2" y2="460.7777777777778" fill="rgb(0, 0, 0)" stroke="rgb(153, 153, 153)" stroke-width="1.5px"></line></g></g><g><g><line x1="128.18333333333334" y1="0" x2="128.18333333333334" y2="377" fill="rgb(0, 0, 0)" stroke="rgb(153, 153, 153)" stroke-width="1.5px"></line></g></g><g><g><g><g><g><path stroke="rgb(0, 119, 187)" stroke-width="2px" d="M128.18333333333334,349.0740767372979L141.00166666666667,349.0740767372979L153.82000000000002,349.0740767372979L166.63833333333335,349.0740767372979L179.45666666666668,349.0740767372979L192.275,349.0740767372979L205.09333333333333,342.0925899293688L217.91166666666666,335.1111111111111L230.73,314.1666666666667L243.54833333333332,300.20370903015134L256.3666666666667,293.22222222222223L269.185,286.2407354142931L282.00333333333333,272.27777777777777L294.8216666666667,265.29629096984866L307.64000000000004,237.37037569681803L320.45833333333337,237.37037569681803L333.2766666666667,216.42593125237363L346.095,216.42593125237363L358.91333333333336,216.42593125237363L371.7316666666667,202.46295763651528L384.55,202.46295763651528L397.3683333333334,202.46295763651528L410.18666666666667,202.46295763651528L423.00500000000005,195.48148680792917L435.8233333333333,195.48148680792917L448.6416666666667,195.48148680792917L461.46,195.48148680792917L474.27833333333336,195.48148680792917L487.09666666666664,195.48148680792917L499.915,195.48148680792917L512.7333333333333,195.48148680792917L525.5516666666667,195.48148680792917L538.37,188.5L551.1883333333334,181.51852917141383L564.0066666666667,174.5370263841417L576.825,174.5370263841417L589.6433333333334,174.5370263841417L602.4616666666667,174.5370263841417L615.2800000000001,167.55555555555554L628.0983333333334,167.55555555555554L640.9166666666667,160.57408472696937L653.735,153.59258193969725L666.5533333333334,146.6111111111111L679.3716666666667,139.62964028252497L692.19,132.6481374952528L705.0083333333333,118.68519583808052L717.8266666666667,118.68519583808052L730.645,118.68519583808052L743.4633333333334,118.68519583808052L756.2816666666666,111.7036930508084L769.1,111.7036930508084L781.9183333333333,111.7036930508084L794.7366666666668,111.7036930508084L807.5550000000001,111.7036930508084L820.3733333333333,111.7036930508084L833.1916666666666,111.7036930508084L846.0100000000001,111.7036930508084L858.8283333333334,104.72222222222223L871.6466666666666,104.72222222222223L884.4649999999999,97.74075139363606L897.2833333333334,97.74075139363606L910.1016666666667,90.75924860636394L922.92,90.75924860636394L935.7383333333332,90.75924860636394L948.5566666666667,76.7963069491916L961.375,76.7963069491916L974.1933333333333,69.81480416191948L987.0116666666668,69.81480416191948L999.83,69.81480416191948L1012.6483333333333,69.81480416191948L1025.4666666666667,69.81480416191948L1038.285,69.81480416191948L1051.1033333333335,69.81480416191948L1063.9216666666666,69.81480416191948L1076.74,69.81480416191948L1089.5583333333334,69.81480416191948L1102.3766666666668,62.83333333333332L1115.195,62.83333333333332L1128.0133333333333,62.83333333333332L1140.8316666666667,62.83333333333332L1153.65,62.83333333333332L1166.4683333333332,62.83333333333332L1179.2866666666669,55.851862504747196L1192.105,55.851862504747196L1204.9233333333334,55.851862504747196L1217.7416666666666,55.851862504747196L1230.5600000000002,55.851862504747196L1243.3783333333333,55.851862504747196L1256.1966666666667,55.851862504747196L1269.0149999999999,48.87035971747503L1281.8333333333335,48.87035971747503L1294.6516666666666,48.87035971747503L1307.47,48.87035971747503L1320.2883333333332,41.88888888888891L1333.1066666666668,41.88888888888891L1345.925,41.88888888888891L1358.7433333333333,41.88888888888891L1371.5616666666667,41.88888888888891L1384.38,41.88888888888891L1397.1983333333333,41.88888888888891" style="fill: none;" fill="none"></path></g><g><path stroke="rgb(255, 112, 67)" stroke-width="2px" d="M128.18333333333334,307.1851798587375L141.00166666666667,307.1851798587375L153.82000000000002,307.1851798587375L166.63833333333335,307.1851798587375L179.45666666666668,307.1851798587375L192.275,307.1851798587375L205.09333333333333,307.1851798587375L217.91166666666666,307.1851798587375L230.73,307.1851798587375L243.54833333333332,307.1851798587375L256.3666666666667,307.1851798587375L269.185,307.1851798587375L282.00333333333333,307.1851798587375L294.8216666666667,307.1851798587375L307.64000000000004,307.1851798587375L320.45833333333337,307.1851798587375L333.2766666666667,307.1851798587375L346.095,307.1851798587375L358.91333333333336,307.1851798587375L371.7316666666667,307.1851798587375L384.55,307.1851798587375L397.3683333333334,307.1851798587375L410.18666666666667,307.1851798587375L423.00500000000005,307.1851798587375L435.8233333333333,307.1851798587375L448.6416666666667,307.1851798587375L461.46,307.1851798587375L474.27833333333336,307.1851798587375L487.09666666666664,307.1851798587375L499.915,307.1851798587375L512.7333333333333,307.1851798587375L525.5516666666667,307.1851798587375L538.37,307.1851798587375L551.1883333333334,307.1851798587375L564.0066666666667,307.1851798587375L576.825,307.1851798587375L589.6433333333334,307.1851798587375L602.4616666666667,307.1851798587375L615.2800000000001,307.1851798587375L628.0983333333334,307.1851798587375L640.9166666666667,307.1851798587375L653.735,307.1851798587375L666.5533333333334,307.1851798587375L679.3716666666667,307.1851798587375L692.19,307.1851798587375L705.0083333333333,307.1851798587375L717.8266666666667,307.1851798587375L730.645,307.1851798587375L743.4633333333334,307.1851798587375L756.2816666666666,307.1851798587375L769.1,307.1851798587375L781.9183333333333,307.1851798587375L794.7366666666668,307.1851798587375L807.5550000000001,307.1851798587375L820.3733333333333,307.1851798587375L833.1916666666666,307.1851798587375L846.0100000000001,307.1851798587375L858.8283333333334,307.1851798587375L871.6466666666666,307.1851798587375L884.4649999999999,314.1666666666667L897.2833333333334,314.1666666666667L910.1016666666667,314.1666666666667L922.92,314.1666666666667L935.7383333333332,314.1666666666667L948.5566666666667,307.1851798587375L961.375,300.20370903015134L974.1933333333333,300.20370903015134L987.0116666666668,279.2592645857069L999.83,244.3518465254042L1012.6483333333333,237.37037569681803L1025.4666666666667,223.40740208095974L1038.285,216.42593125237363L1051.1033333333335,223.40740208095974L1063.9216666666666,216.42593125237363L1076.74,223.40740208095974L1089.5583333333334,223.40740208095974L1102.3766666666668,223.40740208095974L1115.195,230.3888888888889L1128.0133333333333,237.37037569681803L1140.8316666666667,237.37037569681803L1153.65,237.37037569681803L1166.4683333333332,237.37037569681803L1179.2866666666669,237.37037569681803L1192.105,258.3148201412625L1204.9233333333334,272.27777777777777L1217.7416666666666,272.27777777777777L1230.5600000000002,286.2407354142931L1243.3783333333333,293.22222222222223L1256.1966666666667,293.22222222222223L1269.0149999999999,300.20370903015134L1281.8333333333335,307.1851798587375L1294.6516666666666,307.1851798587375L1307.47,314.1666666666667L1320.2883333333332,328.12963229285344L1333.1066666666668,328.12963229285344L1345.925,328.12963229285344L1358.7433333333333,328.12963229285344L1371.5616666666667,335.1111111111111L1384.38,335.1111111111111L1397.1983333333333,335.1111111111111" style="fill: none;" fill="none"></path></g><g><path stroke="rgb(187, 187, 187)" stroke-width="2px" d="M128.18333333333334,349.0740767372979L141.00166666666667,349.0740767372979L153.82000000000002,349.0740767372979L166.63833333333335,349.0740767372979L179.45666666666668,349.0740767372979L192.275,349.0740767372979L205.09333333333333,349.0740767372979L217.91166666666666,349.0740767372979L230.73,349.0740767372979L243.54833333333332,349.0740767372979L256.3666666666667,349.0740767372979L269.185,349.0740767372979L282.00333333333333,349.0740767372979L294.8216666666667,349.0740767372979L307.64000000000004,349.0740767372979L320.45833333333337,349.0740767372979L333.2766666666667,349.0740767372979L346.095,349.0740767372979L358.91333333333336,349.0740767372979L371.7316666666667,349.0740767372979L384.55,349.0740767372979L397.3683333333334,349.0740767372979L410.18666666666667,349.0740767372979L423.00500000000005,349.0740767372979L435.8233333333333,349.0740767372979L448.6416666666667,349.0740767372979L461.46,349.0740767372979L474.27833333333336,349.0740767372979L487.09666666666664,349.0740767372979L499.915,349.0740767372979L512.7333333333333,349.0740767372979L525.5516666666667,349.0740767372979L538.37,349.0740767372979L551.1883333333334,349.0740767372979L564.0066666666667,349.0740767372979L576.825,349.0740767372979L589.6433333333334,349.0740767372979L602.4616666666667,349.0740767372979L615.2800000000001,349.0740767372979L628.0983333333334,349.0740767372979L640.9166666666667,349.0740767372979L653.735,349.0740767372979L666.5533333333334,349.0740767372979L679.3716666666667,349.0740767372979L692.19,349.0740767372979L705.0083333333333,349.0740767372979L717.8266666666667,349.0740767372979L730.645,349.0740767372979L743.4633333333334,349.0740767372979L756.2816666666666,349.0740767372979L769.1,349.0740767372979L781.9183333333333,349.0740767372979L794.7366666666668,349.0740767372979L807.5550000000001,349.0740767372979L820.3733333333333,349.0740767372979L833.1916666666666,349.0740767372979L846.0100000000001,349.0740767372979L858.8283333333334,349.0740767372979L871.6466666666666,349.0740767372979L884.4649999999999,349.0740767372979L897.2833333333334,349.0740767372979L910.1016666666667,349.0740767372979L922.92,349.0740767372979L935.7383333333332,349.0740767372979L948.5566666666667,349.0740767372979L961.375,349.0740767372979L974.1933333333333,349.0740767372979L987.0116666666668,349.0740767372979L999.83,349.0740767372979L1012.6483333333333,349.0740767372979L1025.4666666666667,349.0740767372979L1038.285,349.0740767372979L1051.1033333333335,349.0740767372979L1063.9216666666666,349.0740767372979L1076.74,349.0740767372979L1089.5583333333334,349.0740767372979L1102.3766666666668,349.0740767372979L1115.195,349.0740767372979L1128.0133333333333,349.0740767372979L1140.8316666666667,349.0740767372979L1153.65,349.0740767372979L1166.4683333333332,349.0740767372979L1179.2866666666669,349.0740767372979L1192.105,349.0740767372979L1204.9233333333334,349.0740767372979L1217.7416666666666,349.0740767372979L1230.5600000000002,349.0740767372979L1243.3783333333333,349.0740767372979L1256.1966666666667,349.0740767372979L1269.0149999999999,349.0740767372979L1281.8333333333335,349.0740767372979L1294.6516666666666,349.0740767372979L1307.47,349.0740767372979L1320.2883333333332,349.0740767372979L1333.1066666666668,349.0740767372979L1345.925,349.0740767372979L1358.7433333333333,349.0740767372979L1371.5616666666667,349.0740767372979L1384.38,349.0740767372979L1397.1983333333333,349.0740767372979" style="fill: none;" fill="none"></path></g><g><path stroke="rgb(204, 51, 17)" stroke-width="2px" d="M128.18333333333334,349.0740767372979L141.00166666666667,349.0740767372979L153.82000000000002,349.0740767372979L166.63833333333335,349.0740767372979L179.45666666666668,349.0740767372979L192.275,349.0740767372979L205.09333333333333,349.0740767372979L217.91166666666666,342.0925899293688L230.73,342.0925899293688L243.54833333333332,342.0925899293688L256.3666666666667,342.0925899293688L269.185,335.1111111111111L282.00333333333333,314.1666666666667L294.8216666666667,307.1851798587375L307.64000000000004,286.2407354142931L320.45833333333337,279.2592645857069L333.2766666666667,265.29629096984866L346.095,251.33333333333337L358.91333333333336,251.33333333333337L371.7316666666667,223.40740208095974L384.55,209.44444444444446L397.3683333333334,181.51852917141383L410.18666666666667,181.51852917141383L423.00500000000005,181.51852917141383L435.8233333333333,181.51852917141383L448.6416666666667,167.55555555555554L461.46,139.62964028252497L474.27833333333336,118.68519583808052L487.09666666666664,111.7036930508084L499.915,104.72222222222223L512.7333333333333,104.72222222222223L525.5516666666667,104.72222222222223L538.37,97.74075139363606L551.1883333333334,97.74075139363606L564.0066666666667,90.75924860636394L576.825,76.7963069491916L589.6433333333334,76.7963069491916L602.4616666666667,76.7963069491916L615.2800000000001,76.7963069491916L628.0983333333334,76.7963069491916L640.9166666666667,76.7963069491916L653.735,76.7963069491916L666.5533333333334,69.81480416191948L679.3716666666667,62.83333333333332L692.19,62.83333333333332L705.0083333333333,62.83333333333332L717.8266666666667,62.83333333333332L730.645,62.83333333333332L743.4633333333334,55.851862504747196L756.2816666666666,55.851862504747196L769.1,55.851862504747196L781.9183333333333,55.851862504747196L794.7366666666668,55.851862504747196L807.5550000000001,55.851862504747196L820.3733333333333,55.851862504747196L833.1916666666666,55.851862504747196L846.0100000000001,48.87035971747503L858.8283333333334,48.87035971747503L871.6466666666666,48.87035971747503L884.4649999999999,48.87035971747503L897.2833333333334,48.87035971747503L910.1016666666667,48.87035971747503L922.92,48.87035971747503L935.7383333333332,48.87035971747503L948.5566666666667,48.87035971747503L961.375,48.87035971747503L974.1933333333333,48.87035971747503L987.0116666666668,48.87035971747503L999.83,48.87035971747503L1012.6483333333333,48.87035971747503L1025.4666666666667,48.87035971747503L1038.285,48.87035971747503L1051.1033333333335,48.87035971747503L1063.9216666666666,48.87035971747503L1076.74,48.87035971747503L1089.5583333333334,48.87035971747503L1102.3766666666668,48.87035971747503L1115.195,48.87035971747503L1128.0133333333333,48.87035971747503L1140.8316666666667,48.87035971747503L1153.65,48.87035971747503L1166.4683333333332,48.87035971747503L1179.2866666666669,48.87035971747503L1192.105,48.87035971747503L1204.9233333333334,48.87035971747503L1217.7416666666666,48.87035971747503L1230.5600000000002,48.87035971747503L1243.3783333333333,48.87035971747503L1256.1966666666667,48.87035971747503L1269.0149999999999,48.87035971747503L1281.8333333333335,48.87035971747503L1294.6516666666666,48.87035971747503L1307.47,48.87035971747503L1320.2883333333332,48.87035971747503L1333.1066666666668,48.87035971747503L1345.925,48.87035971747503L1358.7433333333333,48.87035971747503L1371.5616666666667,48.87035971747503L1384.38,48.87035971747503L1397.1983333333333,48.87035971747503" style="fill: none;" fill="none"></path></g><g><path stroke="rgb(238, 51, 119)" stroke-width="2px" d="M128.18333333333334,343.7402199851142L141.00166666666667,232.60899488661028L153.82000000000002,188.20677905612524L166.63833333333335,170.78098593817816L179.45666666666668,158.04679183959962L192.275,143.76266538831925L205.09333333333333,132.78776499430336L217.91166666666666,122.23177905612522L230.73,113.43511878119574L243.54833333333332,107.94765260484485L256.3666666666667,104.63845850626626L269.185,100.0306551615397L282.00333333333333,97.81054916381834L294.8216666666667,95.25532438490126L307.64000000000004,93.32843933105471L320.45833333333337,91.2758927239312L333.2766666666667,89.89355172051324L346.095,88.7206679450141L358.91333333333336,87.88290295071073L371.7316666666667,86.96134228176538L384.55,86.5843256632487L397.3683333333334,85.91412005954317L410.18666666666667,85.3276781717936L423.00500000000005,84.61554277208114L435.8233333333333,83.98723500569662L448.6416666666667,83.23323372734916L461.46,82.73055555555555L474.27833333333336,82.31167305840387L487.09666666666664,81.43201022677954L499.915,81.30634867350261L512.7333333333333,81.0549936082628L525.5516666666667,80.42665388319227L538.37,80.2591264512804L551.1883333333334,79.92400767008462L564.0066666666667,80.09156706068251L576.825,79.17000639173722L589.6433333333334,78.6254303826226L602.4616666666667,78.3741072760688L615.2800000000001,78.03898849487302L628.0983333333334,77.49444444444447L640.9166666666667,76.9917662726508L653.735,77.11745978461373L666.5533333333334,76.69854532877605L679.3716666666667,76.57288377549912L692.19,76.2377649943034L705.0083333333333,75.14867689344618L717.8266666666667,75.48376371595594L730.645,75.65132310655383L743.4633333333334,75.2743384467231L756.2816666666666,74.85545594957142L769.1,74.60410088433161L781.9183333333333,74.64599872165257L794.7366666666668,74.059556833903L807.5550000000001,73.89199744330512L820.3733333333333,73.80823372734916L833.1916666666666,73.68254021538627L846.0100000000001,73.30555555555554L858.8283333333334,73.3474533928765L871.6466666666666,73.0960983276367L884.4649999999999,72.67721583048501L897.2833333333334,72.55155427720814L910.1016666666667,72.09077394273544L922.92,72.09077394273544L935.7383333333332,71.67189144558375L948.5566666666667,71.71378928290471L961.375,71.25300894843207L974.1933333333333,71.08544955783418L987.0116666666668,70.58277138604058L999.83,70.7084329393175L1012.6483333333333,70.49900767008461L1025.4666666666667,70.16388888888889L1038.285,69.9125657823351L1051.1033333333335,69.87066794501412L1063.9216666666666,69.87066794501412L1076.74,69.53554916381836L1089.5583333333334,69.36798977322047L1102.3766666666668,69.15856450398763L1115.195,68.90720943874783L1128.0133333333333,68.94910727606879L1140.8316666666667,68.57212261623806L1153.65,68.5302247789171L1166.4683333333332,68.32076755099826L1179.2866666666669,68.15320816040037L1192.105,68.11134228176542L1204.9233333333334,67.8181213378906L1217.7416666666666,67.73432566324868L1230.5600000000002,67.65056194729277L1243.3783333333333,67.94378289116753L1256.1966666666667,67.39920688205297L1269.0149999999999,67.48300255669488L1281.8333333333335,67.48300255669488L1294.6516666666666,66.89656066894531L1307.47,67.23167945014107L1320.2883333333332,66.93845850626627L1333.1066666666668,66.89656066894531L1345.925,66.47767817179363L1358.7433333333333,66.64523756239151L1371.5616666666667,66.60333972507055L1384.38,66.68710344102647L1397.1983333333333,66.35198465983075" style="fill: none;" fill="none"></path></g><g><path stroke="rgb(51, 187, 238)" stroke-width="2px" d="M269.185,379.4295552359687L282.00333333333333,366.1088872909546L294.8216666666667,348.64122030470105L307.64000000000004,335.5300015979343L320.45833333333337,324.68077074686687L333.2766666666667,289.70355491638185L346.095,235.03855811225043L358.91333333333336,192.47943166097002L371.7316666666667,161.10466283162435L384.55,141.375L397.3683333333334,128.80833333333334L410.18666666666667,122.3993384467231L423.00500000000005,116.82810855441625L435.8233333333333,112.22033716837564L448.6416666666667,109.45565516153971L461.46,106.64910727606878L474.27833333333336,104.30333972507054L487.09666666666664,103.50744060940212L499.915,101.28733461168076L512.7333333333333,100.40767178005643L525.5516666666667,97.97810855441622L538.37,96.80522477891708L551.1883333333334,95.75800255669486L564.0066666666667,94.79454405042861L576.825,94.25L589.6433333333334,93.7473218282064L602.4616666666667,92.65823372734917L615.2800000000001,92.44877649943032L628.0983333333334,92.15555555555557L640.9166666666667,91.10833333333335L653.735,90.77321455213757L666.5533333333334,89.76789016723632L679.3716666666667,88.97199105156791L692.19,87.96666666666664L705.0083333333333,86.75188505384659L717.8266666666667,86.62622350056967L730.645,86.83568072848851L743.4633333333334,85.03445722791884L756.2816666666666,85.07632310655384L769.1,84.1547624376085L781.9183333333333,83.44265899658205L794.7366666666668,83.56832054985892L807.5550000000001,81.80899488661026L820.3733333333333,81.85089272393122L833.1916666666666,81.34821455213756L846.0100000000001,81.26445083618165L858.8283333333334,80.17533077663848L871.6466666666666,80.13343293931752L884.4649999999999,79.5888888888889L897.2833333333334,79.08621071709526L910.1016666666667,78.3741072760688L922.92,78.16468200683596L935.7383333333332,77.62010599772134L948.5566666666667,77.53634228176543L961.375,77.24312133789061L974.1933333333333,76.86610471937394L987.0116666666668,77.07556194729273L999.83,76.1958991156684L1012.6483333333333,76.57288377549912L1025.4666666666667,76.40532438490123L1038.285,75.7769846598307L1051.1033333333335,75.69322094387479L1063.9216666666666,74.89732182820637L1076.74,74.68789655897353L1089.5583333333334,74.43654149373373L1102.3766666666668,74.64599872165257L1115.195,73.72443805270723L1128.0133333333333,73.80823372734916L1140.8316666666667,73.89199744330512L1153.65,73.59877649943036L1166.4683333333332,73.68254021538627L1179.2866666666669,73.89199744330512L1192.105,73.43121710883247L1204.9233333333334,73.85009960598416L1217.7416666666666,73.5568786621094L1230.5600000000002,72.92857089572482L1243.3783333333333,73.01233461168079L1256.1966666666667,73.51501278347439L1269.0149999999999,72.97043677435983L1281.8333333333335,73.17989400227867L1294.6516666666666,72.88667305840386L1307.47,72.63531799316405L1320.2883333333332,72.21643549601237L1333.1066666666668,72.42589272393121L1345.925,73.3474533928765L1358.7433333333333,72.67721583048501L1371.5616666666667,72.1326717800564L1384.38,72.1745696173774L1397.1983333333333,71.83945083618164" style="fill: none;" fill="none"></path></g></g></g></g></g></g><g transform="translate(40, 377)" clip-path="url(#clip_1)"><clipPath id="clip_1"><rect width="1538" height="23"></rect></clipPath><g><g><line x1="0" y1="0" x2="0" y2="5" style="visibility: inherit;" fill="rgb(0, 0, 0)" stroke="rgb(204, 204, 204)" stroke-width="1px"></line><line x1="128.18333333333334" y1="0" x2="128.18333333333334" y2="5" style="visibility: inherit;" fill="rgb(0, 0, 0)" stroke="rgb(204, 204, 204)" stroke-width="1px"></line><line x1="256.3666666666667" y1="0" x2="256.3666666666667" y2="5" style="visibility: inherit;" fill="rgb(0, 0, 0)" stroke="rgb(204, 204, 204)" stroke-width="1px"></line><line x1="384.55" y1="0" x2="384.55" y2="5" style="visibility: inherit;" fill="rgb(0, 0, 0)" stroke="rgb(204, 204, 204)" stroke-width="1px"></line><line x1="512.7333333333333" y1="0" x2="512.7333333333333" y2="5" style="visibility: inherit;" fill="rgb(0, 0, 0)" stroke="rgb(204, 204, 204)" stroke-width="1px"></line><line x1="640.9166666666667" y1="0" x2="640.9166666666667" y2="5" style="visibility: inherit;" fill="rgb(0, 0, 0)" stroke="rgb(204, 204, 204)" stroke-width="1px"></line><line x1="769.1" y1="0" x2="769.1" y2="5" style="visibility: inherit;" fill="rgb(0, 0, 0)" stroke="rgb(204, 204, 204)" stroke-width="1px"></line><line x1="897.2833333333334" y1="0" x2="897.2833333333334" y2="5" style="visibility: inherit;" fill="rgb(0, 0, 0)" stroke="rgb(204, 204, 204)" stroke-width="1px"></line><line x1="1025.4666666666667" y1="0" x2="1025.4666666666667" y2="5" style="visibility: inherit;" fill="rgb(0, 0, 0)" stroke="rgb(204, 204, 204)" stroke-width="1px"></line><line x1="1153.65" y1="0" x2="1153.65" y2="5" style="visibility: inherit;" fill="rgb(0, 0, 0)" stroke="rgb(204, 204, 204)" stroke-width="1px"></line><line x1="1281.8333333333335" y1="0" x2="1281.8333333333335" y2="5" style="visibility: inherit;" fill="rgb(0, 0, 0)" stroke="rgb(204, 204, 204)" stroke-width="1px"></line><line x1="1410.0166666666667" y1="0" x2="1410.0166666666667" y2="5" style="visibility: inherit;" fill="rgb(0, 0, 0)" stroke="rgb(204, 204, 204)" stroke-width="1px"></line><line x1="1538.2" y1="0" x2="1538.2" y2="5" style="visibility: inherit;" fill="rgb(0, 0, 0)" stroke="rgb(204, 204, 204)" stroke-width="1px"></line></g><g transform="translate(0, 8)"><text x="0" y="0" dx="0em" dy="0.95em" style="text-anchor: middle; visibility: hidden; font-family: Roboto, sans-serif; font-size: 12px; font-weight: 200;" fill="rgb(33, 33, 33)" stroke="none" stroke-width="1px">-10</text><text x="128.18333333333334" y="0" dx="0em" dy="0.95em" style="text-anchor: middle; visibility: inherit; font-family: Roboto, sans-serif; font-size: 12px; font-weight: 200;" fill="rgb(33, 33, 33)" stroke="none" stroke-width="1px">0</text><text x="256.3666666666667" y="0" dx="0em" dy="0.95em" style="text-anchor: middle; visibility: inherit; font-family: Roboto, sans-serif; font-size: 12px; font-weight: 200;" fill="rgb(33, 33, 33)" stroke="none" stroke-width="1px">10</text><text x="384.55" y="0" dx="0em" dy="0.95em" style="text-anchor: middle; visibility: inherit; font-family: Roboto, sans-serif; font-size: 12px; font-weight: 200;" fill="rgb(33, 33, 33)" stroke="none" stroke-width="1px">20</text><text x="512.7333333333333" y="0" dx="0em" dy="0.95em" style="text-anchor: middle; visibility: inherit; font-family: Roboto, sans-serif; font-size: 12px; font-weight: 200;" fill="rgb(33, 33, 33)" stroke="none" stroke-width="1px">30</text><text x="640.9166666666667" y="0" dx="0em" dy="0.95em" style="text-anchor: middle; visibility: inherit; font-family: Roboto, sans-serif; font-size: 12px; font-weight: 200;" fill="rgb(33, 33, 33)" stroke="none" stroke-width="1px">40</text><text x="769.1" y="0" dx="0em" dy="0.95em" style="text-anchor: middle; visibility: inherit; font-family: Roboto, sans-serif; font-size: 12px; font-weight: 200;" fill="rgb(33, 33, 33)" stroke="none" stroke-width="1px">50</text><text x="897.2833333333334" y="0" dx="0em" dy="0.95em" style="text-anchor: middle; visibility: inherit; font-family: Roboto, sans-serif; font-size: 12px; font-weight: 200;" fill="rgb(33, 33, 33)" stroke="none" stroke-width="1px">60</text><text x="1025.4666666666667" y="0" dx="0em" dy="0.95em" style="text-anchor: middle; visibility: inherit; font-family: Roboto, sans-serif; font-size: 12px; font-weight: 200;" fill="rgb(33, 33, 33)" stroke="none" stroke-width="1px">70</text><text x="1153.65" y="0" dx="0em" dy="0.95em" style="text-anchor: middle; visibility: inherit; font-family: Roboto, sans-serif; font-size: 12px; font-weight: 200;" fill="rgb(33, 33, 33)" stroke="none" stroke-width="1px">80</text><text x="1281.8333333333335" y="0" dx="0em" dy="0.95em" style="text-anchor: middle; visibility: inherit; font-family: Roboto, sans-serif; font-size: 12px; font-weight: 200;" fill="rgb(33, 33, 33)" stroke="none" stroke-width="1px">90</text><text x="1410.0166666666667" y="0" dx="0em" dy="0.95em" style="text-anchor: middle; visibility: inherit; font-family: Roboto, sans-serif; font-size: 12px; font-weight: 200;" fill="rgb(33, 33, 33)" stroke="none" stroke-width="1px">100</text><text x="1538.2" y="0" dx="0em" dy="0.95em" style="text-anchor: middle; visibility: hidden; font-family: Roboto, sans-serif; font-size: 12px; font-weight: 200;" fill="rgb(33, 33, 33)" stroke="none" stroke-width="1px">110</text></g><line x1="0" y1="0" x2="1538.2" y2="0" fill="rgb(0, 0, 0)" stroke="rgb(204, 204, 204)" stroke-width="1px"></line></g></g></g></g></svg>