<svg viewBox="0 0 330 200" xmlns="http://www.w3.org/2000/svg"><g><g><g><g><g><line x1="41.171875" y1="177" x2="36.171875" y2="177" style="visibility: inherit;" fill="rgb(0, 0, 0)" stroke="rgb(204, 204, 204)" stroke-width="1px"></line><line x1="41.171875" y1="157.33333333333331" x2="36.171875" y2="157.33333333333331" style="visibility: inherit;" fill="rgb(0, 0, 0)" stroke="rgb(204, 204, 204)" stroke-width="1px"></line><line x1="41.171875" y1="137.66666666666666" x2="36.171875" y2="137.66666666666666" style="visibility: inherit;" fill="rgb(0, 0, 0)" stroke="rgb(204, 204, 204)" stroke-width="1px"></line><line x1="41.171875" y1="118.00000000000001" x2="36.171875" y2="118.00000000000001" style="visibility: inherit;" fill="rgb(0, 0, 0)" stroke="rgb(204, 204, 204)" stroke-width="1px"></line><line x1="41.171875" y1="98.33333333333334" x2="36.171875" y2="98.33333333333334" style="visibility: inherit;" fill="rgb(0, 0, 0)" stroke="rgb(204, 204, 204)" stroke-width="1px"></line><line x1="41.171875" y1="78.66666666666666" x2="36.171875" y2="78.66666666666666" style="visibility: inherit;" fill="rgb(0, 0, 0)" stroke="rgb(204, 204, 204)" stroke-width="1px"></line><line x1="41.171875" y1="59.00000000000001" x2="36.171875" y2="59.00000000000001" style="visibility: inherit;" fill="rgb(0, 0, 0)" stroke="rgb(204, 204, 204)" stroke-width="1px"></line><line x1="41.171875" y1="39.33333333333333" x2="36.171875" y2="39.33333333333333" style="visibility: inherit;" fill="rgb(0, 0, 0)" stroke="rgb(204, 204, 204)" stroke-width="1px"></line><line x1="41.171875" y1="19.666666666666675" x2="36.171875" y2="19.666666666666675" style="visibility: inherit;" fill="rgb(0, 0, 0)" stroke="rgb(204, 204, 204)" stroke-width="1px"></line><line x1="41.171875" y1="0" x2="36.171875" y2="0" style="visibility: inherit;" fill="rgb(0, 0, 0)" stroke="rgb(204, 204, 204)" stroke-width="1px"></line></g><g transform="translate(31.171875, 0)"><text x="0" y="177" dx="0em" dy="0.3em" style="text-anchor: end; visibility: hidden; font-family: Roboto, sans-serif; font-size: 12px; font-weight: 200;" fill="rgb(33, 33, 33)" stroke="none" stroke-width="1px">20</text><text x="0" y="157.33333333333331" dx="0em" dy="0.3em" style="text-anchor: end; visibility: inherit; font-family: Roboto, sans-serif; font-size: 12px; font-weight: 200;" fill="rgb(33, 33, 33)" stroke="none" stroke-width="1px">30</text><text x="0" y="137.66666666666666" dx="0em" dy="0.3em" style="text-anchor: end; visibility: hidden; font-family: Roboto, sans-serif; font-size: 12px; font-weight: 200;" fill="rgb(33, 33, 33)" stroke="none" stroke-width="1px">40</text><text x="0" y="118.00000000000001" dx="0em" dy="0.3em" style="text-anchor: end; visibility: inherit; font-family: Roboto, sans-serif; font-size: 12px; font-weight: 200;" fill="rgb(33, 33, 33)" stroke="none" stroke-width="1px">50</text><text x="0" y="98.33333333333334" dx="0em" dy="0.3em" style="text-anchor: end; visibility: hidden; font-family: Roboto, sans-serif; font-size: 12px; font-weight: 200;" fill="rgb(33, 33, 33)" stroke="none" stroke-width="1px">60</text><text x="0" y="78.66666666666666" dx="0em" dy="0.3em" style="text-anchor: end; visibility: inherit; font-family: Roboto, sans-serif; font-size: 12px; font-weight: 200;" fill="rgb(33, 33, 33)" stroke="none" stroke-width="1px">70</text><text x="0" y="59.00000000000001" dx="0em" dy="0.3em" style="text-anchor: end; visibility: hidden; font-family: Roboto, sans-serif; font-size: 12px; font-weight: 200;" fill="rgb(33, 33, 33)" stroke="none" stroke-width="1px">80</text><text x="0" y="39.33333333333333" dx="0em" dy="0.3em" style="text-anchor: end; visibility: inherit; font-family: Roboto, sans-serif; font-size: 12px; font-weight: 200;" fill="rgb(33, 33, 33)" stroke="none" stroke-width="1px">90</text><text x="0" y="19.666666666666675" dx="0em" dy="0.3em" style="text-anchor: end; visibility: hidden; font-family: Roboto, sans-serif; font-size: 12px; font-weight: 200;" fill="rgb(33, 33, 33)" stroke="none" stroke-width="1px">100</text><text x="0" y="0" dx="0em" dy="0.3em" style="text-anchor: end; visibility: hidden; font-family: Roboto, sans-serif; font-size: 12px; font-weight: 200;" fill="rgb(33, 33, 33)" stroke="none" stroke-width="1px">110</text></g><line x1="41.171875" y1="0" x2="41.171875" y2="177" fill="rgb(0, 0, 0)" stroke="rgb(204, 204, 204)" stroke-width="1px"></line></g></g><g transform="translate(41, 0)" clip-path="url(#clip_0)"><clipPath id="clip_0"><rect width="288" height="177"></rect></clipPath><g><g><g><line x1="0" y1="0" x2="0" y2="177" fill="rgb(0, 0, 0)" stroke="rgb(66, 66, 66)" stroke-width="1px" opacity="0.25"></line><line x1="24.069010416666664" y1="0" x2="24.069010416666664" y2="177" fill="rgb(0, 0, 0)" stroke="rgb(66, 66, 66)" stroke-width="1px" opacity="0.25"></line><line x1="48.13802083333333" y1="0" x2="48.13802083333333" y2="177" fill="rgb(0, 0, 0)" stroke="rgb(66, 66, 66)" stroke-width="1px" opacity="0.25"></line><line x1="72.20703125" y1="0" x2="72.20703125" y2="177" fill="rgb(0, 0, 0)" stroke="rgb(66, 66, 66)" stroke-width="1px" opacity="0.25"></line><line x1="96.27604166666666" y1="0" x2="96.27604166666666" y2="177" fill="rgb(0, 0, 0)" stroke="rgb(66, 66, 66)" stroke-width="1px" opacity="0.25"></line><line x1="120.34505208333334" y1="0" x2="120.34505208333334" y2="177" fill="rgb(0, 0, 0)" stroke="rgb(66, 66, 66)" stroke-width="1px" opacity="0.25"></line><line x1="144.4140625" y1="0" x2="144.4140625" y2="177" fill="rgb(0, 0, 0)" stroke="rgb(66, 66, 66)" stroke-width="1px" opacity="0.25"></line><line x1="168.48307291666669" y1="0" x2="168.48307291666669" y2="177" fill="rgb(0, 0, 0)" stroke="rgb(66, 66, 66)" stroke-width="1px" opacity="0.25"></line><line x1="192.55208333333331" y1="0" x2="192.55208333333331" y2="177" fill="rgb(0, 0, 0)" stroke="rgb(66, 66, 66)" stroke-width="1px" opacity="0.25"></line><line x1="216.62109375" y1="0" x2="216.62109375" y2="177" fill="rgb(0, 0, 0)" stroke="rgb(66, 66, 66)" stroke-width="1px" opacity="0.25"></line><line x1="240.69010416666669" y1="0" x2="240.69010416666669" y2="177" fill="rgb(0, 0, 0)" stroke="rgb(66, 66, 66)" stroke-width="1px" opacity="0.25"></line><line x1="264.7591145833333" y1="0" x2="264.7591145833333" y2="177" fill="rgb(0, 0, 0)" stroke="rgb(66, 66, 66)" stroke-width="1px" opacity="0.25"></line><line x1="288.828125" y1="0" x2="288.828125" y2="177" fill="rgb(0, 0, 0)" stroke="rgb(66, 66, 66)" stroke-width="1px" opacity="0.25"></line></g><g><line x1="0" y1="177" x2="288.828125" y2="177" fill="rgb(0, 0, 0)" stroke="rgb(66, 66, 66)" stroke-width="1px" opacity="0.25"></line><line x1="0" y1="157.33333333333331" x2="288.828125" y2="157.33333333333331" fill="rgb(0, 0, 0)" stroke="rgb(66, 66, 66)" stroke-width="1px" opacity="0.25"></line><line x1="0" y1="137.66666666666666" x2="288.828125" y2="137.66666666666666" fill="rgb(0, 0, 0)" stroke="rgb(66, 66, 66)" stroke-width="1px" opacity="0.25"></line><line x1="0" y1="118.00000000000001" x2="288.828125" y2="118.00000000000001" fill="rgb(0, 0, 0)" stroke="rgb(66, 66, 66)" stroke-width="1px" opacity="0.25"></line><line x1="0" y1="98.33333333333334" x2="288.828125" y2="98.33333333333334" fill="rgb(0, 0, 0)" stroke="rgb(66, 66, 66)" stroke-width="1px" opacity="0.25"></line><line x1="0" y1="78.66666666666666" x2="288.828125" y2="78.66666666666666" fill="rgb(0, 0, 0)" stroke="rgb(66, 66, 66)" stroke-width="1px" opacity="0.25"></line><line x1="0" y1="59.00000000000001" x2="288.828125" y2="59.00000000000001" fill="rgb(0, 0, 0)" stroke="rgb(66, 66, 66)" stroke-width="1px" opacity="0.25"></line><line x1="0" y1="39.33333333333333" x2="288.828125" y2="39.33333333333333" fill="rgb(0, 0, 0)" stroke="rgb(66, 66, 66)" stroke-width="1px" opacity="0.25"></line><line x1="0" y1="19.666666666666675" x2="288.828125" y2="19.666666666666675" fill="rgb(0, 0, 0)" stroke="rgb(66, 66, 66)" stroke-width="1px" opacity="0.25"></line><line x1="0" y1="0" x2="288.828125" y2="0" fill="rgb(0, 0, 0)" stroke="rgb(66, 66, 66)" stroke-width="1px" opacity="0.25"></line></g></g></g><g><g><line x1="0" y1="216.33333333333334" x2="288.828125" y2="216.33333333333334" fill="rgb(0, 0, 0)" stroke="rgb(153, 153, 153)" stroke-width="1.5px"></line></g></g><g><g><line x1="24.069010416666664" y1="0" x2="24.069010416666664" y2="177" fill="rgb(0, 0, 0)" stroke="rgb(153, 153, 153)" stroke-width="1.5px"></line></g></g><g><g><g><g><g><path stroke="rgb(204, 51, 17)" stroke-width="2px" d="M24.069010416666664,124.55555305480958L26.475911458333332,91.77778027852378L28.8828125,62.2777727762858L31.289713541666668,45.88889389038086L33.696614583333336,29.499999999999993L36.103515625,19.666666666666675L38.510416666666664,19.666666666666675L40.917317708333336,19.666666666666675L43.32421875,19.666666666666675L45.731119791666664,19.666666666666675L48.13802083333333,19.666666666666675L50.544921875,19.666666666666675L52.951822916666664,19.666666666666675L55.358723958333336,19.666666666666675L57.765625,19.666666666666675L60.17252604166667,19.666666666666675L62.579427083333336,19.666666666666675L64.986328125,19.666666666666675L67.39322916666667,19.666666666666675L69.80013020833333,19.666666666666675L72.20703125,19.666666666666675L74.61393229166667,19.666666666666675L77.02083333333333,19.666666666666675L79.427734375,19.666666666666675L81.83463541666667,19.666666666666675L84.24153645833334,19.666666666666675L86.6484375,19.666666666666675L89.05533854166667,19.666666666666675L91.46223958333333,19.666666666666675L93.869140625,19.666666666666675L96.27604166666666,19.666666666666675L98.68294270833333,19.666666666666675L101.08984375,19.666666666666675L103.49674479166667,19.666666666666675L105.90364583333333,19.666666666666675L108.310546875,19.666666666666675L110.71744791666667,19.666666666666675L113.12434895833333,19.666666666666675L115.53125,19.666666666666675L117.93815104166667,19.666666666666675L120.34505208333334,19.666666666666675L122.751953125,19.666666666666675L125.15885416666667,19.666666666666675L127.56575520833333,19.666666666666675L129.97265625,19.666666666666675L132.37955729166666,19.666666666666675L134.78645833333334,19.666666666666675L137.193359375,19.666666666666675L139.60026041666666,19.666666666666675L142.00716145833331,19.666666666666675L144.4140625,19.666666666666675L146.82096354166666,19.666666666666675L149.22786458333334,19.666666666666675L151.634765625,19.666666666666675L154.04166666666666,19.666666666666675L156.44856770833331,19.666666666666675L158.85546875,19.666666666666675L161.26236979166666,19.666666666666675L163.66927083333334,19.666666666666675L166.076171875,19.666666666666675L168.48307291666669,19.666666666666675L170.88997395833334,19.666666666666675L173.296875,19.666666666666675L175.70377604166666,19.666666666666675L178.11067708333334,19.666666666666675L180.517578125,19.666666666666675L182.92447916666666,19.666666666666675L185.33138020833334,19.666666666666675L187.73828125,19.666666666666675L190.14518229166666,19.666666666666675L192.55208333333331,19.666666666666675L194.958984375,19.666666666666675L197.36588541666666,19.666666666666675L199.77278645833334,19.666666666666675L202.1796875,19.666666666666675L204.58658854166669,19.666666666666675L206.99348958333334,19.666666666666675L209.400390625,19.666666666666675L211.80729166666666,19.666666666666675L214.21419270833334,19.666666666666675L216.62109375,19.666666666666675L219.02799479166666,19.666666666666675L221.43489583333334,19.666666666666675L223.841796875,19.666666666666675L226.24869791666666,19.666666666666675L228.65559895833331,19.666666666666675L231.0625,19.666666666666675L233.46940104166666,19.666666666666675L235.87630208333334,19.666666666666675L238.283203125,19.666666666666675L240.69010416666669,19.666666666666675L243.09700520833334,19.666666666666675L245.50390625,19.666666666666675L247.91080729166666,19.666666666666675L250.31770833333334,19.666666666666675L252.724609375,19.666666666666675L255.13151041666666,19.666666666666675L257.53841145833337,19.666666666666675L259.9453125,19.666666666666675L262.3522135416667,19.666666666666675" style="fill: none;" fill="none"></path></g><g><path stroke="rgb(0, 119, 187)" stroke-width="2px" d="M24.069010416666664,144.22221972147622L26.475911458333332,144.22221972147622L28.8828125,157.33333333333331L31.289713541666668,137.66666666666666L33.696614583333336,124.55555305480958L36.103515625,55.72222722371419L38.510416666666664,32.77777277628581L40.917317708333336,22.94443944295247L43.32421875,29.499999999999993L45.731119791666664,26.2222272237142L48.13802083333333,36.05556055704752L50.544921875,26.2222272237142L52.951822916666664,29.499999999999993L55.358723958333336,36.05556055704752L57.765625,22.94443944295247L60.17252604166667,29.499999999999993L62.579427083333336,29.499999999999993L64.986328125,22.94443944295247L67.39322916666667,22.94443944295247L69.80013020833333,22.94443944295247L72.20703125,22.94443944295247L74.61393229166667,29.499999999999993L77.02083333333333,29.499999999999993L79.427734375,32.77777277628581L81.83463541666667,22.94443944295247L84.24153645833334,22.94443944295247L86.6484375,22.94443944295247L89.05533854166667,26.2222272237142L91.46223958333333,26.2222272237142L93.869140625,26.2222272237142L96.27604166666666,22.94443944295247L98.68294270833333,29.499999999999993L101.08984375,26.2222272237142L103.49674479166667,22.94443944295247L105.90364583333333,22.94443944295247L108.310546875,22.94443944295247L110.71744791666667,22.94443944295247L113.12434895833333,22.94443944295247L115.53125,22.94443944295247L117.93815104166667,22.94443944295247L120.34505208333334,22.94443944295247L122.751953125,22.94443944295247L125.15885416666667,22.94443944295247L127.56575520833333,22.94443944295247L129.97265625,19.666666666666675L132.37955729166666,19.666666666666675L134.78645833333334,19.666666666666675L137.193359375,19.666666666666675L139.60026041666666,19.666666666666675L142.00716145833331,19.666666666666675L144.4140625,19.666666666666675L146.82096354166666,19.666666666666675L149.22786458333334,19.666666666666675L151.634765625,19.666666666666675L154.04166666666666,19.666666666666675L156.44856770833331,19.666666666666675L158.85546875,19.666666666666675L161.26236979166666,19.666666666666675L163.66927083333334,19.666666666666675L166.076171875,19.666666666666675L168.48307291666669,19.666666666666675L170.88997395833334,19.666666666666675L173.296875,19.666666666666675L175.70377604166666,19.666666666666675L178.11067708333334,19.666666666666675L180.517578125,19.666666666666675L182.92447916666666,19.666666666666675L185.33138020833334,19.666666666666675L187.73828125,19.666666666666675L190.14518229166666,19.666666666666675L192.55208333333331,19.666666666666675L194.958984375,19.666666666666675L197.36588541666666,19.666666666666675L199.77278645833334,19.666666666666675L202.1796875,19.666666666666675L204.58658854166669,19.666666666666675L206.99348958333334,19.666666666666675L209.400390625,19.666666666666675L211.80729166666666,19.666666666666675L214.21419270833334,19.666666666666675L216.62109375,19.666666666666675L219.02799479166666,19.666666666666675L221.43489583333334,19.666666666666675L223.841796875,19.666666666666675L226.24869791666666,19.666666666666675L228.65559895833331,19.666666666666675L231.0625,19.666666666666675L233.46940104166666,19.666666666666675L235.87630208333334,19.666666666666675L238.283203125,19.666666666666675L240.69010416666669,19.666666666666675L243.09700520833334,19.666666666666675L245.50390625,19.666666666666675L247.91080729166666,19.666666666666675L250.31770833333334,19.666666666666675L252.724609375,19.666666666666675L255.13151041666666,19.666666666666675L257.53841145833337,19.666666666666675L259.9453125,19.666666666666675L262.3522135416667,19.666666666666675" style="fill: none;" fill="none"></path></g><g><path stroke="rgb(255, 112, 67)" stroke-width="2px" d="M24.069010416666664,163.8888901392619L26.475911458333332,163.8888901392619L28.8828125,163.8888901392619L31.289713541666668,163.8888901392619L33.696614583333336,163.8888901392619L36.103515625,163.8888901392619L38.510416666666664,163.8888901392619L40.917317708333336,163.8888901392619L43.32421875,163.8888901392619L45.731119791666664,163.8888901392619L48.13802083333333,163.8888901392619L50.544921875,163.8888901392619L52.951822916666664,163.8888901392619L55.358723958333336,163.8888901392619L57.765625,163.8888901392619L60.17252604166667,163.8888901392619L62.579427083333336,163.8888901392619L64.986328125,163.8888901392619L67.39322916666667,163.8888901392619L69.80013020833333,163.8888901392619L72.20703125,163.8888901392619L74.61393229166667,160.61110986073814L77.02083333333333,160.61110986073814L79.427734375,154.05555680592855L81.83463541666667,154.05555680592855L84.24153645833334,144.22221972147622L86.6484375,144.22221972147622L89.05533854166667,137.66666666666666L91.46223958333333,131.1111136118571L93.869140625,124.55555305480958L96.27604166666666,111.44444694519044L98.68294270833333,104.88888638814291L101.08984375,88.5L103.49674479166667,65.55556055704753L105.90364583333333,62.2777727762858L108.310546875,49.16666666666667L110.71744791666667,42.61110610961914L113.12434895833333,39.33333333333333L115.53125,36.05556055704752L117.93815104166667,36.05556055704752L120.34505208333334,36.05556055704752L122.751953125,32.77777277628581L125.15885416666667,32.77777277628581L127.56575520833333,32.77777277628581L129.97265625,29.499999999999993L132.37955729166666,29.499999999999993L134.78645833333334,29.499999999999993L137.193359375,29.499999999999993L139.60026041666666,29.499999999999993L142.00716145833331,29.499999999999993L144.4140625,26.2222272237142L146.82096354166666,26.2222272237142L149.22786458333334,22.94443944295247L151.634765625,22.94443944295247L154.04166666666666,22.94443944295247L156.44856770833331,22.94443944295247L158.85546875,22.94443944295247L161.26236979166666,22.94443944295247L163.66927083333334,22.94443944295247L166.076171875,22.94443944295247L168.48307291666669,22.94443944295247L170.88997395833334,22.94443944295247L173.296875,22.94443944295247L175.70377604166666,22.94443944295247L178.11067708333334,22.94443944295247L180.517578125,22.94443944295247L182.92447916666666,22.94443944295247L185.33138020833334,22.94443944295247L187.73828125,22.94443944295247L190.14518229166666,22.94443944295247L192.55208333333331,22.94443944295247L194.958984375,22.94443944295247L197.36588541666666,19.666666666666675L199.77278645833334,19.666666666666675L202.1796875,19.666666666666675L204.58658854166669,19.666666666666675L206.99348958333334,19.666666666666675L209.400390625,19.666666666666675L211.80729166666666,19.666666666666675L214.21419270833334,19.666666666666675L216.62109375,19.666666666666675L219.02799479166666,19.666666666666675L221.43489583333334,19.666666666666675L223.841796875,19.666666666666675L226.24869791666666,19.666666666666675L228.65559895833331,19.666666666666675L231.0625,19.666666666666675L233.46940104166666,19.666666666666675L235.87630208333334,19.666666666666675L238.283203125,19.666666666666675L240.69010416666669,19.666666666666675L243.09700520833334,19.666666666666675L245.50390625,19.666666666666675L247.91080729166666,19.666666666666675L250.31770833333334,19.666666666666675L252.724609375,19.666666666666675L255.13151041666666,19.666666666666675L257.53841145833337,19.666666666666675L259.9453125,19.666666666666675L262.3522135416667,19.666666666666675" style="fill: none;" fill="none"></path></g><g><path stroke="rgb(51, 187, 238)" stroke-width="2px" d="M24.069010416666664,160.61110986073814L26.475911458333332,81.94443944295247L28.8828125,32.77777277628581L31.289713541666668,26.2222272237142L33.696614583333336,22.94443944295247L36.103515625,22.94443944295247L38.510416666666664,22.94443944295247L40.917317708333336,26.2222272237142L43.32421875,26.2222272237142L45.731119791666664,26.2222272237142L48.13802083333333,26.2222272237142L50.544921875,26.2222272237142L52.951822916666664,19.666666666666675L55.358723958333336,19.666666666666675L57.765625,19.666666666666675L60.17252604166667,19.666666666666675L62.579427083333336,19.666666666666675L64.986328125,19.666666666666675L67.39322916666667,19.666666666666675L69.80013020833333,19.666666666666675L72.20703125,19.666666666666675L74.61393229166667,19.666666666666675L77.02083333333333,19.666666666666675L79.427734375,19.666666666666675L81.83463541666667,19.666666666666675L84.24153645833334,19.666666666666675L86.6484375,19.666666666666675L89.05533854166667,19.666666666666675L91.46223958333333,19.666666666666675L93.869140625,19.666666666666675L96.27604166666666,19.666666666666675L98.68294270833333,19.666666666666675L101.08984375,19.666666666666675L103.49674479166667,19.666666666666675L105.90364583333333,19.666666666666675L108.310546875,19.666666666666675L110.71744791666667,19.666666666666675L113.12434895833333,19.666666666666675L115.53125,19.666666666666675L117.93815104166667,19.666666666666675L120.34505208333334,19.666666666666675L122.751953125,19.666666666666675L125.15885416666667,19.666666666666675L127.56575520833333,19.666666666666675L129.97265625,19.666666666666675L132.37955729166666,19.666666666666675L134.78645833333334,19.666666666666675L137.193359375,19.666666666666675L139.60026041666666,19.666666666666675L142.00716145833331,19.666666666666675L144.4140625,19.666666666666675L146.82096354166666,19.666666666666675L149.22786458333334,19.666666666666675L151.634765625,19.666666666666675L154.04166666666666,19.666666666666675L156.44856770833331,19.666666666666675L158.85546875,19.666666666666675L161.26236979166666,19.666666666666675L163.66927083333334,19.666666666666675L166.076171875,19.666666666666675L168.48307291666669,19.666666666666675L170.88997395833334,19.666666666666675L173.296875,19.666666666666675L175.70377604166666,19.666666666666675L178.11067708333334,19.666666666666675L180.517578125,19.666666666666675L182.92447916666666,19.666666666666675L185.33138020833334,19.666666666666675L187.73828125,19.666666666666675L190.14518229166666,19.666666666666675L192.55208333333331,19.666666666666675L194.958984375,19.666666666666675L197.36588541666666,19.666666666666675L199.77278645833334,19.666666666666675L202.1796875,19.666666666666675L204.58658854166669,19.666666666666675L206.99348958333334,19.666666666666675L209.400390625,19.666666666666675L211.80729166666666,19.666666666666675L214.21419270833334,19.666666666666675L216.62109375,19.666666666666675L219.02799479166666,19.666666666666675L221.43489583333334,19.666666666666675L223.841796875,19.666666666666675L226.24869791666666,19.666666666666675L228.65559895833331,19.666666666666675L231.0625,19.666666666666675L233.46940104166666,19.666666666666675L235.87630208333334,19.666666666666675L238.283203125,19.666666666666675L240.69010416666669,19.666666666666675L243.09700520833334,19.666666666666675L245.50390625,19.666666666666675L247.91080729166666,19.666666666666675L250.31770833333334,19.666666666666675L252.724609375,19.666666666666675L255.13151041666666,19.666666666666675L257.53841145833337,19.666666666666675L259.9453125,19.666666666666675L262.3522135416667,19.666666666666675" style="fill: none;" fill="none"></path></g></g></g></g></g></g><g transform="translate(41, 177)" clip-path="url(#clip_1)"><clipPath id="clip_1"><rect width="288" height="23"></rect></clipPath><g><g><line x1="0" y1="0" x2="0" y2="5" style="visibility: inherit;" fill="rgb(0, 0, 0)" stroke="rgb(204, 204, 204)" stroke-width="1px"></line><line x1="24.069010416666664" y1="0" x2="24.069010416666664" y2="5" style="visibility: inherit;" fill="rgb(0, 0, 0)" stroke="rgb(204, 204, 204)" stroke-width="1px"></line><line x1="48.13802083333333" y1="0" x2="48.13802083333333" y2="5" style="visibility: inherit;" fill="rgb(0, 0, 0)" stroke="rgb(204, 204, 204)" stroke-width="1px"></line><line x1="72.20703125" y1="0" x2="72.20703125" y2="5" style="visibility: inherit;" fill="rgb(0, 0, 0)" stroke="rgb(204, 204, 204)" stroke-width="1px"></line><line x1="96.27604166666666" y1="0" x2="96.27604166666666" y2="5" style="visibility: inherit;" fill="rgb(0, 0, 0)" stroke="rgb(204, 204, 204)" stroke-width="1px"></line><line x1="120.34505208333334" y1="0" x2="120.34505208333334" y2="5" style="visibility: inherit;" fill="rgb(0, 0, 0)" stroke="rgb(204, 204, 204)" stroke-width="1px"></line><line x1="144.4140625" y1="0" x2="144.4140625" y2="5" style="visibility: inherit;" fill="rgb(0, 0, 0)" stroke="rgb(204, 204, 204)" stroke-width="1px"></line><line x1="168.48307291666669" y1="0" x2="168.48307291666669" y2="5" style="visibility: inherit;" fill="rgb(0, 0, 0)" stroke="rgb(204, 204, 204)" stroke-width="1px"></line><line x1="192.55208333333331" y1="0" x2="192.55208333333331" y2="5" style="visibility: inherit;" fill="rgb(0, 0, 0)" stroke="rgb(204, 204, 204)" stroke-width="1px"></line><line x1="216.62109375" y1="0" x2="216.62109375" y2="5" style="visibility: inherit;" fill="rgb(0, 0, 0)" stroke="rgb(204, 204, 204)" stroke-width="1px"></line><line x1="240.69010416666669" y1="0" x2="240.69010416666669" y2="5" style="visibility: inherit;" fill="rgb(0, 0, 0)" stroke="rgb(204, 204, 204)" stroke-width="1px"></line><line x1="264.7591145833333" y1="0" x2="264.7591145833333" y2="5" style="visibility: inherit;" fill="rgb(0, 0, 0)" stroke="rgb(204, 204, 204)" stroke-width="1px"></line><line x1="288.828125" y1="0" x2="288.828125" y2="5" style="visibility: inherit;" fill="rgb(0, 0, 0)" stroke="rgb(204, 204, 204)" stroke-width="1px"></line></g><g transform="translate(0, 8)"><text x="0" y="0" dx="0em" dy="0.95em" style="text-anchor: middle; visibility: hidden; font-family: Roboto, sans-serif; font-size: 12px; font-weight: 200;" fill="rgb(33, 33, 33)" stroke="none" stroke-width="1px">-10</text><text x="24.069010416666664" y="0" dx="0em" dy="0.95em" style="text-anchor: middle; visibility: inherit; font-family: Roboto, sans-serif; font-size: 12px; font-weight: 200;" fill="rgb(33, 33, 33)" stroke="none" stroke-width="1px">0</text><text x="48.13802083333333" y="0" dx="0em" dy="0.95em" style="text-anchor: middle; visibility: inherit; font-family: Roboto, sans-serif; font-size: 12px; font-weight: 200;" fill="rgb(33, 33, 33)" stroke="none" stroke-width="1px">10</text><text x="72.20703125" y="0" dx="0em" dy="0.95em" style="text-anchor: middle; visibility: inherit; font-family: Roboto, sans-serif; font-size: 12px; font-weight: 200;" fill="rgb(33, 33, 33)" stroke="none" stroke-width="1px">20</text><text x="96.27604166666666" y="0" dx="0em" dy="0.95em" style="text-anchor: middle; visibility: inherit; font-family: Roboto, sans-serif; font-size: 12px; font-weight: 200;" fill="rgb(33, 33, 33)" stroke="none" stroke-width="1px">30</text><text x="120.34505208333334" y="0" dx="0em" dy="0.95em" style="text-anchor: middle; visibility: inherit; font-family: Roboto, sans-serif; font-size: 12px; font-weight: 200;" fill="rgb(33, 33, 33)" stroke="none" stroke-width="1px">40</text><text x="144.4140625" y="0" dx="0em" dy="0.95em" style="text-anchor: middle; visibility: inherit; font-family: Roboto, sans-serif; font-size: 12px; font-weight: 200;" fill="rgb(33, 33, 33)" stroke="none" stroke-width="1px">50</text><text x="168.48307291666669" y="0" dx="0em" dy="0.95em" style="text-anchor: middle; visibility: inherit; font-family: Roboto, sans-serif; font-size: 12px; font-weight: 200;" fill="rgb(33, 33, 33)" stroke="none" stroke-width="1px">60</text><text x="192.55208333333331" y="0" dx="0em" dy="0.95em" style="text-anchor: middle; visibility: inherit; font-family: Roboto, sans-serif; font-size: 12px; font-weight: 200;" fill="rgb(33, 33, 33)" stroke="none" stroke-width="1px">70</text><text x="216.62109375" y="0" dx="0em" dy="0.95em" style="text-anchor: middle; visibility: inherit; font-family: Roboto, sans-serif; font-size: 12px; font-weight: 200;" fill="rgb(33, 33, 33)" stroke="none" stroke-width="1px">80</text><text x="240.69010416666669" y="0" dx="0em" dy="0.95em" style="text-anchor: middle; visibility: inherit; font-family: Roboto, sans-serif; font-size: 12px; font-weight: 200;" fill="rgb(33, 33, 33)" stroke="none" stroke-width="1px">90</text><text x="264.7591145833333" y="0" dx="0em" dy="0.95em" style="text-anchor: middle; visibility: inherit; font-family: Roboto, sans-serif; font-size: 12px; font-weight: 200;" fill="rgb(33, 33, 33)" stroke="none" stroke-width="1px">100</text><text x="288.828125" y="0" dx="0em" dy="0.95em" style="text-anchor: middle; visibility: hidden; font-family: Roboto, sans-serif; font-size: 12px; font-weight: 200;" fill="rgb(33, 33, 33)" stroke="none" stroke-width="1px">110</text></g><line x1="0" y1="0" x2="288.828125" y2="0" fill="rgb(0, 0, 0)" stroke="rgb(204, 204, 204)" stroke-width="1px"></line></g></g></g></g></svg>