<svg viewBox="0 0 330 200" xmlns="http://www.w3.org/2000/svg"><g><g><g><g><g><line x1="41.171875" y1="177" x2="36.171875" y2="177" style="visibility: inherit;" fill="rgb(0, 0, 0)" stroke="rgb(204, 204, 204)" stroke-width="1px"></line><line x1="41.171875" y1="157.33333333333331" x2="36.171875" y2="157.33333333333331" style="visibility: inherit;" fill="rgb(0, 0, 0)" stroke="rgb(204, 204, 204)" stroke-width="1px"></line><line x1="41.171875" y1="137.66666666666666" x2="36.171875" y2="137.66666666666666" style="visibility: inherit;" fill="rgb(0, 0, 0)" stroke="rgb(204, 204, 204)" stroke-width="1px"></line><line x1="41.171875" y1="118.00000000000001" x2="36.171875" y2="118.00000000000001" style="visibility: inherit;" fill="rgb(0, 0, 0)" stroke="rgb(204, 204, 204)" stroke-width="1px"></line><line x1="41.171875" y1="98.33333333333334" x2="36.171875" y2="98.33333333333334" style="visibility: inherit;" fill="rgb(0, 0, 0)" stroke="rgb(204, 204, 204)" stroke-width="1px"></line><line x1="41.171875" y1="78.66666666666666" x2="36.171875" y2="78.66666666666666" style="visibility: inherit;" fill="rgb(0, 0, 0)" stroke="rgb(204, 204, 204)" stroke-width="1px"></line><line x1="41.171875" y1="59.00000000000001" x2="36.171875" y2="59.00000000000001" style="visibility: inherit;" fill="rgb(0, 0, 0)" stroke="rgb(204, 204, 204)" stroke-width="1px"></line><line x1="41.171875" y1="39.33333333333333" x2="36.171875" y2="39.33333333333333" style="visibility: inherit;" fill="rgb(0, 0, 0)" stroke="rgb(204, 204, 204)" stroke-width="1px"></line><line x1="41.171875" y1="19.666666666666675" x2="36.171875" y2="19.666666666666675" style="visibility: inherit;" fill="rgb(0, 0, 0)" stroke="rgb(204, 204, 204)" stroke-width="1px"></line><line x1="41.171875" y1="0" x2="36.171875" y2="0" style="visibility: inherit;" fill="rgb(0, 0, 0)" stroke="rgb(204, 204, 204)" stroke-width="1px"></line></g><g transform="translate(31.171875, 0)"><text x="0" y="177" dx="0em" dy="0.3em" style="text-anchor: end; visibility: hidden; font-family: Roboto, sans-serif; font-size: 12px; font-weight: 200;" fill="rgb(33, 33, 33)" stroke="none" stroke-width="1px">20</text><text x="0" y="157.33333333333331" dx="0em" dy="0.3em" style="text-anchor: end; visibility: inherit; font-family: Roboto, sans-serif; font-size: 12px; font-weight: 200;" fill="rgb(33, 33, 33)" stroke="none" stroke-width="1px">30</text><text x="0" y="137.66666666666666" dx="0em" dy="0.3em" style="text-anchor: end; visibility: hidden; font-family: Roboto, sans-serif; font-size: 12px; font-weight: 200;" fill="rgb(33, 33, 33)" stroke="none" stroke-width="1px">40</text><text x="0" y="118.00000000000001" dx="0em" dy="0.3em" style="text-anchor: end; visibility: inherit; font-family: Roboto, sans-serif; font-size: 12px; font-weight: 200;" fill="rgb(33, 33, 33)" stroke="none" stroke-width="1px">50</text><text x="0" y="98.33333333333334" dx="0em" dy="0.3em" style="text-anchor: end; visibility: hidden; font-family: Roboto, sans-serif; font-size: 12px; font-weight: 200;" fill="rgb(33, 33, 33)" stroke="none" stroke-width="1px">60</text><text x="0" y="78.66666666666666" dx="0em" dy="0.3em" style="text-anchor: end; visibility: inherit; font-family: Roboto, sans-serif; font-size: 12px; font-weight: 200;" fill="rgb(33, 33, 33)" stroke="none" stroke-width="1px">70</text><text x="0" y="59.00000000000001" dx="0em" dy="0.3em" style="text-anchor: end; visibility: hidden; font-family: Roboto, sans-serif; font-size: 12px; font-weight: 200;" fill="rgb(33, 33, 33)" stroke="none" stroke-width="1px">80</text><text x="0" y="39.33333333333333" dx="0em" dy="0.3em" style="text-anchor: end; visibility: inherit; font-family: Roboto, sans-serif; font-size: 12px; font-weight: 200;" fill="rgb(33, 33, 33)" stroke="none" stroke-width="1px">90</text><text x="0" y="19.666666666666675" dx="0em" dy="0.3em" style="text-anchor: end; visibility: hidden; font-family: Roboto, sans-serif; font-size: 12px; font-weight: 200;" fill="rgb(33, 33, 33)" stroke="none" stroke-width="1px">100</text><text x="0" y="0" dx="0em" dy="0.3em" style="text-anchor: end; visibility: hidden; font-family: Roboto, sans-serif; font-size: 12px; font-weight: 200;" fill="rgb(33, 33, 33)" stroke="none" stroke-width="1px">110</text></g><line x1="41.171875" y1="0" x2="41.171875" y2="177" fill="rgb(0, 0, 0)" stroke="rgb(204, 204, 204)" stroke-width="1px"></line></g></g><g transform="translate(41, 0)" clip-path="url(#clip_0)"><clipPath id="clip_0"><rect width="288" height="177"></rect></clipPath><g><g><g><line x1="0" y1="0" x2="0" y2="177" fill="rgb(0, 0, 0)" stroke="rgb(66, 66, 66)" stroke-width="1px" opacity="0.25"></line><line x1="24.069010416666664" y1="0" x2="24.069010416666664" y2="177" fill="rgb(0, 0, 0)" stroke="rgb(66, 66, 66)" stroke-width="1px" opacity="0.25"></line><line x1="48.13802083333333" y1="0" x2="48.13802083333333" y2="177" fill="rgb(0, 0, 0)" stroke="rgb(66, 66, 66)" stroke-width="1px" opacity="0.25"></line><line x1="72.20703125" y1="0" x2="72.20703125" y2="177" fill="rgb(0, 0, 0)" stroke="rgb(66, 66, 66)" stroke-width="1px" opacity="0.25"></line><line x1="96.27604166666666" y1="0" x2="96.27604166666666" y2="177" fill="rgb(0, 0, 0)" stroke="rgb(66, 66, 66)" stroke-width="1px" opacity="0.25"></line><line x1="120.34505208333334" y1="0" x2="120.34505208333334" y2="177" fill="rgb(0, 0, 0)" stroke="rgb(66, 66, 66)" stroke-width="1px" opacity="0.25"></line><line x1="144.4140625" y1="0" x2="144.4140625" y2="177" fill="rgb(0, 0, 0)" stroke="rgb(66, 66, 66)" stroke-width="1px" opacity="0.25"></line><line x1="168.48307291666669" y1="0" x2="168.48307291666669" y2="177" fill="rgb(0, 0, 0)" stroke="rgb(66, 66, 66)" stroke-width="1px" opacity="0.25"></line><line x1="192.55208333333331" y1="0" x2="192.55208333333331" y2="177" fill="rgb(0, 0, 0)" stroke="rgb(66, 66, 66)" stroke-width="1px" opacity="0.25"></line><line x1="216.62109375" y1="0" x2="216.62109375" y2="177" fill="rgb(0, 0, 0)" stroke="rgb(66, 66, 66)" stroke-width="1px" opacity="0.25"></line><line x1="240.69010416666669" y1="0" x2="240.69010416666669" y2="177" fill="rgb(0, 0, 0)" stroke="rgb(66, 66, 66)" stroke-width="1px" opacity="0.25"></line><line x1="264.7591145833333" y1="0" x2="264.7591145833333" y2="177" fill="rgb(0, 0, 0)" stroke="rgb(66, 66, 66)" stroke-width="1px" opacity="0.25"></line><line x1="288.828125" y1="0" x2="288.828125" y2="177" fill="rgb(0, 0, 0)" stroke="rgb(66, 66, 66)" stroke-width="1px" opacity="0.25"></line></g><g><line x1="0" y1="177" x2="288.828125" y2="177" fill="rgb(0, 0, 0)" stroke="rgb(66, 66, 66)" stroke-width="1px" opacity="0.25"></line><line x1="0" y1="157.33333333333331" x2="288.828125" y2="157.33333333333331" fill="rgb(0, 0, 0)" stroke="rgb(66, 66, 66)" stroke-width="1px" opacity="0.25"></line><line x1="0" y1="137.66666666666666" x2="288.828125" y2="137.66666666666666" fill="rgb(0, 0, 0)" stroke="rgb(66, 66, 66)" stroke-width="1px" opacity="0.25"></line><line x1="0" y1="118.00000000000001" x2="288.828125" y2="118.00000000000001" fill="rgb(0, 0, 0)" stroke="rgb(66, 66, 66)" stroke-width="1px" opacity="0.25"></line><line x1="0" y1="98.33333333333334" x2="288.828125" y2="98.33333333333334" fill="rgb(0, 0, 0)" stroke="rgb(66, 66, 66)" stroke-width="1px" opacity="0.25"></line><line x1="0" y1="78.66666666666666" x2="288.828125" y2="78.66666666666666" fill="rgb(0, 0, 0)" stroke="rgb(66, 66, 66)" stroke-width="1px" opacity="0.25"></line><line x1="0" y1="59.00000000000001" x2="288.828125" y2="59.00000000000001" fill="rgb(0, 0, 0)" stroke="rgb(66, 66, 66)" stroke-width="1px" opacity="0.25"></line><line x1="0" y1="39.33333333333333" x2="288.828125" y2="39.33333333333333" fill="rgb(0, 0, 0)" stroke="rgb(66, 66, 66)" stroke-width="1px" opacity="0.25"></line><line x1="0" y1="19.666666666666675" x2="288.828125" y2="19.666666666666675" fill="rgb(0, 0, 0)" stroke="rgb(66, 66, 66)" stroke-width="1px" opacity="0.25"></line><line x1="0" y1="0" x2="288.828125" y2="0" fill="rgb(0, 0, 0)" stroke="rgb(66, 66, 66)" stroke-width="1px" opacity="0.25"></line></g></g></g><g><g><line x1="0" y1="216.33333333333334" x2="288.828125" y2="216.33333333333334" fill="rgb(0, 0, 0)" stroke="rgb(153, 153, 153)" stroke-width="1.5px"></line></g></g><g><g><line x1="24.069010416666664" y1="0" x2="24.069010416666664" y2="177" fill="rgb(0, 0, 0)" stroke="rgb(153, 153, 153)" stroke-width="1.5px"></line></g></g><g><g><g><g><g><path stroke="rgb(0, 119, 187)" stroke-width="2px" d="M24.069010416666664,163.8888901392619L26.475911458333332,163.8888901392619L28.8828125,163.8888901392619L31.289713541666668,163.8888901392619L33.696614583333336,163.8888901392619L36.103515625,163.8888901392619L38.510416666666664,160.61110986073814L40.917317708333336,157.33333333333331L43.32421875,147.5L45.731119791666664,140.94444694519044L48.13802083333333,137.66666666666666L50.544921875,134.3888863881429L52.951822916666664,127.83333333333333L55.358723958333336,124.55555305480958L57.765625,111.44444694519044L60.17252604166667,111.44444694519044L62.579427083333336,101.6111136118571L64.986328125,101.6111136118571L67.39322916666667,101.6111136118571L69.80013020833333,95.05555305480956L72.20703125,95.05555305480956L74.61393229166667,95.05555305480956L77.02083333333333,95.05555305480956L79.427734375,91.77778027852378L81.83463541666667,91.77778027852378L84.24153645833334,91.77778027852378L86.6484375,91.77778027852378L89.05533854166667,91.77778027852378L91.46223958333333,91.77778027852378L93.869140625,91.77778027852378L96.27604166666666,91.77778027852378L98.68294270833333,91.77778027852378L101.08984375,88.5L103.49674479166667,85.22222722371419L105.90364583333333,81.94443944295247L108.310546875,81.94443944295247L110.71744791666667,81.94443944295247L113.12434895833333,81.94443944295247L115.53125,78.66666666666666L117.93815104166667,78.66666666666666L120.34505208333334,75.38889389038086L122.751953125,72.11110610961914L125.15885416666667,68.83333333333333L127.56575520833333,65.55556055704753L129.97265625,62.2777727762858L132.37955729166666,55.72222722371419L134.78645833333334,55.72222722371419L137.193359375,55.72222722371419L139.60026041666666,55.72222722371419L142.00716145833331,52.44443944295248L144.4140625,52.44443944295248L146.82096354166666,52.44443944295248L149.22786458333334,52.44443944295248L151.634765625,52.44443944295248L154.04166666666666,52.44443944295248L156.44856770833331,52.44443944295248L158.85546875,52.44443944295248L161.26236979166666,49.16666666666667L163.66927083333334,49.16666666666667L166.076171875,45.88889389038086L168.48307291666669,45.88889389038086L170.88997395833334,42.61110610961914L173.296875,42.61110610961914L175.70377604166666,42.61110610961914L178.11067708333334,36.05556055704752L180.517578125,36.05556055704752L182.92447916666666,32.77777277628581L185.33138020833334,32.77777277628581L187.73828125,32.77777277628581L190.14518229166666,32.77777277628581L192.55208333333331,32.77777277628581L194.958984375,32.77777277628581L197.36588541666666,32.77777277628581L199.77278645833334,32.77777277628581L202.1796875,32.77777277628581L204.58658854166669,32.77777277628581L206.99348958333334,29.499999999999993L209.400390625,29.499999999999993L211.80729166666666,29.499999999999993L214.21419270833334,29.499999999999993L216.62109375,29.499999999999993L219.02799479166666,29.499999999999993L221.43489583333334,26.2222272237142L223.841796875,26.2222272237142L226.24869791666666,26.2222272237142L228.65559895833331,26.2222272237142L231.0625,26.2222272237142L233.46940104166666,26.2222272237142L235.87630208333334,26.2222272237142L238.283203125,22.94443944295247L240.69010416666669,22.94443944295247L243.09700520833334,22.94443944295247L245.50390625,22.94443944295247L247.91080729166666,19.666666666666675L250.31770833333334,19.666666666666675L252.724609375,19.666666666666675L255.13151041666666,19.666666666666675L257.53841145833337,19.666666666666675L259.9453125,19.666666666666675L262.3522135416667,19.666666666666675" style="fill: none;" fill="none"></path></g><g><path stroke="rgb(255, 112, 67)" stroke-width="2px" d="M24.069010416666664,144.22221972147622L26.475911458333332,144.22221972147622L28.8828125,144.22221972147622L31.289713541666668,144.22221972147622L33.696614583333336,144.22221972147622L36.103515625,144.22221972147622L38.510416666666664,144.22221972147622L40.917317708333336,144.22221972147622L43.32421875,144.22221972147622L45.731119791666664,144.22221972147622L48.13802083333333,144.22221972147622L50.544921875,144.22221972147622L52.951822916666664,144.22221972147622L55.358723958333336,144.22221972147622L57.765625,144.22221972147622L60.17252604166667,144.22221972147622L62.579427083333336,144.22221972147622L64.986328125,144.22221972147622L67.39322916666667,144.22221972147622L69.80013020833333,144.22221972147622L72.20703125,144.22221972147622L74.61393229166667,144.22221972147622L77.02083333333333,144.22221972147622L79.427734375,144.22221972147622L81.83463541666667,144.22221972147622L84.24153645833334,144.22221972147622L86.6484375,144.22221972147622L89.05533854166667,144.22221972147622L91.46223958333333,144.22221972147622L93.869140625,144.22221972147622L96.27604166666666,144.22221972147622L98.68294270833333,144.22221972147622L101.08984375,144.22221972147622L103.49674479166667,144.22221972147622L105.90364583333333,144.22221972147622L108.310546875,144.22221972147622L110.71744791666667,144.22221972147622L113.12434895833333,144.22221972147622L115.53125,144.22221972147622L117.93815104166667,144.22221972147622L120.34505208333334,144.22221972147622L122.751953125,144.22221972147622L125.15885416666667,144.22221972147622L127.56575520833333,144.22221972147622L129.97265625,144.22221972147622L132.37955729166666,144.22221972147622L134.78645833333334,144.22221972147622L137.193359375,144.22221972147622L139.60026041666666,144.22221972147622L142.00716145833331,144.22221972147622L144.4140625,144.22221972147622L146.82096354166666,144.22221972147622L149.22786458333334,144.22221972147622L151.634765625,144.22221972147622L154.04166666666666,144.22221972147622L156.44856770833331,144.22221972147622L158.85546875,144.22221972147622L161.26236979166666,144.22221972147622L163.66927083333334,144.22221972147622L166.076171875,147.5L168.48307291666669,147.5L170.88997395833334,147.5L173.296875,147.5L175.70377604166666,147.5L178.11067708333334,144.22221972147622L180.517578125,140.94444694519044L182.92447916666666,140.94444694519044L185.33138020833334,131.1111136118571L187.73828125,114.72221972147624L190.14518229166666,111.44444694519044L192.55208333333331,104.88888638814291L194.958984375,101.6111136118571L197.36588541666666,104.88888638814291L199.77278645833334,101.6111136118571L202.1796875,104.88888638814291L204.58658854166669,104.88888638814291L206.99348958333334,104.88888638814291L209.400390625,108.16666666666667L211.80729166666666,111.44444694519044L214.21419270833334,111.44444694519044L216.62109375,111.44444694519044L219.02799479166666,111.44444694519044L221.43489583333334,111.44444694519044L223.841796875,121.27778027852376L226.24869791666666,127.83333333333333L228.65559895833331,127.83333333333333L231.0625,134.3888863881429L233.46940104166666,137.66666666666666L235.87630208333334,137.66666666666666L238.283203125,140.94444694519044L240.69010416666669,144.22221972147622L243.09700520833334,144.22221972147622L245.50390625,147.5L247.91080729166666,154.05555680592855L250.31770833333334,154.05555680592855L252.724609375,154.05555680592855L255.13151041666666,154.05555680592855L257.53841145833337,157.33333333333331L259.9453125,157.33333333333331L262.3522135416667,157.33333333333331" style="fill: none;" fill="none"></path></g><g><path stroke="rgb(187, 187, 187)" stroke-width="2px" d="M24.069010416666664,163.8888901392619L26.475911458333332,163.8888901392619L28.8828125,163.8888901392619L31.289713541666668,163.8888901392619L33.696614583333336,163.8888901392619L36.103515625,163.8888901392619L38.510416666666664,163.8888901392619L40.917317708333336,163.8888901392619L43.32421875,163.8888901392619L45.731119791666664,163.8888901392619L48.13802083333333,163.8888901392619L50.544921875,163.8888901392619L52.951822916666664,163.8888901392619L55.358723958333336,163.8888901392619L57.765625,163.8888901392619L60.17252604166667,163.8888901392619L62.579427083333336,163.8888901392619L64.986328125,163.8888901392619L67.39322916666667,163.8888901392619L69.80013020833333,163.8888901392619L72.20703125,163.8888901392619L74.61393229166667,163.8888901392619L77.02083333333333,163.8888901392619L79.427734375,163.8888901392619L81.83463541666667,163.8888901392619L84.24153645833334,163.8888901392619L86.6484375,163.8888901392619L89.05533854166667,163.8888901392619L91.46223958333333,163.8888901392619L93.869140625,163.8888901392619L96.27604166666666,163.8888901392619L98.68294270833333,163.8888901392619L101.08984375,163.8888901392619L103.49674479166667,163.8888901392619L105.90364583333333,163.8888901392619L108.310546875,163.8888901392619L110.71744791666667,163.8888901392619L113.12434895833333,163.8888901392619L115.53125,163.8888901392619L117.93815104166667,163.8888901392619L120.34505208333334,163.8888901392619L122.751953125,163.8888901392619L125.15885416666667,163.8888901392619L127.56575520833333,163.8888901392619L129.97265625,163.8888901392619L132.37955729166666,163.8888901392619L134.78645833333334,163.8888901392619L137.193359375,163.8888901392619L139.60026041666666,163.8888901392619L142.00716145833331,163.8888901392619L144.4140625,163.8888901392619L146.82096354166666,163.8888901392619L149.22786458333334,163.8888901392619L151.634765625,163.8888901392619L154.04166666666666,163.8888901392619L156.44856770833331,163.8888901392619L158.85546875,163.8888901392619L161.26236979166666,163.8888901392619L163.66927083333334,163.8888901392619L166.076171875,163.8888901392619L168.48307291666669,163.8888901392619L170.88997395833334,163.8888901392619L173.296875,163.8888901392619L175.70377604166666,163.8888901392619L178.11067708333334,163.8888901392619L180.517578125,163.8888901392619L182.92447916666666,163.8888901392619L185.33138020833334,163.8888901392619L187.73828125,163.8888901392619L190.14518229166666,163.8888901392619L192.55208333333331,163.8888901392619L194.958984375,163.8888901392619L197.36588541666666,163.8888901392619L199.77278645833334,163.8888901392619L202.1796875,163.8888901392619L204.58658854166669,163.8888901392619L206.99348958333334,163.8888901392619L209.400390625,163.8888901392619L211.80729166666666,163.8888901392619L214.21419270833334,163.8888901392619L216.62109375,163.8888901392619L219.02799479166666,163.8888901392619L221.43489583333334,163.8888901392619L223.841796875,163.8888901392619L226.24869791666666,163.8888901392619L228.65559895833331,163.8888901392619L231.0625,163.8888901392619L233.46940104166666,163.8888901392619L235.87630208333334,163.8888901392619L238.283203125,163.8888901392619L240.69010416666669,163.8888901392619L243.09700520833334,163.8888901392619L245.50390625,163.8888901392619L247.91080729166666,163.8888901392619L250.31770833333334,163.8888901392619L252.724609375,163.8888901392619L255.13151041666666,163.8888901392619L257.53841145833337,163.8888901392619L259.9453125,163.8888901392619L262.3522135416667,163.8888901392619" style="fill: none;" fill="none"></path></g><g><path stroke="rgb(204, 51, 17)" stroke-width="2px" d="M24.069010416666664,163.8888901392619L26.475911458333332,163.8888901392619L28.8828125,163.8888901392619L31.289713541666668,163.8888901392619L33.696614583333336,163.8888901392619L36.103515625,163.8888901392619L38.510416666666664,163.8888901392619L40.917317708333336,160.61110986073814L43.32421875,160.61110986073814L45.731119791666664,160.61110986073814L48.13802083333333,160.61110986073814L50.544921875,157.33333333333331L52.951822916666664,147.5L55.358723958333336,144.22221972147622L57.765625,134.3888863881429L60.17252604166667,131.1111136118571L62.579427083333336,124.55555305480958L64.986328125,118.00000000000001L67.39322916666667,118.00000000000001L69.80013020833333,104.88888638814291L72.20703125,98.33333333333334L74.61393229166667,85.22222722371419L77.02083333333333,85.22222722371419L79.427734375,85.22222722371419L81.83463541666667,85.22222722371419L84.24153645833334,78.66666666666666L86.6484375,65.55556055704753L89.05533854166667,55.72222722371419L91.46223958333333,52.44443944295248L93.869140625,49.16666666666667L96.27604166666666,49.16666666666667L98.68294270833333,49.16666666666667L101.08984375,45.88889389038086L103.49674479166667,45.88889389038086L105.90364583333333,42.61110610961914L108.310546875,36.05556055704752L110.71744791666667,36.05556055704752L113.12434895833333,36.05556055704752L115.53125,36.05556055704752L117.93815104166667,36.05556055704752L120.34505208333334,36.05556055704752L122.751953125,36.05556055704752L125.15885416666667,32.77777277628581L127.56575520833333,29.499999999999993L129.97265625,29.499999999999993L132.37955729166666,29.499999999999993L134.78645833333334,29.499999999999993L137.193359375,29.499999999999993L139.60026041666666,26.2222272237142L142.00716145833331,26.2222272237142L144.4140625,26.2222272237142L146.82096354166666,26.2222272237142L149.22786458333334,26.2222272237142L151.634765625,26.2222272237142L154.04166666666666,26.2222272237142L156.44856770833331,26.2222272237142L158.85546875,22.94443944295247L161.26236979166666,22.94443944295247L163.66927083333334,22.94443944295247L166.076171875,22.94443944295247L168.48307291666669,22.94443944295247L170.88997395833334,22.94443944295247L173.296875,22.94443944295247L175.70377604166666,22.94443944295247L178.11067708333334,22.94443944295247L180.517578125,22.94443944295247L182.92447916666666,22.94443944295247L185.33138020833334,22.94443944295247L187.73828125,22.94443944295247L190.14518229166666,22.94443944295247L192.55208333333331,22.94443944295247L194.958984375,22.94443944295247L197.36588541666666,22.94443944295247L199.77278645833334,22.94443944295247L202.1796875,22.94443944295247L204.58658854166669,22.94443944295247L206.99348958333334,22.94443944295247L209.400390625,22.94443944295247L211.80729166666666,22.94443944295247L214.21419270833334,22.94443944295247L216.62109375,22.94443944295247L219.02799479166666,22.94443944295247L221.43489583333334,22.94443944295247L223.841796875,22.94443944295247L226.24869791666666,22.94443944295247L228.65559895833331,22.94443944295247L231.0625,22.94443944295247L233.46940104166666,22.94443944295247L235.87630208333334,22.94443944295247L238.283203125,22.94443944295247L240.69010416666669,22.94443944295247L243.09700520833334,22.94443944295247L245.50390625,22.94443944295247L247.91080729166666,22.94443944295247L250.31770833333334,22.94443944295247L252.724609375,22.94443944295247L255.13151041666666,22.94443944295247L257.53841145833337,22.94443944295247L259.9453125,22.94443944295247L262.3522135416667,22.94443944295247" style="fill: none;" fill="none"></path></g></g></g></g></g></g><g transform="translate(41, 177)" clip-path="url(#clip_1)"><clipPath id="clip_1"><rect width="288" height="23"></rect></clipPath><g><g><line x1="0" y1="0" x2="0" y2="5" style="visibility: inherit;" fill="rgb(0, 0, 0)" stroke="rgb(204, 204, 204)" stroke-width="1px"></line><line x1="24.069010416666664" y1="0" x2="24.069010416666664" y2="5" style="visibility: inherit;" fill="rgb(0, 0, 0)" stroke="rgb(204, 204, 204)" stroke-width="1px"></line><line x1="48.13802083333333" y1="0" x2="48.13802083333333" y2="5" style="visibility: inherit;" fill="rgb(0, 0, 0)" stroke="rgb(204, 204, 204)" stroke-width="1px"></line><line x1="72.20703125" y1="0" x2="72.20703125" y2="5" style="visibility: inherit;" fill="rgb(0, 0, 0)" stroke="rgb(204, 204, 204)" stroke-width="1px"></line><line x1="96.27604166666666" y1="0" x2="96.27604166666666" y2="5" style="visibility: inherit;" fill="rgb(0, 0, 0)" stroke="rgb(204, 204, 204)" stroke-width="1px"></line><line x1="120.34505208333334" y1="0" x2="120.34505208333334" y2="5" style="visibility: inherit;" fill="rgb(0, 0, 0)" stroke="rgb(204, 204, 204)" stroke-width="1px"></line><line x1="144.4140625" y1="0" x2="144.4140625" y2="5" style="visibility: inherit;" fill="rgb(0, 0, 0)" stroke="rgb(204, 204, 204)" stroke-width="1px"></line><line x1="168.48307291666669" y1="0" x2="168.48307291666669" y2="5" style="visibility: inherit;" fill="rgb(0, 0, 0)" stroke="rgb(204, 204, 204)" stroke-width="1px"></line><line x1="192.55208333333331" y1="0" x2="192.55208333333331" y2="5" style="visibility: inherit;" fill="rgb(0, 0, 0)" stroke="rgb(204, 204, 204)" stroke-width="1px"></line><line x1="216.62109375" y1="0" x2="216.62109375" y2="5" style="visibility: inherit;" fill="rgb(0, 0, 0)" stroke="rgb(204, 204, 204)" stroke-width="1px"></line><line x1="240.69010416666669" y1="0" x2="240.69010416666669" y2="5" style="visibility: inherit;" fill="rgb(0, 0, 0)" stroke="rgb(204, 204, 204)" stroke-width="1px"></line><line x1="264.7591145833333" y1="0" x2="264.7591145833333" y2="5" style="visibility: inherit;" fill="rgb(0, 0, 0)" stroke="rgb(204, 204, 204)" stroke-width="1px"></line><line x1="288.828125" y1="0" x2="288.828125" y2="5" style="visibility: inherit;" fill="rgb(0, 0, 0)" stroke="rgb(204, 204, 204)" stroke-width="1px"></line></g><g transform="translate(0, 8)"><text x="0" y="0" dx="0em" dy="0.95em" style="text-anchor: middle; visibility: hidden; font-family: Roboto, sans-serif; font-size: 12px; font-weight: 200;" fill="rgb(33, 33, 33)" stroke="none" stroke-width="1px">-10</text><text x="24.069010416666664" y="0" dx="0em" dy="0.95em" style="text-anchor: middle; visibility: inherit; font-family: Roboto, sans-serif; font-size: 12px; font-weight: 200;" fill="rgb(33, 33, 33)" stroke="none" stroke-width="1px">0</text><text x="48.13802083333333" y="0" dx="0em" dy="0.95em" style="text-anchor: middle; visibility: inherit; font-family: Roboto, sans-serif; font-size: 12px; font-weight: 200;" fill="rgb(33, 33, 33)" stroke="none" stroke-width="1px">10</text><text x="72.20703125" y="0" dx="0em" dy="0.95em" style="text-anchor: middle; visibility: inherit; font-family: Roboto, sans-serif; font-size: 12px; font-weight: 200;" fill="rgb(33, 33, 33)" stroke="none" stroke-width="1px">20</text><text x="96.27604166666666" y="0" dx="0em" dy="0.95em" style="text-anchor: middle; visibility: inherit; font-family: Roboto, sans-serif; font-size: 12px; font-weight: 200;" fill="rgb(33, 33, 33)" stroke="none" stroke-width="1px">30</text><text x="120.34505208333334" y="0" dx="0em" dy="0.95em" style="text-anchor: middle; visibility: inherit; font-family: Roboto, sans-serif; font-size: 12px; font-weight: 200;" fill="rgb(33, 33, 33)" stroke="none" stroke-width="1px">40</text><text x="144.4140625" y="0" dx="0em" dy="0.95em" style="text-anchor: middle; visibility: inherit; font-family: Roboto, sans-serif; font-size: 12px; font-weight: 200;" fill="rgb(33, 33, 33)" stroke="none" stroke-width="1px">50</text><text x="168.48307291666669" y="0" dx="0em" dy="0.95em" style="text-anchor: middle; visibility: inherit; font-family: Roboto, sans-serif; font-size: 12px; font-weight: 200;" fill="rgb(33, 33, 33)" stroke="none" stroke-width="1px">60</text><text x="192.55208333333331" y="0" dx="0em" dy="0.95em" style="text-anchor: middle; visibility: inherit; font-family: Roboto, sans-serif; font-size: 12px; font-weight: 200;" fill="rgb(33, 33, 33)" stroke="none" stroke-width="1px">70</text><text x="216.62109375" y="0" dx="0em" dy="0.95em" style="text-anchor: middle; visibility: inherit; font-family: Roboto, sans-serif; font-size: 12px; font-weight: 200;" fill="rgb(33, 33, 33)" stroke="none" stroke-width="1px">80</text><text x="240.69010416666669" y="0" dx="0em" dy="0.95em" style="text-anchor: middle; visibility: inherit; font-family: Roboto, sans-serif; font-size: 12px; font-weight: 200;" fill="rgb(33, 33, 33)" stroke="none" stroke-width="1px">90</text><text x="264.7591145833333" y="0" dx="0em" dy="0.95em" style="text-anchor: middle; visibility: inherit; font-family: Roboto, sans-serif; font-size: 12px; font-weight: 200;" fill="rgb(33, 33, 33)" stroke="none" stroke-width="1px">100</text><text x="288.828125" y="0" dx="0em" dy="0.95em" style="text-anchor: middle; visibility: hidden; font-family: Roboto, sans-serif; font-size: 12px; font-weight: 200;" fill="rgb(33, 33, 33)" stroke="none" stroke-width="1px">110</text></g><line x1="0" y1="0" x2="288.828125" y2="0" fill="rgb(0, 0, 0)" stroke="rgb(204, 204, 204)" stroke-width="1px"></line></g></g></g></g></svg>