<svg viewBox="0 0 1578.2000732421875 400" xmlns="http://www.w3.org/2000/svg"><g><g><g><g><g><line x1="40" y1="377" x2="35" y2="377" style="visibility: inherit;" fill="rgb(0, 0, 0)" stroke="rgb(204, 204, 204)" stroke-width="1px"></line><line x1="40" y1="342.7272727272727" x2="35" y2="342.7272727272727" style="visibility: inherit;" fill="rgb(0, 0, 0)" stroke="rgb(204, 204, 204)" stroke-width="1px"></line><line x1="40" y1="308.45454545454544" x2="35" y2="308.45454545454544" style="visibility: inherit;" fill="rgb(0, 0, 0)" stroke="rgb(204, 204, 204)" stroke-width="1px"></line><line x1="40" y1="274.1818181818182" x2="35" y2="274.1818181818182" style="visibility: inherit;" fill="rgb(0, 0, 0)" stroke="rgb(204, 204, 204)" stroke-width="1px"></line><line x1="40" y1="239.9090909090909" x2="35" y2="239.9090909090909" style="visibility: inherit;" fill="rgb(0, 0, 0)" stroke="rgb(204, 204, 204)" stroke-width="1px"></line><line x1="40" y1="205.63636363636363" x2="35" y2="205.63636363636363" style="visibility: inherit;" fill="rgb(0, 0, 0)" stroke="rgb(204, 204, 204)" stroke-width="1px"></line><line x1="40" y1="171.36363636363637" x2="35" y2="171.36363636363637" style="visibility: inherit;" fill="rgb(0, 0, 0)" stroke="rgb(204, 204, 204)" stroke-width="1px"></line><line x1="40" y1="137.09090909090915" x2="35" y2="137.09090909090915" style="visibility: inherit;" fill="rgb(0, 0, 0)" stroke="rgb(204, 204, 204)" stroke-width="1px"></line><line x1="40" y1="102.81818181818181" x2="35" y2="102.81818181818181" style="visibility: inherit;" fill="rgb(0, 0, 0)" stroke="rgb(204, 204, 204)" stroke-width="1px"></line><line x1="40" y1="68.54545454545458" x2="35" y2="68.54545454545458" style="visibility: inherit;" fill="rgb(0, 0, 0)" stroke="rgb(204, 204, 204)" stroke-width="1px"></line><line x1="40" y1="34.27272727272729" x2="35" y2="34.27272727272729" style="visibility: inherit;" fill="rgb(0, 0, 0)" stroke="rgb(204, 204, 204)" stroke-width="1px"></line><line x1="40" y1="0" x2="35" y2="0" style="visibility: inherit;" fill="rgb(0, 0, 0)" stroke="rgb(204, 204, 204)" stroke-width="1px"></line></g><g transform="translate(30, 0)"><text x="0" y="377" dx="0em" dy="0.3em" style="text-anchor: end; visibility: hidden; font-family: Roboto, sans-serif; font-size: 12px; font-weight: 200;" fill="rgb(33, 33, 33)" stroke="none" stroke-width="1px">0</text><text x="0" y="342.7272727272727" dx="0em" dy="0.3em" style="text-anchor: end; visibility: inherit; font-family: Roboto, sans-serif; font-size: 12px; font-weight: 200;" fill="rgb(33, 33, 33)" stroke="none" stroke-width="1px">0.1</text><text x="0" y="308.45454545454544" dx="0em" dy="0.3em" style="text-anchor: end; visibility: inherit; font-family: Roboto, sans-serif; font-size: 12px; font-weight: 200;" fill="rgb(33, 33, 33)" stroke="none" stroke-width="1px">0.2</text><text x="0" y="274.1818181818182" dx="0em" dy="0.3em" style="text-anchor: end; visibility: inherit; font-family: Roboto, sans-serif; font-size: 12px; font-weight: 200;" fill="rgb(33, 33, 33)" stroke="none" stroke-width="1px">0.3</text><text x="0" y="239.9090909090909" dx="0em" dy="0.3em" style="text-anchor: end; visibility: inherit; font-family: Roboto, sans-serif; font-size: 12px; font-weight: 200;" fill="rgb(33, 33, 33)" stroke="none" stroke-width="1px">0.4</text><text x="0" y="205.63636363636363" dx="0em" dy="0.3em" style="text-anchor: end; visibility: inherit; font-family: Roboto, sans-serif; font-size: 12px; font-weight: 200;" fill="rgb(33, 33, 33)" stroke="none" stroke-width="1px">0.5</text><text x="0" y="171.36363636363637" dx="0em" dy="0.3em" style="text-anchor: end; visibility: inherit; font-family: Roboto, sans-serif; font-size: 12px; font-weight: 200;" fill="rgb(33, 33, 33)" stroke="none" stroke-width="1px">0.6</text><text x="0" y="137.09090909090915" dx="0em" dy="0.3em" style="text-anchor: end; visibility: inherit; font-family: Roboto, sans-serif; font-size: 12px; font-weight: 200;" fill="rgb(33, 33, 33)" stroke="none" stroke-width="1px">0.7</text><text x="0" y="102.81818181818181" dx="0em" dy="0.3em" style="text-anchor: end; visibility: inherit; font-family: Roboto, sans-serif; font-size: 12px; font-weight: 200;" fill="rgb(33, 33, 33)" stroke="none" stroke-width="1px">0.8</text><text x="0" y="68.54545454545458" dx="0em" dy="0.3em" style="text-anchor: end; visibility: inherit; font-family: Roboto, sans-serif; font-size: 12px; font-weight: 200;" fill="rgb(33, 33, 33)" stroke="none" stroke-width="1px">0.9</text><text x="0" y="34.27272727272729" dx="0em" dy="0.3em" style="text-anchor: end; visibility: inherit; font-family: Roboto, sans-serif; font-size: 12px; font-weight: 200;" fill="rgb(33, 33, 33)" stroke="none" stroke-width="1px">1</text><text x="0" y="0" dx="0em" dy="0.3em" style="text-anchor: end; visibility: hidden; font-family: Roboto, sans-serif; font-size: 12px; font-weight: 200;" fill="rgb(33, 33, 33)" stroke="none" stroke-width="1px">1.1</text></g><line x1="40" y1="0" x2="40" y2="377" fill="rgb(0, 0, 0)" stroke="rgb(204, 204, 204)" stroke-width="1px"></line></g></g><g transform="translate(40, 0)" clip-path="url(#clip_0)"><clipPath id="clip_0"><rect width="1538" height="377"></rect></clipPath><g><g><g><line x1="0" y1="0" x2="0" y2="377" fill="rgb(0, 0, 0)" stroke="rgb(66, 66, 66)" stroke-width="1px" opacity="0.25"></line><line x1="128.18333333333334" y1="0" x2="128.18333333333334" y2="377" fill="rgb(0, 0, 0)" stroke="rgb(66, 66, 66)" stroke-width="1px" opacity="0.25"></line><line x1="256.3666666666667" y1="0" x2="256.3666666666667" y2="377" fill="rgb(0, 0, 0)" stroke="rgb(66, 66, 66)" stroke-width="1px" opacity="0.25"></line><line x1="384.55" y1="0" x2="384.55" y2="377" fill="rgb(0, 0, 0)" stroke="rgb(66, 66, 66)" stroke-width="1px" opacity="0.25"></line><line x1="512.7333333333333" y1="0" x2="512.7333333333333" y2="377" fill="rgb(0, 0, 0)" stroke="rgb(66, 66, 66)" stroke-width="1px" opacity="0.25"></line><line x1="640.9166666666667" y1="0" x2="640.9166666666667" y2="377" fill="rgb(0, 0, 0)" stroke="rgb(66, 66, 66)" stroke-width="1px" opacity="0.25"></line><line x1="769.1" y1="0" x2="769.1" y2="377" fill="rgb(0, 0, 0)" stroke="rgb(66, 66, 66)" stroke-width="1px" opacity="0.25"></line><line x1="897.2833333333334" y1="0" x2="897.2833333333334" y2="377" fill="rgb(0, 0, 0)" stroke="rgb(66, 66, 66)" stroke-width="1px" opacity="0.25"></line><line x1="1025.4666666666667" y1="0" x2="1025.4666666666667" y2="377" fill="rgb(0, 0, 0)" stroke="rgb(66, 66, 66)" stroke-width="1px" opacity="0.25"></line><line x1="1153.65" y1="0" x2="1153.65" y2="377" fill="rgb(0, 0, 0)" stroke="rgb(66, 66, 66)" stroke-width="1px" opacity="0.25"></line><line x1="1281.8333333333335" y1="0" x2="1281.8333333333335" y2="377" fill="rgb(0, 0, 0)" stroke="rgb(66, 66, 66)" stroke-width="1px" opacity="0.25"></line><line x1="1410.0166666666667" y1="0" x2="1410.0166666666667" y2="377" fill="rgb(0, 0, 0)" stroke="rgb(66, 66, 66)" stroke-width="1px" opacity="0.25"></line><line x1="1538.2" y1="0" x2="1538.2" y2="377" fill="rgb(0, 0, 0)" stroke="rgb(66, 66, 66)" stroke-width="1px" opacity="0.25"></line></g><g><line x1="0" y1="377" x2="1538.2" y2="377" fill="rgb(0, 0, 0)" stroke="rgb(66, 66, 66)" stroke-width="1px" opacity="0.25"></line><line x1="0" y1="342.7272727272727" x2="1538.2" y2="342.7272727272727" fill="rgb(0, 0, 0)" stroke="rgb(66, 66, 66)" stroke-width="1px" opacity="0.25"></line><line x1="0" y1="308.45454545454544" x2="1538.2" y2="308.45454545454544" fill="rgb(0, 0, 0)" stroke="rgb(66, 66, 66)" stroke-width="1px" opacity="0.25"></line><line x1="0" y1="274.1818181818182" x2="1538.2" y2="274.1818181818182" fill="rgb(0, 0, 0)" stroke="rgb(66, 66, 66)" stroke-width="1px" opacity="0.25"></line><line x1="0" y1="239.9090909090909" x2="1538.2" y2="239.9090909090909" fill="rgb(0, 0, 0)" stroke="rgb(66, 66, 66)" stroke-width="1px" opacity="0.25"></line><line x1="0" y1="205.63636363636363" x2="1538.2" y2="205.63636363636363" fill="rgb(0, 0, 0)" stroke="rgb(66, 66, 66)" stroke-width="1px" opacity="0.25"></line><line x1="0" y1="171.36363636363637" x2="1538.2" y2="171.36363636363637" fill="rgb(0, 0, 0)" stroke="rgb(66, 66, 66)" stroke-width="1px" opacity="0.25"></line><line x1="0" y1="137.09090909090915" x2="1538.2" y2="137.09090909090915" fill="rgb(0, 0, 0)" stroke="rgb(66, 66, 66)" stroke-width="1px" opacity="0.25"></line><line x1="0" y1="102.81818181818181" x2="1538.2" y2="102.81818181818181" fill="rgb(0, 0, 0)" stroke="rgb(66, 66, 66)" stroke-width="1px" opacity="0.25"></line><line x1="0" y1="68.54545454545458" x2="1538.2" y2="68.54545454545458" fill="rgb(0, 0, 0)" stroke="rgb(66, 66, 66)" stroke-width="1px" opacity="0.25"></line><line x1="0" y1="34.27272727272729" x2="1538.2" y2="34.27272727272729" fill="rgb(0, 0, 0)" stroke="rgb(66, 66, 66)" stroke-width="1px" opacity="0.25"></line><line x1="0" y1="0" x2="1538.2" y2="0" fill="rgb(0, 0, 0)" stroke="rgb(66, 66, 66)" stroke-width="1px" opacity="0.25"></line></g></g></g><g><g><line x1="0" y1="377" x2="1538.2" y2="377" fill="rgb(0, 0, 0)" stroke="rgb(153, 153, 153)" stroke-width="1.5px"></line></g></g><g><g><line x1="128.18333333333334" y1="0" x2="128.18333333333334" y2="377" fill="rgb(0, 0, 0)" stroke="rgb(153, 153, 153)" stroke-width="1.5px"></line></g></g><g><g><g><g><g><path stroke="rgb(204, 51, 17)" stroke-width="2px" d="M128.18333333333334,253.5093766559254L141.00166666666667,201.82827284119347L153.82000000000002,115.63246229561896L166.63833333333335,81.53197690573606L179.45666666666668,51.48913243683906L192.275,34.27272727272729L205.09333333333333,34.27272727272729L217.91166666666666,34.27272727272729L230.73,34.27272727272729L243.54833333333332,34.27272727272729L256.3666666666667,34.27272727272729L269.185,34.27272727272729L282.00333333333333,34.27272727272729L294.8216666666667,34.27272727272729L307.64000000000004,34.27272727272729L320.45833333333337,34.27272727272729L333.2766666666667,34.27272727272729L346.095,34.27272727272729L358.91333333333336,34.27272727272729L371.7316666666667,34.27272727272729L384.55,34.27272727272729L397.3683333333334,34.27272727272729L410.18666666666667,34.27272727272729L423.00500000000005,34.27272727272729L435.8233333333333,34.27272727272729L448.6416666666667,34.27272727272729L461.46,34.27272727272729L474.27833333333336,34.27272727272729L487.09666666666664,34.27272727272729L499.915,34.27272727272729L512.7333333333333,34.27272727272729L525.5516666666667,34.27272727272729L538.37,34.27272727272729L551.1883333333334,34.27272727272729L564.0066666666667,34.27272727272729L576.825,34.27272727272729L589.6433333333334,34.27272727272729L602.4616666666667,34.27272727272729L615.2800000000001,34.27272727272729L628.0983333333334,34.27272727272729L640.9166666666667,34.27272727272729L653.735,34.27272727272729L666.5533333333334,34.27272727272729L679.3716666666667,34.27272727272729L692.19,34.27272727272729L705.0083333333333,34.27272727272729L717.8266666666667,34.27272727272729L730.645,34.27272727272729L743.4633333333334,34.27272727272729L756.2816666666666,34.27272727272729L769.1,34.27272727272729L781.9183333333333,34.27272727272729L794.7366666666668,34.27272727272729L807.5550000000001,34.27272727272729L820.3733333333333,34.27272727272729L833.1916666666666,34.27272727272729L846.0100000000001,34.27272727272729L858.8283333333334,34.27272727272729L871.6466666666666,34.27272727272729L884.4649999999999,34.27272727272729L897.2833333333334,34.27272727272729L910.1016666666667,34.27272727272729L922.92,34.27272727272729L935.7383333333332,34.27272727272729L948.5566666666667,34.27272727272729L961.375,34.27272727272729L974.1933333333333,34.27272727272729L987.0116666666668,34.27272727272729L999.83,34.27272727272729L1012.6483333333333,34.27272727272729L1025.4666666666667,34.27272727272729L1038.285,34.27272727272729L1051.1033333333335,34.27272727272729L1063.9216666666666,34.27272727272729L1076.74,34.27272727272729L1089.5583333333334,34.27272727272729L1102.3766666666668,34.27272727272729L1115.195,34.27272727272729L1128.0133333333333,34.27272727272729L1140.8316666666667,34.27272727272729L1153.65,34.27272727272729L1166.4683333333332,34.27272727272729L1179.2866666666669,34.27272727272729L1192.105,34.27272727272729L1204.9233333333334,34.27272727272729L1217.7416666666666,34.27272727272729L1230.5600000000002,34.27272727272729L1243.3783333333333,34.27272727272729L1256.1966666666667,34.27272727272729L1269.0149999999999,34.27272727272729L1281.8333333333335,34.27272727272729L1294.6516666666666,34.27272727272729L1307.47,34.27272727272729L1320.2883333333332,34.27272727272729L1333.1066666666668,34.27272727272729L1345.925,34.27272727272729L1358.7433333333333,34.27272727272729L1371.5616666666667,34.27272727272729L1384.38,34.27272727272729L1397.1983333333333,34.27272727272729" style="fill: none;" fill="none"></path></g><g><path stroke="rgb(0, 119, 187)" stroke-width="2px" d="M128.18333333333334,309.5691036067226L141.00166666666667,305.190475363623L153.82000000000002,304.03225615349686L166.63833333333335,267.34782588481903L179.45666666666668,245.68232561783358L192.275,99.3150381716815L205.09333333333333,57.31162142753605L217.91166666666666,39.98780511726034L230.73,51.33876091783701L243.54833333333332,45.63297787579627L256.3666666666667,62.73437262665144L269.185,45.63297787579627L282.00333333333333,51.33876091783701L294.8216666666667,62.80693337050356L307.64000000000004,39.98780511726034L320.45833333333337,51.48913243683906L333.2766666666667,51.48913243683906L346.095,39.98780511726034L358.91333333333336,39.98780511726034L371.7316666666667,39.98780511726034L384.55,39.98780511726034L397.3683333333334,51.48913243683906L410.18666666666667,51.48913243683906L423.00500000000005,57.31162142753605L435.8233333333333,39.98780511726034L448.6416666666667,39.98780511726034L461.46,39.98780511726034L474.27833333333336,45.72061458500953L487.09666666666664,45.72061458500953L499.915,45.72061458500953L512.7333333333333,39.98780511726034L525.5516666666667,51.48913243683906L538.37,45.72061458500953L551.1883333333334,39.98780511726034L564.0066666666667,39.98780511726034L576.825,39.98780511726034L589.6433333333334,39.98780511726034L602.4616666666667,39.98780511726034L615.2800000000001,39.98780511726034L628.0983333333334,39.98780511726034L640.9166666666667,39.98780511726034L653.735,39.98780511726034L666.5533333333334,39.98780511726034L679.3716666666667,39.98780511726034L692.19,34.27272727272729L705.0083333333333,34.27272727272729L717.8266666666667,34.27272727272729L730.645,34.27272727272729L743.4633333333334,34.27272727272729L756.2816666666666,34.27272727272729L769.1,34.27272727272729L781.9183333333333,34.27272727272729L794.7366666666668,34.27272727272729L807.5550000000001,34.27272727272729L820.3733333333333,34.27272727272729L833.1916666666666,34.27272727272729L846.0100000000001,34.27272727272729L858.8283333333334,34.27272727272729L871.6466666666666,34.27272727272729L884.4649999999999,34.27272727272729L897.2833333333334,34.27272727272729L910.1016666666667,34.27272727272729L922.92,34.27272727272729L935.7383333333332,34.27272727272729L948.5566666666667,34.27272727272729L961.375,34.27272727272729L974.1933333333333,34.27272727272729L987.0116666666668,34.27272727272729L999.83,34.27272727272729L1012.6483333333333,34.27272727272729L1025.4666666666667,34.27272727272729L1038.285,34.27272727272729L1051.1033333333335,34.27272727272729L1063.9216666666666,34.27272727272729L1076.74,34.27272727272729L1089.5583333333334,34.27272727272729L1102.3766666666668,34.27272727272729L1115.195,34.27272727272729L1128.0133333333333,34.27272727272729L1140.8316666666667,34.27272727272729L1153.65,34.27272727272729L1166.4683333333332,34.27272727272729L1179.2866666666669,34.27272727272729L1192.105,34.27272727272729L1204.9233333333334,34.27272727272729L1217.7416666666666,34.27272727272729L1230.5600000000002,34.27272727272729L1243.3783333333333,34.27272727272729L1256.1966666666667,34.27272727272729L1269.0149999999999,34.27272727272729L1281.8333333333335,34.27272727272729L1294.6516666666666,34.27272727272729L1307.47,34.27272727272729L1320.2883333333332,34.27272727272729L1333.1066666666668,34.27272727272729L1345.925,34.27272727272729L1358.7433333333333,34.27272727272729L1371.5616666666667,34.27272727272729L1384.38,34.27272727272729L1397.1983333333333,34.27272727272729" style="fill: none;" fill="none"></path></g><g><path stroke="rgb(255, 112, 67)" stroke-width="2px" d="M128.18333333333334,338.5183405104009L141.00166666666667,338.5183405104009L153.82000000000002,338.5183405104009L166.63833333333335,338.5183405104009L179.45666666666668,338.5183405104009L192.275,338.5183405104009L205.09333333333333,338.5183405104009L217.91166666666666,338.5183405104009L230.73,338.5183405104009L243.54833333333332,338.5183405104009L256.3666666666667,338.5183405104009L269.185,338.5183405104009L282.00333333333333,338.5183405104009L294.8216666666667,338.5183405104009L307.64000000000004,338.5183405104009L320.45833333333337,338.5183405104009L333.2766666666667,338.5183405104009L346.095,338.5183405104009L358.91333333333336,337.4782955213027L371.7316666666667,333.9910848005252L384.55,330.5776809399778L397.3683333333334,320.9859605783766L410.18666666666667,318.79076315327126L423.00500000000005,304.3662715202028L435.8233333333333,303.6122281144966L448.6416666666667,285.91071086580104L461.46,285.91071086580104L474.27833333333336,274.75493570349437L487.09666666666664,252.2638322656805L499.915,236.60874963890421L512.7333333333333,207.14936341480777L525.5516666666667,190.72202569788152L538.37,157.60875047336927L551.1883333333334,114.87566109137103L564.0066666666667,108.50814939628951L576.825,85.48384093154561L589.6433333333334,74.06267362291163L602.4616666666667,68.39574489810254L615.2800000000001,62.67529445344752L628.0983333333334,62.67529445344752L640.9166666666667,62.67529445344752L653.735,56.99723239378498L666.5533333333334,56.99723239378498L679.3716666666667,56.99723239378498L692.19,51.301622564142406L705.0083333333333,51.301622564142406L717.8266666666667,51.301622564142406L730.645,51.301622564142406L743.4633333333334,51.301622564142406L756.2816666666666,51.301622564142406L769.1,45.63297787579627L781.9183333333333,45.63297787579627L794.7366666666668,39.964721322059674L807.5550000000001,39.964721322059674L820.3733333333333,39.964721322059674L833.1916666666666,39.964721322059674L846.0100000000001,39.964721322059674L858.8283333333334,39.964721322059674L871.6466666666666,39.964721322059674L884.4649999999999,39.964721322059674L897.2833333333334,39.964721322059674L910.1016666666667,39.964721322059674L922.92,39.964721322059674L935.7383333333332,39.964721322059674L948.5566666666667,39.964721322059674L961.375,39.964721322059674L974.1933333333333,39.964721322059674L987.0116666666668,39.964721322059674L999.83,39.964721322059674L1012.6483333333333,39.964721322059674L1025.4666666666667,39.964721322059674L1038.285,39.964721322059674L1051.1033333333335,34.27272727272729L1063.9216666666666,34.27272727272729L1076.74,34.27272727272729L1089.5583333333334,34.27272727272729L1102.3766666666668,34.27272727272729L1115.195,34.27272727272729L1128.0133333333333,34.27272727272729L1140.8316666666667,34.27272727272729L1153.65,34.27272727272729L1166.4683333333332,34.27272727272729L1179.2866666666669,34.27272727272729L1192.105,34.27272727272729L1204.9233333333334,34.27272727272729L1217.7416666666666,34.27272727272729L1230.5600000000002,34.27272727272729L1243.3783333333333,34.27272727272729L1256.1966666666667,34.27272727272729L1269.0149999999999,34.27272727272729L1281.8333333333335,34.27272727272729L1294.6516666666666,34.27272727272729L1307.47,34.27272727272729L1320.2883333333332,34.27272727272729L1333.1066666666668,34.27272727272729L1345.925,34.27272727272729L1358.7433333333333,34.27272727272729L1371.5616666666667,34.27272727272729L1384.38,34.27272727272729L1397.1983333333333,34.27272727272729" style="fill: none;" fill="none"></path></g><g><path stroke="rgb(51, 187, 238)" stroke-width="2px" d="M128.18333333333334,327.07771795446223L141.00166666666667,145.88810667124662L153.82000000000002,56.99427031386984L166.63833333333335,45.818955638191945L179.45666666666668,39.98780511726034L192.275,39.98780511726034L205.09333333333333,39.98780511726034L217.91166666666666,45.607177138328595L230.73,45.607177138328595L243.54833333333332,45.607177138328595L256.3666666666667,45.607177138328595L269.185,45.607177138328595L282.00333333333333,34.27272727272729L294.8216666666667,34.27272727272729L307.64000000000004,34.27272727272729L320.45833333333337,34.27272727272729L333.2766666666667,34.27272727272729L346.095,34.27272727272729L358.91333333333336,34.27272727272729L371.7316666666667,34.27272727272729L384.55,34.27272727272729L397.3683333333334,34.27272727272729L410.18666666666667,34.27272727272729L423.00500000000005,34.27272727272729L435.8233333333333,34.27272727272729L448.6416666666667,34.27272727272729L461.46,34.27272727272729L474.27833333333336,34.27272727272729L487.09666666666664,34.27272727272729L499.915,34.27272727272729L512.7333333333333,34.27272727272729L525.5516666666667,34.27272727272729L538.37,34.27272727272729L551.1883333333334,34.27272727272729L564.0066666666667,34.27272727272729L576.825,34.27272727272729L589.6433333333334,34.27272727272729L602.4616666666667,34.27272727272729L615.2800000000001,34.27272727272729L628.0983333333334,34.27272727272729L640.9166666666667,34.27272727272729L653.735,34.27272727272729L666.5533333333334,34.27272727272729L679.3716666666667,34.27272727272729L692.19,34.27272727272729L705.0083333333333,34.27272727272729L717.8266666666667,34.27272727272729L730.645,34.27272727272729L743.4633333333334,34.27272727272729L756.2816666666666,34.27272727272729L769.1,34.27272727272729L781.9183333333333,34.27272727272729L794.7366666666668,34.27272727272729L807.5550000000001,34.27272727272729L820.3733333333333,34.27272727272729L833.1916666666666,34.27272727272729L846.0100000000001,34.27272727272729L858.8283333333334,34.27272727272729L871.6466666666666,34.27272727272729L884.4649999999999,34.27272727272729L897.2833333333334,34.27272727272729L910.1016666666667,34.27272727272729L922.92,34.27272727272729L935.7383333333332,34.27272727272729L948.5566666666667,34.27272727272729L961.375,34.27272727272729L974.1933333333333,34.27272727272729L987.0116666666668,34.27272727272729L999.83,34.27272727272729L1012.6483333333333,34.27272727272729L1025.4666666666667,34.27272727272729L1038.285,34.27272727272729L1051.1033333333335,34.27272727272729L1063.9216666666666,34.27272727272729L1076.74,34.27272727272729L1089.5583333333334,34.27272727272729L1102.3766666666668,34.27272727272729L1115.195,34.27272727272729L1128.0133333333333,34.27272727272729L1140.8316666666667,34.27272727272729L1153.65,34.27272727272729L1166.4683333333332,34.27272727272729L1179.2866666666669,34.27272727272729L1192.105,34.27272727272729L1204.9233333333334,34.27272727272729L1217.7416666666666,34.27272727272729L1230.5600000000002,34.27272727272729L1243.3783333333333,34.27272727272729L1256.1966666666667,34.27272727272729L1269.0149999999999,34.27272727272729L1281.8333333333335,34.27272727272729L1294.6516666666666,34.27272727272729L1307.47,34.27272727272729L1320.2883333333332,34.27272727272729L1333.1066666666668,34.27272727272729L1345.925,34.27272727272729L1358.7433333333333,34.27272727272729L1371.5616666666667,34.27272727272729L1384.38,34.27272727272729L1397.1983333333333,34.27272727272729" style="fill: none;" fill="none"></path></g></g></g></g></g></g><g transform="translate(40, 377)" clip-path="url(#clip_1)"><clipPath id="clip_1"><rect width="1538" height="23"></rect></clipPath><g><g><line x1="0" y1="0" x2="0" y2="5" style="visibility: inherit;" fill="rgb(0, 0, 0)" stroke="rgb(204, 204, 204)" stroke-width="1px"></line><line x1="128.18333333333334" y1="0" x2="128.18333333333334" y2="5" style="visibility: inherit;" fill="rgb(0, 0, 0)" stroke="rgb(204, 204, 204)" stroke-width="1px"></line><line x1="256.3666666666667" y1="0" x2="256.3666666666667" y2="5" style="visibility: inherit;" fill="rgb(0, 0, 0)" stroke="rgb(204, 204, 204)" stroke-width="1px"></line><line x1="384.55" y1="0" x2="384.55" y2="5" style="visibility: inherit;" fill="rgb(0, 0, 0)" stroke="rgb(204, 204, 204)" stroke-width="1px"></line><line x1="512.7333333333333" y1="0" x2="512.7333333333333" y2="5" style="visibility: inherit;" fill="rgb(0, 0, 0)" stroke="rgb(204, 204, 204)" stroke-width="1px"></line><line x1="640.9166666666667" y1="0" x2="640.9166666666667" y2="5" style="visibility: inherit;" fill="rgb(0, 0, 0)" stroke="rgb(204, 204, 204)" stroke-width="1px"></line><line x1="769.1" y1="0" x2="769.1" y2="5" style="visibility: inherit;" fill="rgb(0, 0, 0)" stroke="rgb(204, 204, 204)" stroke-width="1px"></line><line x1="897.2833333333334" y1="0" x2="897.2833333333334" y2="5" style="visibility: inherit;" fill="rgb(0, 0, 0)" stroke="rgb(204, 204, 204)" stroke-width="1px"></line><line x1="1025.4666666666667" y1="0" x2="1025.4666666666667" y2="5" style="visibility: inherit;" fill="rgb(0, 0, 0)" stroke="rgb(204, 204, 204)" stroke-width="1px"></line><line x1="1153.65" y1="0" x2="1153.65" y2="5" style="visibility: inherit;" fill="rgb(0, 0, 0)" stroke="rgb(204, 204, 204)" stroke-width="1px"></line><line x1="1281.8333333333335" y1="0" x2="1281.8333333333335" y2="5" style="visibility: inherit;" fill="rgb(0, 0, 0)" stroke="rgb(204, 204, 204)" stroke-width="1px"></line><line x1="1410.0166666666667" y1="0" x2="1410.0166666666667" y2="5" style="visibility: inherit;" fill="rgb(0, 0, 0)" stroke="rgb(204, 204, 204)" stroke-width="1px"></line><line x1="1538.2" y1="0" x2="1538.2" y2="5" style="visibility: inherit;" fill="rgb(0, 0, 0)" stroke="rgb(204, 204, 204)" stroke-width="1px"></line></g><g transform="translate(0, 8)"><text x="0" y="0" dx="0em" dy="0.95em" style="text-anchor: middle; visibility: hidden; font-family: Roboto, sans-serif; font-size: 12px; font-weight: 200;" fill="rgb(33, 33, 33)" stroke="none" stroke-width="1px">-10</text><text x="128.18333333333334" y="0" dx="0em" dy="0.95em" style="text-anchor: middle; visibility: inherit; font-family: Roboto, sans-serif; font-size: 12px; font-weight: 200;" fill="rgb(33, 33, 33)" stroke="none" stroke-width="1px">0</text><text x="256.3666666666667" y="0" dx="0em" dy="0.95em" style="text-anchor: middle; visibility: inherit; font-family: Roboto, sans-serif; font-size: 12px; font-weight: 200;" fill="rgb(33, 33, 33)" stroke="none" stroke-width="1px">10</text><text x="384.55" y="0" dx="0em" dy="0.95em" style="text-anchor: middle; visibility: inherit; font-family: Roboto, sans-serif; font-size: 12px; font-weight: 200;" fill="rgb(33, 33, 33)" stroke="none" stroke-width="1px">20</text><text x="512.7333333333333" y="0" dx="0em" dy="0.95em" style="text-anchor: middle; visibility: inherit; font-family: Roboto, sans-serif; font-size: 12px; font-weight: 200;" fill="rgb(33, 33, 33)" stroke="none" stroke-width="1px">30</text><text x="640.9166666666667" y="0" dx="0em" dy="0.95em" style="text-anchor: middle; visibility: inherit; font-family: Roboto, sans-serif; font-size: 12px; font-weight: 200;" fill="rgb(33, 33, 33)" stroke="none" stroke-width="1px">40</text><text x="769.1" y="0" dx="0em" dy="0.95em" style="text-anchor: middle; visibility: inherit; font-family: Roboto, sans-serif; font-size: 12px; font-weight: 200;" fill="rgb(33, 33, 33)" stroke="none" stroke-width="1px">50</text><text x="897.2833333333334" y="0" dx="0em" dy="0.95em" style="text-anchor: middle; visibility: inherit; font-family: Roboto, sans-serif; font-size: 12px; font-weight: 200;" fill="rgb(33, 33, 33)" stroke="none" stroke-width="1px">60</text><text x="1025.4666666666667" y="0" dx="0em" dy="0.95em" style="text-anchor: middle; visibility: inherit; font-family: Roboto, sans-serif; font-size: 12px; font-weight: 200;" fill="rgb(33, 33, 33)" stroke="none" stroke-width="1px">70</text><text x="1153.65" y="0" dx="0em" dy="0.95em" style="text-anchor: middle; visibility: inherit; font-family: Roboto, sans-serif; font-size: 12px; font-weight: 200;" fill="rgb(33, 33, 33)" stroke="none" stroke-width="1px">80</text><text x="1281.8333333333335" y="0" dx="0em" dy="0.95em" style="text-anchor: middle; visibility: inherit; font-family: Roboto, sans-serif; font-size: 12px; font-weight: 200;" fill="rgb(33, 33, 33)" stroke="none" stroke-width="1px">90</text><text x="1410.0166666666667" y="0" dx="0em" dy="0.95em" style="text-anchor: middle; visibility: inherit; font-family: Roboto, sans-serif; font-size: 12px; font-weight: 200;" fill="rgb(33, 33, 33)" stroke="none" stroke-width="1px">100</text><text x="1538.2" y="0" dx="0em" dy="0.95em" style="text-anchor: middle; visibility: hidden; font-family: Roboto, sans-serif; font-size: 12px; font-weight: 200;" fill="rgb(33, 33, 33)" stroke="none" stroke-width="1px">110</text></g><line x1="0" y1="0" x2="1538.2" y2="0" fill="rgb(0, 0, 0)" stroke="rgb(204, 204, 204)" stroke-width="1px"></line></g></g></g></g></svg>