<svg viewBox="0 0 330 200" xmlns="http://www.w3.org/2000/svg"><g><g><g><g><g><line x1="51.5625" y1="177" x2="46.5625" y2="177" style="visibility: inherit;" fill="rgb(0, 0, 0)" stroke="rgb(204, 204, 204)" stroke-width="1px"></line><line x1="51.5625" y1="163.3846153846154" x2="46.5625" y2="163.3846153846154" style="visibility: inherit;" fill="rgb(0, 0, 0)" stroke="rgb(204, 204, 204)" stroke-width="1px"></line><line x1="51.5625" y1="149.76923076923077" x2="46.5625" y2="149.76923076923077" style="visibility: inherit;" fill="rgb(0, 0, 0)" stroke="rgb(204, 204, 204)" stroke-width="1px"></line><line x1="51.5625" y1="136.15384615384613" x2="46.5625" y2="136.15384615384613" style="visibility: inherit;" fill="rgb(0, 0, 0)" stroke="rgb(204, 204, 204)" stroke-width="1px"></line><line x1="51.5625" y1="122.53846153846153" x2="46.5625" y2="122.53846153846153" style="visibility: inherit;" fill="rgb(0, 0, 0)" stroke="rgb(204, 204, 204)" stroke-width="1px"></line><line x1="51.5625" y1="108.92307692307693" x2="46.5625" y2="108.92307692307693" style="visibility: inherit;" fill="rgb(0, 0, 0)" stroke="rgb(204, 204, 204)" stroke-width="1px"></line><line x1="51.5625" y1="95.30769230769232" x2="46.5625" y2="95.30769230769232" style="visibility: inherit;" fill="rgb(0, 0, 0)" stroke="rgb(204, 204, 204)" stroke-width="1px"></line><line x1="51.5625" y1="81.6923076923077" x2="46.5625" y2="81.6923076923077" style="visibility: inherit;" fill="rgb(0, 0, 0)" stroke="rgb(204, 204, 204)" stroke-width="1px"></line><line x1="51.5625" y1="68.0769230769231" x2="46.5625" y2="68.0769230769231" style="visibility: inherit;" fill="rgb(0, 0, 0)" stroke="rgb(204, 204, 204)" stroke-width="1px"></line><line x1="51.5625" y1="54.46153846153847" x2="46.5625" y2="54.46153846153847" style="visibility: inherit;" fill="rgb(0, 0, 0)" stroke="rgb(204, 204, 204)" stroke-width="1px"></line><line x1="51.5625" y1="40.84615384615386" x2="46.5625" y2="40.84615384615386" style="visibility: inherit;" fill="rgb(0, 0, 0)" stroke="rgb(204, 204, 204)" stroke-width="1px"></line><line x1="51.5625" y1="27.230769230769234" x2="46.5625" y2="27.230769230769234" style="visibility: inherit;" fill="rgb(0, 0, 0)" stroke="rgb(204, 204, 204)" stroke-width="1px"></line><line x1="51.5625" y1="13.615384615384606" x2="46.5625" y2="13.615384615384606" style="visibility: inherit;" fill="rgb(0, 0, 0)" stroke="rgb(204, 204, 204)" stroke-width="1px"></line><line x1="51.5625" y1="0" x2="46.5625" y2="0" style="visibility: inherit;" fill="rgb(0, 0, 0)" stroke="rgb(204, 204, 204)" stroke-width="1px"></line></g><g transform="translate(41.5625, 0)"><text x="0" y="177" dx="0em" dy="0.3em" style="text-anchor: end; visibility: hidden; font-family: Roboto, sans-serif; font-size: 12px; font-weight: 200;" fill="rgb(33, 33, 33)" stroke="none" stroke-width="1px">-0.1</text><text x="0" y="163.3846153846154" dx="0em" dy="0.3em" style="text-anchor: end; visibility: inherit; font-family: Roboto, sans-serif; font-size: 12px; font-weight: 200;" fill="rgb(33, 33, 33)" stroke="none" stroke-width="1px">0</text><text x="0" y="149.76923076923077" dx="0em" dy="0.3em" style="text-anchor: end; visibility: hidden; font-family: Roboto, sans-serif; font-size: 12px; font-weight: 200;" fill="rgb(33, 33, 33)" stroke="none" stroke-width="1px">0.1</text><text x="0" y="136.15384615384613" dx="0em" dy="0.3em" style="text-anchor: end; visibility: inherit; font-family: Roboto, sans-serif; font-size: 12px; font-weight: 200;" fill="rgb(33, 33, 33)" stroke="none" stroke-width="1px">0.2</text><text x="0" y="122.53846153846153" dx="0em" dy="0.3em" style="text-anchor: end; visibility: hidden; font-family: Roboto, sans-serif; font-size: 12px; font-weight: 200;" fill="rgb(33, 33, 33)" stroke="none" stroke-width="1px">0.3</text><text x="0" y="108.92307692307693" dx="0em" dy="0.3em" style="text-anchor: end; visibility: inherit; font-family: Roboto, sans-serif; font-size: 12px; font-weight: 200;" fill="rgb(33, 33, 33)" stroke="none" stroke-width="1px">0.4</text><text x="0" y="95.30769230769232" dx="0em" dy="0.3em" style="text-anchor: end; visibility: hidden; font-family: Roboto, sans-serif; font-size: 12px; font-weight: 200;" fill="rgb(33, 33, 33)" stroke="none" stroke-width="1px">0.5</text><text x="0" y="81.6923076923077" dx="0em" dy="0.3em" style="text-anchor: end; visibility: inherit; font-family: Roboto, sans-serif; font-size: 12px; font-weight: 200;" fill="rgb(33, 33, 33)" stroke="none" stroke-width="1px">0.6</text><text x="0" y="68.0769230769231" dx="0em" dy="0.3em" style="text-anchor: end; visibility: hidden; font-family: Roboto, sans-serif; font-size: 12px; font-weight: 200;" fill="rgb(33, 33, 33)" stroke="none" stroke-width="1px">0.7</text><text x="0" y="54.46153846153847" dx="0em" dy="0.3em" style="text-anchor: end; visibility: inherit; font-family: Roboto, sans-serif; font-size: 12px; font-weight: 200;" fill="rgb(33, 33, 33)" stroke="none" stroke-width="1px">0.8</text><text x="0" y="40.84615384615386" dx="0em" dy="0.3em" style="text-anchor: end; visibility: hidden; font-family: Roboto, sans-serif; font-size: 12px; font-weight: 200;" fill="rgb(33, 33, 33)" stroke="none" stroke-width="1px">0.9</text><text x="0" y="27.230769230769234" dx="0em" dy="0.3em" style="text-anchor: end; visibility: inherit; font-family: Roboto, sans-serif; font-size: 12px; font-weight: 200;" fill="rgb(33, 33, 33)" stroke="none" stroke-width="1px">1</text><text x="0" y="13.615384615384606" dx="0em" dy="0.3em" style="text-anchor: end; visibility: hidden; font-family: Roboto, sans-serif; font-size: 12px; font-weight: 200;" fill="rgb(33, 33, 33)" stroke="none" stroke-width="1px">1.1</text><text x="0" y="0" dx="0em" dy="0.3em" style="text-anchor: end; visibility: hidden; font-family: Roboto, sans-serif; font-size: 12px; font-weight: 200;" fill="rgb(33, 33, 33)" stroke="none" stroke-width="1px">1.2</text></g><line x1="51.5625" y1="0" x2="51.5625" y2="177" fill="rgb(0, 0, 0)" stroke="rgb(204, 204, 204)" stroke-width="1px"></line></g></g><g transform="translate(51, 0)" clip-path="url(#clip_0)"><clipPath id="clip_0"><rect width="278" height="177"></rect></clipPath><g><g><g><line x1="0" y1="0" x2="0" y2="177" fill="rgb(0, 0, 0)" stroke="rgb(66, 66, 66)" stroke-width="1px" opacity="0.25"></line><line x1="23.203125" y1="0" x2="23.203125" y2="177" fill="rgb(0, 0, 0)" stroke="rgb(66, 66, 66)" stroke-width="1px" opacity="0.25"></line><line x1="46.40625" y1="0" x2="46.40625" y2="177" fill="rgb(0, 0, 0)" stroke="rgb(66, 66, 66)" stroke-width="1px" opacity="0.25"></line><line x1="69.609375" y1="0" x2="69.609375" y2="177" fill="rgb(0, 0, 0)" stroke="rgb(66, 66, 66)" stroke-width="1px" opacity="0.25"></line><line x1="92.8125" y1="0" x2="92.8125" y2="177" fill="rgb(0, 0, 0)" stroke="rgb(66, 66, 66)" stroke-width="1px" opacity="0.25"></line><line x1="116.015625" y1="0" x2="116.015625" y2="177" fill="rgb(0, 0, 0)" stroke="rgb(66, 66, 66)" stroke-width="1px" opacity="0.25"></line><line x1="139.21875" y1="0" x2="139.21875" y2="177" fill="rgb(0, 0, 0)" stroke="rgb(66, 66, 66)" stroke-width="1px" opacity="0.25"></line><line x1="162.421875" y1="0" x2="162.421875" y2="177" fill="rgb(0, 0, 0)" stroke="rgb(66, 66, 66)" stroke-width="1px" opacity="0.25"></line><line x1="185.625" y1="0" x2="185.625" y2="177" fill="rgb(0, 0, 0)" stroke="rgb(66, 66, 66)" stroke-width="1px" opacity="0.25"></line><line x1="208.828125" y1="0" x2="208.828125" y2="177" fill="rgb(0, 0, 0)" stroke="rgb(66, 66, 66)" stroke-width="1px" opacity="0.25"></line><line x1="232.03125" y1="0" x2="232.03125" y2="177" fill="rgb(0, 0, 0)" stroke="rgb(66, 66, 66)" stroke-width="1px" opacity="0.25"></line><line x1="255.234375" y1="0" x2="255.234375" y2="177" fill="rgb(0, 0, 0)" stroke="rgb(66, 66, 66)" stroke-width="1px" opacity="0.25"></line><line x1="278.4375" y1="0" x2="278.4375" y2="177" fill="rgb(0, 0, 0)" stroke="rgb(66, 66, 66)" stroke-width="1px" opacity="0.25"></line></g><g><line x1="0" y1="177" x2="278.4375" y2="177" fill="rgb(0, 0, 0)" stroke="rgb(66, 66, 66)" stroke-width="1px" opacity="0.25"></line><line x1="0" y1="163.3846153846154" x2="278.4375" y2="163.3846153846154" fill="rgb(0, 0, 0)" stroke="rgb(66, 66, 66)" stroke-width="1px" opacity="0.25"></line><line x1="0" y1="149.76923076923077" x2="278.4375" y2="149.76923076923077" fill="rgb(0, 0, 0)" stroke="rgb(66, 66, 66)" stroke-width="1px" opacity="0.25"></line><line x1="0" y1="136.15384615384613" x2="278.4375" y2="136.15384615384613" fill="rgb(0, 0, 0)" stroke="rgb(66, 66, 66)" stroke-width="1px" opacity="0.25"></line><line x1="0" y1="122.53846153846153" x2="278.4375" y2="122.53846153846153" fill="rgb(0, 0, 0)" stroke="rgb(66, 66, 66)" stroke-width="1px" opacity="0.25"></line><line x1="0" y1="108.92307692307693" x2="278.4375" y2="108.92307692307693" fill="rgb(0, 0, 0)" stroke="rgb(66, 66, 66)" stroke-width="1px" opacity="0.25"></line><line x1="0" y1="95.30769230769232" x2="278.4375" y2="95.30769230769232" fill="rgb(0, 0, 0)" stroke="rgb(66, 66, 66)" stroke-width="1px" opacity="0.25"></line><line x1="0" y1="81.6923076923077" x2="278.4375" y2="81.6923076923077" fill="rgb(0, 0, 0)" stroke="rgb(66, 66, 66)" stroke-width="1px" opacity="0.25"></line><line x1="0" y1="68.0769230769231" x2="278.4375" y2="68.0769230769231" fill="rgb(0, 0, 0)" stroke="rgb(66, 66, 66)" stroke-width="1px" opacity="0.25"></line><line x1="0" y1="54.46153846153847" x2="278.4375" y2="54.46153846153847" fill="rgb(0, 0, 0)" stroke="rgb(66, 66, 66)" stroke-width="1px" opacity="0.25"></line><line x1="0" y1="40.84615384615386" x2="278.4375" y2="40.84615384615386" fill="rgb(0, 0, 0)" stroke="rgb(66, 66, 66)" stroke-width="1px" opacity="0.25"></line><line x1="0" y1="27.230769230769234" x2="278.4375" y2="27.230769230769234" fill="rgb(0, 0, 0)" stroke="rgb(66, 66, 66)" stroke-width="1px" opacity="0.25"></line><line x1="0" y1="13.615384615384606" x2="278.4375" y2="13.615384615384606" fill="rgb(0, 0, 0)" stroke="rgb(66, 66, 66)" stroke-width="1px" opacity="0.25"></line><line x1="0" y1="0" x2="278.4375" y2="0" fill="rgb(0, 0, 0)" stroke="rgb(66, 66, 66)" stroke-width="1px" opacity="0.25"></line></g></g></g><g><g><line x1="0" y1="163.3846153846154" x2="278.4375" y2="163.3846153846154" fill="rgb(0, 0, 0)" stroke="rgb(153, 153, 153)" stroke-width="1.5px"></line></g></g><g><g><line x1="23.203125" y1="0" x2="23.203125" y2="177" fill="rgb(0, 0, 0)" stroke="rgb(153, 153, 153)" stroke-width="1.5px"></line></g></g><g><g><g><g><g><path stroke="rgb(204, 51, 17)" stroke-width="2px" d="M23.203125,14.978249458166273L25.523437499999996,22.42489330585186L27.84375,29.943155572964592L30.1640625,38.53519909198467L32.484375,48.14880125339214L34.8046875,58.79408196302562L37.125,69.9207682976356L39.4453125,80.88322324936206L41.765625,90.92936008710129L44.0859375,99.8538104570829L46.40625,107.50310399899116L48.7265625,113.97417512765297L51.04687499999999,119.54521169570776L53.36718750000001,124.24923527240753L55.6875,128.29295325279236L58.0078125,131.79015574088464L60.328125,134.77719770715788L62.6484375,137.3875186718427L64.96875,139.66848823428154L67.2890625,141.65057161221137L69.609375,143.41263833642006L71.92968750000001,144.95324995196785L74.25,146.32931571281875L76.5703125,147.54289895983842L78.890625,148.6447625446778L81.2109375,149.61428320293243L83.53125,150.51350622337597L85.8515625,151.3073294506623L88.171875,152.0380199253559L90.4921875,152.69994454429698L92.8125,153.3059104256905L95.1328125,153.86244641015162L97.453125,154.36868922183146L99.7734375,154.8418678584007L102.09374999999999,155.27629240888817L104.4140625,155.67388825233166L106.73437500000001,156.04097576496693L109.0546875,156.39699589862275L111.375,156.71746296492907L113.6953125,157.011633086663L116.015625,157.2992769038448L118.3359375,157.56912110917844L120.65625,157.81004861684946L122.9765625,158.04456191395337L125.296875,158.26092866578927L127.6171875,158.46586487442255L129.9375,158.65893433701532L132.2578125,158.84214409383443L134.578125,159.01271766309554L136.8984375,159.17716385051608L139.21875,159.3322319305287L141.5390625,159.47810779655208L143.85937500000003,159.61618856569896L146.1796875,159.74823147602953L148.5,159.8743301082689L150.8203125,159.99384461371946L153.140625,160.1049442084936L155.4609375,160.21583812855758L157.78125,160.31716931582642L160.1015625,160.41675772059423L162.421875,160.50952842716987L164.7421875,160.60099331490122L167.0625,160.6851388711769L169.38281249999997,160.7668297720643L171.703125,160.84641827671575L174.0234375,160.9216571796972L176.34375,160.99428495220266L178.66406250000003,161.06455875102145L180.984375,161.13085828549586L183.3046875,161.19456545636058L185.625,161.25472315343526L187.9453125,161.31411369144917L190.265625,161.37136620154175L192.5859375,161.4257774334401L194.90625,161.47909067685788L197.2265625,161.52960359949904L199.546875,161.5781869585984L201.8671875,161.62548656260165L204.18749999999997,161.67090960678L206.5078125,161.7144205862513L208.828125,161.7564311040422L211.1484375,161.7979330143963L213.46875000000003,161.83648599068133L215.7890625,161.87392322604472L218.109375,161.9121087267995L220.4296875,161.9474855377697L222.75,161.98181901241725L225.0703125,162.0158798602911L227.390625,162.04780470909407L229.7109375,162.07927560261808L232.03125,162.1096368417717L234.3515625,162.13820787404592L236.671875,162.16729651678068L238.99218749999997,162.19492489443374L241.3125,162.2219264841137L243.6328125,162.24719454792256L245.953125,162.27240149261286L248.27343750000003,162.29730943547418L250.59375,162.3209308335701L252.9140625,162.34431542678234" style="fill: none;" fill="none"></path></g><g><path stroke="rgb(0, 119, 187)" stroke-width="2px" d="M23.203125,12.971943635206951L25.523437499999996,13.761604675879834L27.84375,14.263883113861084L30.1640625,14.87453462527348L32.484375,15.321466024105352L34.8046875,15.738613898937505L37.125,16.21135227496807L39.4453125,16.698747066351086L41.765625,17.21349076124337L44.0859375,17.75410635654743L46.40625,18.333399956042943L48.7265625,18.904983923985405L51.04687499999999,19.651811874829797L53.36718750000001,20.37361192703247L55.6875,21.240937361350415L58.0078125,22.13119692068833L60.328125,23.147277666972236L62.6484375,24.263924470314606L64.96875,25.459144592285156L67.2890625,26.812209276052606L69.609375,28.32376775374779L71.92968750000001,29.894122316287117L74.25,31.65666582034184L76.5703125,33.40004074573517L78.890625,35.526000050398004L81.2109375,37.70246149943425L83.53125,40.00821752731617L85.8515625,42.4198389695241L88.171875,44.957070598235504L90.4921875,47.655376718594475L92.8125,50.405442870580245L95.1328125,53.25814450704135L97.453125,56.21276747263396L99.7734375,59.25403046607971L102.09374999999999,62.310225798533516L104.4140625,65.38223804877356L106.73437500000001,68.53095707526573L109.0546875,71.63267981089079L111.375,74.7501301948841L113.6953125,77.81698916508601L116.015625,80.88636390979474L118.3359375,83.89772164821625L120.65625,86.81193802906917L122.9765625,89.75000557532677L125.296875,92.55768296351799L127.6171875,95.27107561551608L129.9375,97.96516172702498L132.2578125,100.5168834053553L134.578125,103.00142578895277L136.8984375,105.35307441307948L139.21875,107.62947703324832L141.5390625,109.84026663119978L143.85937500000003,111.91264805426964L146.1796875,113.90257293902911L148.5,115.84255158442718L150.8203125,117.64827714058069L153.140625,119.39236622131789L155.4609375,121.06615157769278L157.78125,122.62667838885234L160.1015625,124.15060879633978L162.421875,125.58093210367056L164.7421875,126.95319782770598L167.0625,128.26611561958606L169.38281249999997,129.4999244763301L171.703125,130.68091424153403L174.0234375,131.81351795334083L176.34375,132.87757086753845L178.66406250000003,133.9058145720225L180.984375,134.89785546981372L183.3046875,135.83069045497822L185.625,136.71438262554315L187.9453125,137.56574709369588L190.265625,138.3884114439671L192.5859375,139.15662956467042L194.90625,139.91285920830873L197.2265625,140.62377447806873L199.546875,141.30526938805212L201.8671875,141.95470643272768L204.18749999999997,142.58121746778488L206.5078125,143.18568504315155L208.828125,143.757591598309L211.1484375,144.31091388372275L213.46875000000003,144.84557683192767L215.7890625,145.35007280340562L218.109375,145.8454572076981L220.4296875,146.31342372756737L222.75,146.7724673633392L225.0703125,147.2047119140625L227.390625,147.62767345974078L229.7109375,148.03242201530017L232.03125,148.42203636123585L234.3515625,148.80145167616698L236.671875,149.16444953359093L238.99218749999997,149.50792985008312L241.3125,149.84994635100549L243.6328125,150.17739773484377L245.953125,150.49741135308375L248.27343750000003,150.79736877060856L250.59375,151.0944320330253L252.9140625,151.37920857736697" style="fill: none;" fill="none"></path></g><g><path stroke="rgb(255, 112, 67)" stroke-width="2px" d="M23.203125,3.113110267198992L25.523437499999996,4.940065714029163L27.84375,6.381653198829052L30.1640625,7.7171561534588005L32.484375,8.840262816502497L34.8046875,9.838473448386548L37.125,10.763564311541034L39.4453125,11.547252416610718L41.765625,12.39889889497022L44.0859375,13.17961676304157L46.40625,13.857674800432635L48.7265625,14.65954140516427L51.04687499999999,15.4238661619333L53.36718750000001,16.301449463917656L55.6875,17.16987859285794L58.0078125,18.075427568875817L60.328125,19.02690971814668L62.6484375,20.0086947771219L64.96875,21.077850250097423L67.2890625,22.13450800455533L69.609375,23.366896666013268L71.92968750000001,24.51746584818913L74.25,25.861571128551763L76.5703125,27.201781016129697L78.890625,28.59795471338124L81.2109375,30.025137360279363L83.53125,31.48665627149434L85.8515625,33.08734620534455L88.171875,34.63001913290757L90.4921875,36.291793694862946L92.8125,37.94732751296117L95.1328125,39.61165031102986L97.453125,41.33911093381736L99.7734375,43.04376727801104L102.09374999999999,44.80302404440368L104.4140625,46.57887680713947L106.73437500000001,48.36599374734439L109.0546875,50.131475026790916L111.375,51.92331513074729L113.6953125,53.71272061421321L116.015625,55.47060587772957L118.3359375,57.254736350132866L120.65625,59.010462916814376L122.9765625,60.74346635891841L125.296875,62.463136196136475L127.6171875,64.13904778773968L129.9375,65.80591882192172L132.2578125,67.46577814909129L134.578125,69.0648368872129L136.8984375,70.65968373188606L139.21875,72.22166319993826L141.5390625,73.73565629812389L143.85937500000003,75.22462149766775L146.1796875,76.71790409088135L148.5,78.15243117625897L150.8203125,79.57241546190703L153.140625,80.96991196962504L155.4609375,82.32550865870257L157.78125,83.67661753067604L160.1015625,84.99097986404712L162.421875,86.27882106487567L164.7421875,87.54620333818289L167.0625,88.77980930988605L169.38281249999997,90.0019401036776L171.703125,91.19601595401764L174.0234375,92.40536499023438L176.34375,93.54337964608119L178.66406250000003,94.69339698094589L180.984375,95.81350094538467L183.3046875,96.90150038095622L185.625,97.9823095706793L187.9453125,99.05186269833492L190.265625,100.08167876188571L192.5859375,101.12480408411759L194.90625,102.11643718297667L197.2265625,103.11637639540893L199.546875,104.07183914918167L201.8671875,105.03656157621971L204.18749999999997,105.98753245518759L206.5078125,106.89515085862234L208.828125,107.82096805022314L211.1484375,108.69183585735468L213.46875000000003,109.55901927214401L215.7890625,110.45403445683993L218.109375,111.29781711101532L220.4296875,112.13428373061694L222.75,112.94712235835883L225.0703125,113.75835413657703L227.390625,114.55096106804335L229.7109375,115.31856038937202L232.03125,116.09836121705862L234.3515625,116.84778609642616L236.671875,117.58119523066742L238.99218749999997,118.30682169474089L241.3125,119.02897882461548L243.6328125,119.7195913883356L245.953125,120.41468365375812L248.27343750000003,121.09219795923966L250.59375,121.75458109837311L252.9140625,122.41491104089297" style="fill: none;" fill="none"></path></g><g><path stroke="rgb(51, 187, 238)" stroke-width="2px" d="M23.203125,18.671877127427305L25.523437499999996,22.769457028462334L27.84375,26.714191455107464L30.1640625,30.766081644938545L32.484375,34.92546032942258L34.8046875,39.60469541182884L37.125,44.391086257421065L39.4453125,49.69782042503357L41.765625,55.36695596804987L44.0859375,61.43435484629412L46.40625,68.02290858672217L48.7265625,74.78587042368376L51.04687499999999,81.82715807511256L53.36718750000001,88.69465440053207L55.6875,95.25628935373747L58.0078125,101.32528290840295L60.328125,106.84285926818848L62.6484375,111.86876401992944L64.96875,116.40121989066786L67.2890625,120.59228110313416L69.609375,124.42668258685333L71.92968750000001,128.06903309088486L74.25,131.4930975505939L76.5703125,134.7027693299147L78.890625,137.71517598399748L81.2109375,140.66381586973483L83.53125,143.29403579922823L85.8515625,145.804070688211L88.171875,148.00186347044433L90.4921875,150.03911636311275L92.8125,151.87992885823434L95.1328125,153.83372803261648L97.453125,155.48323819385124L99.7734375,156.73632823045438L102.09374999999999,157.68567146418187L104.4140625,158.41634165037138L106.73437500000001,159.02237245497795L109.0546875,159.503831590884L111.375,159.8921436684636L113.6953125,160.23431841971782L116.015625,160.51989737439615L118.3359375,160.75733957067132L120.65625,160.95685900231967L122.9765625,161.1466293005416L125.296875,161.303564556946L127.6171875,161.4505592071666L129.9375,161.57008005277467L132.2578125,161.6855028741635L134.578125,161.78443114172953L136.8984375,161.88134476083977L139.21875,161.95693021683167L141.5390625,162.0348253922107L143.85937500000003,162.10823376491092L146.1796875,162.17290235726307L148.5,162.22828832497964L150.8203125,162.2870359710203L153.140625,162.33697948411393L155.4609375,162.3813153814811L157.78125,162.42721964361576L160.1015625,162.4690296222241L162.421875,162.5020627305628L164.7421875,162.53383173829374L167.0625,162.57647849089253L169.38281249999997,162.6081168913784L171.703125,162.63273496223758L174.0234375,162.66635783202946L176.34375,162.68746104635872L178.66406250000003,162.7169257238364L180.984375,162.7399797412352L183.3046875,162.76228365459693L185.625,162.78364446952654L187.9453125,162.80420426895412L190.265625,162.81932795391631L192.5859375,162.84035838323717L194.90625,162.8593187511254L197.2265625,162.8727507235554L199.546875,162.88928420594536L201.8671875,162.9061110157233L204.18749999999997,162.9192371389542L206.5078125,162.93347957372092L208.828125,162.94657510569175L211.1484375,162.95763085048216L213.46875000000003,162.97065137838945L215.7890625,162.9819780064102L218.109375,162.99104890148513L220.4296875,163.00515356462878L222.75,163.014426837532L225.0703125,163.0253210668094L227.390625,163.03317940675726L229.7109375,163.04432077537504L232.03125,163.05242834691532L234.3515625,163.0617016832201L236.671875,163.0695191291519L238.99218749999997,163.07766930655075L241.3125,163.08533525441845L243.6328125,163.09210267516139L245.953125,163.09992899731375L248.27343750000003,163.10709451654782L250.59375,163.1124990570287L252.9140625,163.1187702811932" style="fill: none;" fill="none"></path></g></g></g></g></g></g><g transform="translate(51, 177)" clip-path="url(#clip_1)"><clipPath id="clip_1"><rect width="278" height="23"></rect></clipPath><g><g><line x1="0" y1="0" x2="0" y2="5" style="visibility: inherit;" fill="rgb(0, 0, 0)" stroke="rgb(204, 204, 204)" stroke-width="1px"></line><line x1="23.203125" y1="0" x2="23.203125" y2="5" style="visibility: inherit;" fill="rgb(0, 0, 0)" stroke="rgb(204, 204, 204)" stroke-width="1px"></line><line x1="46.40625" y1="0" x2="46.40625" y2="5" style="visibility: inherit;" fill="rgb(0, 0, 0)" stroke="rgb(204, 204, 204)" stroke-width="1px"></line><line x1="69.609375" y1="0" x2="69.609375" y2="5" style="visibility: inherit;" fill="rgb(0, 0, 0)" stroke="rgb(204, 204, 204)" stroke-width="1px"></line><line x1="92.8125" y1="0" x2="92.8125" y2="5" style="visibility: inherit;" fill="rgb(0, 0, 0)" stroke="rgb(204, 204, 204)" stroke-width="1px"></line><line x1="116.015625" y1="0" x2="116.015625" y2="5" style="visibility: inherit;" fill="rgb(0, 0, 0)" stroke="rgb(204, 204, 204)" stroke-width="1px"></line><line x1="139.21875" y1="0" x2="139.21875" y2="5" style="visibility: inherit;" fill="rgb(0, 0, 0)" stroke="rgb(204, 204, 204)" stroke-width="1px"></line><line x1="162.421875" y1="0" x2="162.421875" y2="5" style="visibility: inherit;" fill="rgb(0, 0, 0)" stroke="rgb(204, 204, 204)" stroke-width="1px"></line><line x1="185.625" y1="0" x2="185.625" y2="5" style="visibility: inherit;" fill="rgb(0, 0, 0)" stroke="rgb(204, 204, 204)" stroke-width="1px"></line><line x1="208.828125" y1="0" x2="208.828125" y2="5" style="visibility: inherit;" fill="rgb(0, 0, 0)" stroke="rgb(204, 204, 204)" stroke-width="1px"></line><line x1="232.03125" y1="0" x2="232.03125" y2="5" style="visibility: inherit;" fill="rgb(0, 0, 0)" stroke="rgb(204, 204, 204)" stroke-width="1px"></line><line x1="255.234375" y1="0" x2="255.234375" y2="5" style="visibility: inherit;" fill="rgb(0, 0, 0)" stroke="rgb(204, 204, 204)" stroke-width="1px"></line><line x1="278.4375" y1="0" x2="278.4375" y2="5" style="visibility: inherit;" fill="rgb(0, 0, 0)" stroke="rgb(204, 204, 204)" stroke-width="1px"></line></g><g transform="translate(0, 8)"><text x="0" y="0" dx="0em" dy="0.95em" style="text-anchor: middle; visibility: hidden; font-family: Roboto, sans-serif; font-size: 12px; font-weight: 200;" fill="rgb(33, 33, 33)" stroke="none" stroke-width="1px">-10</text><text x="23.203125" y="0" dx="0em" dy="0.95em" style="text-anchor: middle; visibility: inherit; font-family: Roboto, sans-serif; font-size: 12px; font-weight: 200;" fill="rgb(33, 33, 33)" stroke="none" stroke-width="1px">0</text><text x="46.40625" y="0" dx="0em" dy="0.95em" style="text-anchor: middle; visibility: inherit; font-family: Roboto, sans-serif; font-size: 12px; font-weight: 200;" fill="rgb(33, 33, 33)" stroke="none" stroke-width="1px">10</text><text x="69.609375" y="0" dx="0em" dy="0.95em" style="text-anchor: middle; visibility: inherit; font-family: Roboto, sans-serif; font-size: 12px; font-weight: 200;" fill="rgb(33, 33, 33)" stroke="none" stroke-width="1px">20</text><text x="92.8125" y="0" dx="0em" dy="0.95em" style="text-anchor: middle; visibility: inherit; font-family: Roboto, sans-serif; font-size: 12px; font-weight: 200;" fill="rgb(33, 33, 33)" stroke="none" stroke-width="1px">30</text><text x="116.015625" y="0" dx="0em" dy="0.95em" style="text-anchor: middle; visibility: inherit; font-family: Roboto, sans-serif; font-size: 12px; font-weight: 200;" fill="rgb(33, 33, 33)" stroke="none" stroke-width="1px">40</text><text x="139.21875" y="0" dx="0em" dy="0.95em" style="text-anchor: middle; visibility: inherit; font-family: Roboto, sans-serif; font-size: 12px; font-weight: 200;" fill="rgb(33, 33, 33)" stroke="none" stroke-width="1px">50</text><text x="162.421875" y="0" dx="0em" dy="0.95em" style="text-anchor: middle; visibility: inherit; font-family: Roboto, sans-serif; font-size: 12px; font-weight: 200;" fill="rgb(33, 33, 33)" stroke="none" stroke-width="1px">60</text><text x="185.625" y="0" dx="0em" dy="0.95em" style="text-anchor: middle; visibility: inherit; font-family: Roboto, sans-serif; font-size: 12px; font-weight: 200;" fill="rgb(33, 33, 33)" stroke="none" stroke-width="1px">70</text><text x="208.828125" y="0" dx="0em" dy="0.95em" style="text-anchor: middle; visibility: inherit; font-family: Roboto, sans-serif; font-size: 12px; font-weight: 200;" fill="rgb(33, 33, 33)" stroke="none" stroke-width="1px">80</text><text x="232.03125" y="0" dx="0em" dy="0.95em" style="text-anchor: middle; visibility: inherit; font-family: Roboto, sans-serif; font-size: 12px; font-weight: 200;" fill="rgb(33, 33, 33)" stroke="none" stroke-width="1px">90</text><text x="255.234375" y="0" dx="0em" dy="0.95em" style="text-anchor: middle; visibility: inherit; font-family: Roboto, sans-serif; font-size: 12px; font-weight: 200;" fill="rgb(33, 33, 33)" stroke="none" stroke-width="1px">100</text><text x="278.4375" y="0" dx="0em" dy="0.95em" style="text-anchor: middle; visibility: hidden; font-family: Roboto, sans-serif; font-size: 12px; font-weight: 200;" fill="rgb(33, 33, 33)" stroke="none" stroke-width="1px">110</text></g><line x1="0" y1="0" x2="278.4375" y2="0" fill="rgb(0, 0, 0)" stroke="rgb(204, 204, 204)" stroke-width="1px"></line></g></g></g></g></svg>