<svg viewBox="0 0 1578.2000732421875 400" xmlns="http://www.w3.org/2000/svg"><g><g><g><g><g><line x1="51.5625" y1="377" x2="46.5625" y2="377" style="visibility: inherit;" fill="rgb(0, 0, 0)" stroke="rgb(204, 204, 204)" stroke-width="1px"></line><line x1="51.5625" y1="348" x2="46.5625" y2="348" style="visibility: inherit;" fill="rgb(0, 0, 0)" stroke="rgb(204, 204, 204)" stroke-width="1px"></line><line x1="51.5625" y1="319" x2="46.5625" y2="319" style="visibility: inherit;" fill="rgb(0, 0, 0)" stroke="rgb(204, 204, 204)" stroke-width="1px"></line><line x1="51.5625" y1="290" x2="46.5625" y2="290" style="visibility: inherit;" fill="rgb(0, 0, 0)" stroke="rgb(204, 204, 204)" stroke-width="1px"></line><line x1="51.5625" y1="261" x2="46.5625" y2="261" style="visibility: inherit;" fill="rgb(0, 0, 0)" stroke="rgb(204, 204, 204)" stroke-width="1px"></line><line x1="51.5625" y1="232" x2="46.5625" y2="232" style="visibility: inherit;" fill="rgb(0, 0, 0)" stroke="rgb(204, 204, 204)" stroke-width="1px"></line><line x1="51.5625" y1="203.00000000000003" x2="46.5625" y2="203.00000000000003" style="visibility: inherit;" fill="rgb(0, 0, 0)" stroke="rgb(204, 204, 204)" stroke-width="1px"></line><line x1="51.5625" y1="174" x2="46.5625" y2="174" style="visibility: inherit;" fill="rgb(0, 0, 0)" stroke="rgb(204, 204, 204)" stroke-width="1px"></line><line x1="51.5625" y1="145.00000000000003" x2="46.5625" y2="145.00000000000003" style="visibility: inherit;" fill="rgb(0, 0, 0)" stroke="rgb(204, 204, 204)" stroke-width="1px"></line><line x1="51.5625" y1="116" x2="46.5625" y2="116" style="visibility: inherit;" fill="rgb(0, 0, 0)" stroke="rgb(204, 204, 204)" stroke-width="1px"></line><line x1="51.5625" y1="87.00000000000003" x2="46.5625" y2="87.00000000000003" style="visibility: inherit;" fill="rgb(0, 0, 0)" stroke="rgb(204, 204, 204)" stroke-width="1px"></line><line x1="51.5625" y1="58" x2="46.5625" y2="58" style="visibility: inherit;" fill="rgb(0, 0, 0)" stroke="rgb(204, 204, 204)" stroke-width="1px"></line><line x1="51.5625" y1="28.999999999999982" x2="46.5625" y2="28.999999999999982" style="visibility: inherit;" fill="rgb(0, 0, 0)" stroke="rgb(204, 204, 204)" stroke-width="1px"></line><line x1="51.5625" y1="0" x2="46.5625" y2="0" style="visibility: inherit;" fill="rgb(0, 0, 0)" stroke="rgb(204, 204, 204)" stroke-width="1px"></line></g><g transform="translate(41.5625, 0)"><text x="0" y="377" dx="0em" dy="0.3em" style="text-anchor: end; visibility: hidden; font-family: Roboto, sans-serif; font-size: 12px; font-weight: 200;" fill="rgb(33, 33, 33)" stroke="none" stroke-width="1px">-0.1</text><text x="0" y="348" dx="0em" dy="0.3em" style="text-anchor: end; visibility: inherit; font-family: Roboto, sans-serif; font-size: 12px; font-weight: 200;" fill="rgb(33, 33, 33)" stroke="none" stroke-width="1px">0</text><text x="0" y="319" dx="0em" dy="0.3em" style="text-anchor: end; visibility: inherit; font-family: Roboto, sans-serif; font-size: 12px; font-weight: 200;" fill="rgb(33, 33, 33)" stroke="none" stroke-width="1px">0.1</text><text x="0" y="290" dx="0em" dy="0.3em" style="text-anchor: end; visibility: inherit; font-family: Roboto, sans-serif; font-size: 12px; font-weight: 200;" fill="rgb(33, 33, 33)" stroke="none" stroke-width="1px">0.2</text><text x="0" y="261" dx="0em" dy="0.3em" style="text-anchor: end; visibility: inherit; font-family: Roboto, sans-serif; font-size: 12px; font-weight: 200;" fill="rgb(33, 33, 33)" stroke="none" stroke-width="1px">0.3</text><text x="0" y="232" dx="0em" dy="0.3em" style="text-anchor: end; visibility: inherit; font-family: Roboto, sans-serif; font-size: 12px; font-weight: 200;" fill="rgb(33, 33, 33)" stroke="none" stroke-width="1px">0.4</text><text x="0" y="203.00000000000003" dx="0em" dy="0.3em" style="text-anchor: end; visibility: inherit; font-family: Roboto, sans-serif; font-size: 12px; font-weight: 200;" fill="rgb(33, 33, 33)" stroke="none" stroke-width="1px">0.5</text><text x="0" y="174" dx="0em" dy="0.3em" style="text-anchor: end; visibility: inherit; font-family: Roboto, sans-serif; font-size: 12px; font-weight: 200;" fill="rgb(33, 33, 33)" stroke="none" stroke-width="1px">0.6</text><text x="0" y="145.00000000000003" dx="0em" dy="0.3em" style="text-anchor: end; visibility: inherit; font-family: Roboto, sans-serif; font-size: 12px; font-weight: 200;" fill="rgb(33, 33, 33)" stroke="none" stroke-width="1px">0.7</text><text x="0" y="116" dx="0em" dy="0.3em" style="text-anchor: end; visibility: inherit; font-family: Roboto, sans-serif; font-size: 12px; font-weight: 200;" fill="rgb(33, 33, 33)" stroke="none" stroke-width="1px">0.8</text><text x="0" y="87.00000000000003" dx="0em" dy="0.3em" style="text-anchor: end; visibility: inherit; font-family: Roboto, sans-serif; font-size: 12px; font-weight: 200;" fill="rgb(33, 33, 33)" stroke="none" stroke-width="1px">0.9</text><text x="0" y="58" dx="0em" dy="0.3em" style="text-anchor: end; visibility: inherit; font-family: Roboto, sans-serif; font-size: 12px; font-weight: 200;" fill="rgb(33, 33, 33)" stroke="none" stroke-width="1px">1</text><text x="0" y="28.999999999999982" dx="0em" dy="0.3em" style="text-anchor: end; visibility: inherit; font-family: Roboto, sans-serif; font-size: 12px; font-weight: 200;" fill="rgb(33, 33, 33)" stroke="none" stroke-width="1px">1.1</text><text x="0" y="0" dx="0em" dy="0.3em" style="text-anchor: end; visibility: hidden; font-family: Roboto, sans-serif; font-size: 12px; font-weight: 200;" fill="rgb(33, 33, 33)" stroke="none" stroke-width="1px">1.2</text></g><line x1="51.5625" y1="0" x2="51.5625" y2="377" fill="rgb(0, 0, 0)" stroke="rgb(204, 204, 204)" stroke-width="1px"></line></g></g><g transform="translate(51, 0)" clip-path="url(#clip_0)"><clipPath id="clip_0"><rect width="1526" height="377"></rect></clipPath><g><g><g><line x1="0" y1="0" x2="0" y2="377" fill="rgb(0, 0, 0)" stroke="rgb(66, 66, 66)" stroke-width="1px" opacity="0.25"></line><line x1="101.77583333333334" y1="0" x2="101.77583333333334" y2="377" fill="rgb(0, 0, 0)" stroke="rgb(66, 66, 66)" stroke-width="1px" opacity="0.25"></line><line x1="203.55166666666668" y1="0" x2="203.55166666666668" y2="377" fill="rgb(0, 0, 0)" stroke="rgb(66, 66, 66)" stroke-width="1px" opacity="0.25"></line><line x1="305.32750000000004" y1="0" x2="305.32750000000004" y2="377" fill="rgb(0, 0, 0)" stroke="rgb(66, 66, 66)" stroke-width="1px" opacity="0.25"></line><line x1="407.10333333333335" y1="0" x2="407.10333333333335" y2="377" fill="rgb(0, 0, 0)" stroke="rgb(66, 66, 66)" stroke-width="1px" opacity="0.25"></line><line x1="508.87916666666666" y1="0" x2="508.87916666666666" y2="377" fill="rgb(0, 0, 0)" stroke="rgb(66, 66, 66)" stroke-width="1px" opacity="0.25"></line><line x1="610.6550000000001" y1="0" x2="610.6550000000001" y2="377" fill="rgb(0, 0, 0)" stroke="rgb(66, 66, 66)" stroke-width="1px" opacity="0.25"></line><line x1="712.4308333333333" y1="0" x2="712.4308333333333" y2="377" fill="rgb(0, 0, 0)" stroke="rgb(66, 66, 66)" stroke-width="1px" opacity="0.25"></line><line x1="814.2066666666667" y1="0" x2="814.2066666666667" y2="377" fill="rgb(0, 0, 0)" stroke="rgb(66, 66, 66)" stroke-width="1px" opacity="0.25"></line><line x1="915.9825000000002" y1="0" x2="915.9825000000002" y2="377" fill="rgb(0, 0, 0)" stroke="rgb(66, 66, 66)" stroke-width="1px" opacity="0.25"></line><line x1="1017.7583333333333" y1="0" x2="1017.7583333333333" y2="377" fill="rgb(0, 0, 0)" stroke="rgb(66, 66, 66)" stroke-width="1px" opacity="0.25"></line><line x1="1119.5341666666668" y1="0" x2="1119.5341666666668" y2="377" fill="rgb(0, 0, 0)" stroke="rgb(66, 66, 66)" stroke-width="1px" opacity="0.25"></line><line x1="1221.3100000000002" y1="0" x2="1221.3100000000002" y2="377" fill="rgb(0, 0, 0)" stroke="rgb(66, 66, 66)" stroke-width="1px" opacity="0.25"></line><line x1="1323.0858333333333" y1="0" x2="1323.0858333333333" y2="377" fill="rgb(0, 0, 0)" stroke="rgb(66, 66, 66)" stroke-width="1px" opacity="0.25"></line><line x1="1424.8616666666667" y1="0" x2="1424.8616666666667" y2="377" fill="rgb(0, 0, 0)" stroke="rgb(66, 66, 66)" stroke-width="1px" opacity="0.25"></line><line x1="1526.6375" y1="0" x2="1526.6375" y2="377" fill="rgb(0, 0, 0)" stroke="rgb(66, 66, 66)" stroke-width="1px" opacity="0.25"></line></g><g><line x1="0" y1="377" x2="1526.6375" y2="377" fill="rgb(0, 0, 0)" stroke="rgb(66, 66, 66)" stroke-width="1px" opacity="0.25"></line><line x1="0" y1="348" x2="1526.6375" y2="348" fill="rgb(0, 0, 0)" stroke="rgb(66, 66, 66)" stroke-width="1px" opacity="0.25"></line><line x1="0" y1="319" x2="1526.6375" y2="319" fill="rgb(0, 0, 0)" stroke="rgb(66, 66, 66)" stroke-width="1px" opacity="0.25"></line><line x1="0" y1="290" x2="1526.6375" y2="290" fill="rgb(0, 0, 0)" stroke="rgb(66, 66, 66)" stroke-width="1px" opacity="0.25"></line><line x1="0" y1="261" x2="1526.6375" y2="261" fill="rgb(0, 0, 0)" stroke="rgb(66, 66, 66)" stroke-width="1px" opacity="0.25"></line><line x1="0" y1="232" x2="1526.6375" y2="232" fill="rgb(0, 0, 0)" stroke="rgb(66, 66, 66)" stroke-width="1px" opacity="0.25"></line><line x1="0" y1="203.00000000000003" x2="1526.6375" y2="203.00000000000003" fill="rgb(0, 0, 0)" stroke="rgb(66, 66, 66)" stroke-width="1px" opacity="0.25"></line><line x1="0" y1="174" x2="1526.6375" y2="174" fill="rgb(0, 0, 0)" stroke="rgb(66, 66, 66)" stroke-width="1px" opacity="0.25"></line><line x1="0" y1="145.00000000000003" x2="1526.6375" y2="145.00000000000003" fill="rgb(0, 0, 0)" stroke="rgb(66, 66, 66)" stroke-width="1px" opacity="0.25"></line><line x1="0" y1="116" x2="1526.6375" y2="116" fill="rgb(0, 0, 0)" stroke="rgb(66, 66, 66)" stroke-width="1px" opacity="0.25"></line><line x1="0" y1="87.00000000000003" x2="1526.6375" y2="87.00000000000003" fill="rgb(0, 0, 0)" stroke="rgb(66, 66, 66)" stroke-width="1px" opacity="0.25"></line><line x1="0" y1="58" x2="1526.6375" y2="58" fill="rgb(0, 0, 0)" stroke="rgb(66, 66, 66)" stroke-width="1px" opacity="0.25"></line><line x1="0" y1="28.999999999999982" x2="1526.6375" y2="28.999999999999982" fill="rgb(0, 0, 0)" stroke="rgb(66, 66, 66)" stroke-width="1px" opacity="0.25"></line><line x1="0" y1="0" x2="1526.6375" y2="0" fill="rgb(0, 0, 0)" stroke="rgb(66, 66, 66)" stroke-width="1px" opacity="0.25"></line></g></g></g><g><g><line x1="0" y1="348" x2="1526.6375" y2="348" fill="rgb(0, 0, 0)" stroke="rgb(153, 153, 153)" stroke-width="1.5px"></line></g></g><g><g><line x1="101.77583333333334" y1="0" x2="101.77583333333334" y2="377" fill="rgb(0, 0, 0)" stroke="rgb(153, 153, 153)" stroke-width="1.5px"></line></g></g><g><g><g><g><g><path stroke="rgb(204, 51, 17)" stroke-width="2px" d="M101.77583333333334,31.902825117111213L117.04220833333333,47.763755798339844L132.0258726851852,63.7772296667099L144.88920717592595,82.07779693603516L158.03525231481484,102.55422639846802L170.89858680555557,125.22807288169864L183.6205659722222,148.92728614807132L196.62525578703705,172.2766958475113L209.20587962962964,193.6743997335434L222.6346354166667,212.68297481536865L235.92203587962968,228.9755378961563L251.04705555555557,242.75855380296707L265.8893645833333,254.6245469450951L279.31812037037037,264.6438513994217L294.1604293981482,273.2567422389984L307.0237638888889,280.7055859565735L320.452519675926,287.0678165853024L333.1744988425926,292.6276527643204L346.4618993055555,297.4859890639782L359.3252337962963,301.707714676857L371.7645023148148,305.46081724762917L385.75867939814816,308.74223294854164L398.62201388888894,311.6731752753258L412.192125,314.25803902745247L425.479525462963,316.6049462109804L439.1909918981481,318.66997043788433L451.9129710648148,320.5852646678686L465.4830821759259,322.2760632932186L477.78099537037036,323.83239272236824L493.04737037037034,325.24225476384163L506.0520601851852,326.53292785584927L519.3394606481481,327.7183180600405L533.4749930555556,328.79658664762974L546.9037488425927,329.8044304102659L560.897925925926,330.72973015904427L575.0334583333334,331.5765868425369L589.8757673611111,332.35846250504255L604.0112997685185,333.1167652755976L617.2987002314815,333.7993420213461L630.8688113425927,334.42590776085854L644.5802777777778,335.0385728403926L657.4436122685186,335.6133257523179L670.0242361111111,336.1264877319336L683.0289259259259,336.6259878054261L695.4681944444445,337.0868367627263L708.7555949074075,337.5233393087983L721.9016400462964,337.9345663562417L735.4717511574075,338.32479278743267L748.6177962962963,338.688104853034L761.7638414351853,339.0383659414947L775.0512418981483,339.3686521910131L788.197287037037,339.6793595440686L801.7673981481482,339.973463781178L814.4893773148148,340.2547077201307L826.6459351851853,340.52329068258405L839.5092696759259,340.77784982696176L852.5139594907408,341.01448568701744L865.5186493055556,341.2506834715605L880.3609583333333,341.4665131755173L893.9310694444446,341.67863085120916L906.511693287037,341.87622721493244L919.3750277777777,342.07104225829244L932.8037835648148,342.25026753917336L946.0911840277779,342.42426454275846L959.0958738425927,342.5937835611403L972.3832743055556,342.75403817370534L984.9638981481482,342.908731225878L997.9685879629629,343.05841044709086L1011.1146331018518,343.199624709785L1024.6847442129629,343.3353173844516L1037.2653680555554,343.46344988048077L1051.118189814815,343.58994837105274L1065.9604988425926,343.71189298294485L1079.954675925926,343.8277858328074L1092.5352997685186,343.94134002923965L1105.1159236111112,344.0489297006279L1118.26196875,344.152409510687L1130.9839479166667,344.2531549949199L1144.695414351852,344.3499035127461L1158.5482361111112,344.44257944077253L1171.2702152777779,344.5320594701916L1184.1335497685184,344.6204561945051L1197.1382395833334,344.70257185585797L1210.001574074074,344.78231105208397L1222.7235532407408,344.8636440113187L1236.576375,344.93899461999536L1249.863775462963,345.0121229812503L1263.433886574074,345.08467066287994L1276.8626423611113,345.1526687871665L1289.867332175926,345.21970001235604L1302.0238900462964,345.284367736429L1315.7353564814816,345.34522242099047L1330.012244212963,345.40717958658934L1343.8650659722223,345.4660264700651L1356.728400462963,345.52353833056986L1369.7330902777778,345.5773578789085L1382.7377800925929,345.6310472469777L1397.1560231481483,345.6840997580439L1409.4539363425927,345.7344120014459L1422.7413368055556,345.78421986382455" style="fill: none;" fill="none"></path></g><g><path stroke="rgb(0, 119, 187)" stroke-width="2px" d="M101.77583333333334,27.629507064819325L114.78052314814816,29.311440467834448L129.05741087962966,30.38126516342163L142.06210069444444,31.681918382644643L155.20814583333336,32.633857011795016L169.06096759259262,33.52235841751096L182.48972337962962,34.52926445007324L195.63576851851852,35.56738781929017L209.20587962962964,36.66376280784605L221.64514814814817,37.81524348258972L235.21525925925928,39.04910612106322L247.5131724537037,40.26654767990112L260.0937962962963,41.85724902153013L272.6744201388889,43.39464235305786L285.96182060185185,45.24199652671811L298.4010891203704,47.13819909095763L311.4057789351852,49.302393674850464L324.8345347222222,51.6807882785797L337.5565138888889,54.226539611816406L349.43036111111115,57.108490943908656L361.58691898148146,60.32802510261535L373.88483217592596,63.672791600227356L387.17223263888894,67.42690968513487L400.4596331018518,71.14019978046417L413.6056782407407,75.66837298870084L426.4690127314815,80.30411291122435L439.1909918981481,85.2152429819107L451.77161574074074,90.35186040401462L466.1898587962963,95.7560204267502L478.20506134259256,101.50326001644135L490.7856851851852,107.360745549202L503.0835983796296,113.43683886528017L516.0882881944444,119.73001885414126L528.2448460648149,126.20773720741272L541.6736018518518,132.71726059913635L553.8301597222222,139.2604731321335L566.9762048611111,145.96706676483154L579.5568287037038,152.5735609531403L592.4201631944444,159.21355414390567L605.0007870370372,165.74579048156738L617.2987002314815,172.28338527679443L630.4447453703704,178.6974071264267L642.7426585648149,184.90452337265015L655.4646377314816,191.1624412536621L668.0452615740742,197.14263546466827L681.4740173611111,202.92200851440433L694.0546412037037,208.66025972366336L707.0593310185185,214.0952827334404L719.7813101851852,219.3872176408768L732.7860000000001,224.3960963487625L745.932045138889,229.24470531940463L759.6435115740741,233.9535622596741L772.9309120370372,238.3676176071167L785.7942465277779,242.60604518651965L799.6470682870371,246.7380900979042L812.6517581018519,250.58418351411817L827.0700011574074,254.29899471998218L839.9333356481483,257.8640629649163L852.3726041666667,261.18789690732956L864.6705173611113,264.4337825775147L877.675207175926,267.48029041290283L891.9520949074074,270.4031388759613L904.8154293981482,273.19957959651947L916.9719872685185,275.8275227546692L931.248875,278.342964231968L944.6776307870371,280.75534614920616L957.682320601852,283.02171874046326L970.5456550925926,285.21181973814964L983.1262789351853,287.32481080293655L997.2618113425925,289.3116966187954L1009.8424351851852,291.1939110159874L1022.8471250000001,293.0072692334652L1035.993170138889,294.759497821331L1050.6941238425925,296.3957590162754L1063.8401689814814,298.0064854323864L1076.420792824074,299.52069479227066L1089.708193287037,300.97224044799805L1103.9850810185185,302.3555046617985L1117.5551921296299,303.68993777036667L1130.8425925925926,304.9774195551872L1143.7059270833333,306.19554820656776L1157.1346828703706,307.37409341335297L1171.411570601852,308.5128952860832L1185.6884583333333,309.587443202734L1199.6826354166667,310.6425839960575L1213.1113912037038,311.63932624459267L1225.6920150462965,312.61706325411797L1239.8275474537038,313.5377197265625L1252.8322372685186,314.4386039227247L1265.271505787037,315.30069547891617L1280.113814814815,316.1305520236492L1292.1290173611112,316.93868520855904L1304.7096412037038,317.7118501365185L1317.8556863425927,318.4434438049793L1329.8708888888889,319.1719196289778L1341.462025462963,319.86937257647514L1354.608070601852,320.5509835034609L1367.1886944444445,321.1898758560419L1381.324226851852,321.82260382175446L1394.752982638889,322.4291617721319" style="fill: none;" fill="none"></path></g><g><path stroke="rgb(255, 112, 67)" stroke-width="2px" d="M101.77583333333334,6.630748987197854L117.32491898148149,10.52206087112426L131.31909606481483,13.592560768127417L144.18243055555558,16.43710660934445L156.76305439814814,18.829260349273678L167.3647037037037,20.95539259910581L178.53177430555556,22.92578387260435L189.84020023148148,24.594995260238647L200.86591550925925,26.40895414352414L212.5984074074074,28.07183909416199L226.02716319444448,29.516064405441263L237.6182997685185,31.223994970321638L248.78537037037034,32.85196352005002L262.3554814814815,34.721166372299194L274.51203935185185,36.5708713531494L285.8204652777778,38.49963951110838L296.98753587962966,40.52624273300168L307.8718958333333,42.61738944053647L319.6043877314815,44.894630193710334L331.0541689814815,47.14525151252745L341.93852893518516,49.77016973495481L352.6815335648148,52.2208170890808L363.7072488425926,55.08368539810178L374.73296412037035,57.93825674057003L386.18274537037036,60.912027835845926L397.20846064814816,63.95184624195096L408.65824189814816,67.06479895114896L419.82531249999994,70.47417807579038L430.7096724537037,73.75998425483702L441.0286111111111,77.2994701862335L452.6197476851852,80.82566368579863L463.786818287037,84.37057721614835L475.095244212963,88.04997074604036L486.9690914351852,91.68079245090487L499.2670046296297,95.42790997028354L509.8686539351852,99.21037602424622L522.87334375,103.01683413982393L534.323125,106.77720952033998L546.7623935185186,110.59372770786287L557.0813321759259,114.4050602912903L567.9656921296297,118.1492565870285L579.5568287037038,121.94935369491577L590.8652546296297,125.68895208835605L601.4669039351852,129.38015151023865L612.7753298611111,133.04295110702515L624.0837557870371,136.61254811286926L634.6854050925926,140.16288924217227L645.7111203703704,143.69829583168033L657.1609016203704,147.10420060157776L668.1866168981481,150.50113427639008L680.0604641203704,153.82806229591372L691.2275347222222,157.05278205871585L702.2532500000001,160.22419381141665L713.5616759259259,163.40480136871338L725.8595891203704,166.46026301383972L737.0266597222222,169.48474931716922L749.3245729166667,172.46133792400363L760.6329988425927,175.3486822843552L772.0827800925925,178.2264678478241L783.3912060185187,181.02598536014557L796.5372511574075,183.7690143585205L807.280255787037,186.46846699714663L819.4368136574075,189.0959780216217L830.1798182870372,191.6990475654602L844.1739953703704,194.24236166477203L855.1997106481482,196.81820678710938L867.9216898148148,199.24211370944977L879.9368923611112,201.69158565998077L891.5280289351853,204.07734382152557L905.0981400462963,206.39472115039828L917.3960532407408,208.69678366184237L929.9766770833335,210.97487139701843L942.9813668981483,213.16832143068314L954.7138587962963,215.39011943340302L967.5771932870371,217.50224190950397L979.4510405092593,219.63205593824387L991.6075983796296,221.66713762283325L1003.1987349537037,223.72194188833237L1015.7793587962964,225.74745613336566L1029.2081145833333,227.68063205480578L1040.9406064814814,229.65257036685946L1052.8144537037037,231.50746959447858L1065.5364328703704,233.35452127456665L1077.9757013888889,235.2608530521393L1089.5668379629628,237.05806243419647L1101.2993298611111,238.83968907594684L1113.8799537037037,240.57098942995074L1126.036511574074,242.29886728525165L1138.6171354166665,243.9870752692223L1150.0669166666669,245.62201845645905L1161.9407638888888,247.2829501628876L1173.8146111111112,248.87918281555176L1186.2538796296296,250.44130283594131L1198.127726851852,251.98684620857242L1210.2842847222223,253.52500009536743L1222.1581319444447,254.99596583843234L1234.314689814815,256.47647309303284L1247.0366689814814,257.91954028606415L1259.193226851852,259.3303789496422L1271.208429398148,260.73684442043304" style="fill: none;" fill="none"></path></g><g><path stroke="rgb(51, 187, 238)" stroke-width="2px" d="M101.77583333333334,39.770043373107875L114.78052314814816,48.49765706062317L129.05741087962966,56.899718523025506L141.21396875,65.53001570701599L154.07730324074075,74.38925731182097L167.08199305555559,84.35576367378235L179.9453275462963,94.55050575733188L192.10188541666665,105.85354971885681L204.68250925925926,117.92848813533786L217.82855439814816,130.85170495510104L230.97459953703702,144.88495218753818L244.82742129629628,159.289678812027L257.83211111111115,174.28722369670868L270.2713796296296,188.91460287570953L283.27606944444443,202.8905146121979L295.99804861111113,215.81712800264356L308.86138310185186,227.5692539215088L322.8555601851852,238.27414709329602L336.28431597222226,247.92802202701571L349.43036111111115,256.8547456264496L363.0004722222222,265.0218041539192L375.29838541666663,272.77980494499207L388.72714120370364,280.0728687942028L401.5904756944444,286.9092883467674L414.5951655092593,293.3255443274975L426.75172337962965,299.605980694294L439.89776851851843,305.2082005441189L453.3265243055556,310.55443304777145L466.4725694444444,315.23560750484467L479.05319328703706,319.57484106719494L491.91652777777784,323.495667681098L504.7798622685185,327.6571495383978L517.9259074074074,331.1705129891634L530.3651759259259,333.8395239710808L543.5112210648148,335.8615714237094L556.3745555555555,337.41785763949156L571.9236412037037,338.7086690142751L584.9283310185185,339.73414977267385L598.4984421296297,340.5612325593829L611.0790659722223,341.29004544764757L624.0837557870371,341.89831248670816L638.3606435185186,342.40405094996095L650.6585567129631,342.82901606708765L663.6632465277778,343.2332160808146L676.2438703703705,343.56747931055725L688.5417835648149,343.8805696107447L701.970539351852,344.13514225929976L715.2579398148149,344.38098634779453L727.6972083333334,344.5916979685426L741.1259641203704,344.7981185019016L753.8479432870371,344.95911125279963L766.5699224537037,345.12502357549965L779.8573229166667,345.2813792619854L793.1447233796298,345.4191197101027L805.8667025462962,345.53708869218826L818.3059710648149,345.6622178591788L831.3106608796296,345.76859472040087L844.4567060185186,345.86302767693996L857.6027511574075,345.96080116182566L870.7487962962964,346.0498540541157L885.1670393518518,346.12021270859987L898.0303738425926,346.1878789002076L911.883195601852,346.2787140738219L925.5946620370371,346.3461020793766L939.1647731481481,346.39853717945516L955.4206354166668,346.47015199251473L969.5561678240742,346.51510064676404L985.2466087962963,346.57785874512047L998.1099432870369,346.62696249969304L1011.255988425926,346.67446857504547L1024.5433888888888,346.7199659040198L1036.5585914351852,346.76375711522996L1050.4114131944445,346.795969709754L1063.8401689814814,346.84076333604753L1076.562148148148,346.8811478484422L1088.7187060185186,346.90975719084963L1102.5715277777779,346.9449725742452L1115.7175729166668,346.980812728405L1128.8636180555557,347.00877062929794L1142.1510185185186,347.0391062106937L1155.4384189814816,347.06699895393103L1168.0190428240742,347.09054706571624L1180.7410219907408,347.1182800545357L1196.0073969907407,347.1424051322974L1209.718863425926,347.1617256263271L1222.5821979166667,347.19176776194945L1235.1628217592593,347.21151930931956L1247.3193796296298,347.2347234021872L1260.4654247685185,347.25146122230217L1273.7528252314817,347.27519170800224L1287.605646990741,347.2924603773281L1301.0344027777778,347.31221205974L1313.8977372685185,347.3288627779111L1326.9024270833334,347.34622219530866L1339.483050925926,347.36255023116246L1351.9223194444444,347.3769644550048L1365.3510752314814,347.3936340790242L1379.486607638889,347.4088962301612L1392.2085868055558,347.42040759604424L1404.223789351852,347.4337649492081" style="fill: none;" fill="none"></path></g></g></g></g></g></g><g transform="translate(51, 377)" clip-path="url(#clip_1)"><clipPath id="clip_1"><rect width="1526" height="23"></rect></clipPath><g><g><line x1="0" y1="0" x2="0" y2="5" style="visibility: inherit;" fill="rgb(0, 0, 0)" stroke="rgb(204, 204, 204)" stroke-width="1px"></line><line x1="101.77583333333334" y1="0" x2="101.77583333333334" y2="5" style="visibility: inherit;" fill="rgb(0, 0, 0)" stroke="rgb(204, 204, 204)" stroke-width="1px"></line><line x1="203.55166666666668" y1="0" x2="203.55166666666668" y2="5" style="visibility: inherit;" fill="rgb(0, 0, 0)" stroke="rgb(204, 204, 204)" stroke-width="1px"></line><line x1="305.32750000000004" y1="0" x2="305.32750000000004" y2="5" style="visibility: inherit;" fill="rgb(0, 0, 0)" stroke="rgb(204, 204, 204)" stroke-width="1px"></line><line x1="407.10333333333335" y1="0" x2="407.10333333333335" y2="5" style="visibility: inherit;" fill="rgb(0, 0, 0)" stroke="rgb(204, 204, 204)" stroke-width="1px"></line><line x1="508.87916666666666" y1="0" x2="508.87916666666666" y2="5" style="visibility: inherit;" fill="rgb(0, 0, 0)" stroke="rgb(204, 204, 204)" stroke-width="1px"></line><line x1="610.6550000000001" y1="0" x2="610.6550000000001" y2="5" style="visibility: inherit;" fill="rgb(0, 0, 0)" stroke="rgb(204, 204, 204)" stroke-width="1px"></line><line x1="712.4308333333333" y1="0" x2="712.4308333333333" y2="5" style="visibility: inherit;" fill="rgb(0, 0, 0)" stroke="rgb(204, 204, 204)" stroke-width="1px"></line><line x1="814.2066666666667" y1="0" x2="814.2066666666667" y2="5" style="visibility: inherit;" fill="rgb(0, 0, 0)" stroke="rgb(204, 204, 204)" stroke-width="1px"></line><line x1="915.9825000000002" y1="0" x2="915.9825000000002" y2="5" style="visibility: inherit;" fill="rgb(0, 0, 0)" stroke="rgb(204, 204, 204)" stroke-width="1px"></line><line x1="1017.7583333333333" y1="0" x2="1017.7583333333333" y2="5" style="visibility: inherit;" fill="rgb(0, 0, 0)" stroke="rgb(204, 204, 204)" stroke-width="1px"></line><line x1="1119.5341666666668" y1="0" x2="1119.5341666666668" y2="5" style="visibility: inherit;" fill="rgb(0, 0, 0)" stroke="rgb(204, 204, 204)" stroke-width="1px"></line><line x1="1221.3100000000002" y1="0" x2="1221.3100000000002" y2="5" style="visibility: inherit;" fill="rgb(0, 0, 0)" stroke="rgb(204, 204, 204)" stroke-width="1px"></line><line x1="1323.0858333333333" y1="0" x2="1323.0858333333333" y2="5" style="visibility: inherit;" fill="rgb(0, 0, 0)" stroke="rgb(204, 204, 204)" stroke-width="1px"></line><line x1="1424.8616666666667" y1="0" x2="1424.8616666666667" y2="5" style="visibility: inherit;" fill="rgb(0, 0, 0)" stroke="rgb(204, 204, 204)" stroke-width="1px"></line><line x1="1526.6375" y1="0" x2="1526.6375" y2="5" style="visibility: inherit;" fill="rgb(0, 0, 0)" stroke="rgb(204, 204, 204)" stroke-width="1px"></line></g><g transform="translate(0, 8)"><text x="0" y="0" dx="0em" dy="0.95em" style="text-anchor: middle; visibility: hidden; font-family: Roboto, sans-serif; font-size: 12px; font-weight: 200;" fill="rgb(33, 33, 33)" stroke="none" stroke-width="1px">0</text><text x="101.77583333333334" y="0" dx="0em" dy="0.95em" style="text-anchor: middle; visibility: inherit; font-family: Roboto, sans-serif; font-size: 12px; font-weight: 200;" fill="rgb(33, 33, 33)" stroke="none" stroke-width="1px">0</text><text x="203.55166666666668" y="0" dx="0em" dy="0.95em" style="text-anchor: middle; visibility: inherit; font-family: Roboto, sans-serif; font-size: 12px; font-weight: 200;" fill="rgb(33, 33, 33)" stroke="none" stroke-width="1px">0</text><text x="305.32750000000004" y="0" dx="0em" dy="0.95em" style="text-anchor: middle; visibility: inherit; font-family: Roboto, sans-serif; font-size: 12px; font-weight: 200;" fill="rgb(33, 33, 33)" stroke="none" stroke-width="1px">0</text><text x="407.10333333333335" y="0" dx="0em" dy="0.95em" style="text-anchor: middle; visibility: inherit; font-family: Roboto, sans-serif; font-size: 12px; font-weight: 200;" fill="rgb(33, 33, 33)" stroke="none" stroke-width="1px">0.001</text><text x="508.87916666666666" y="0" dx="0em" dy="0.95em" style="text-anchor: middle; visibility: inherit; font-family: Roboto, sans-serif; font-size: 12px; font-weight: 200;" fill="rgb(33, 33, 33)" stroke="none" stroke-width="1px">0.001</text><text x="610.6550000000001" y="0" dx="0em" dy="0.95em" style="text-anchor: middle; visibility: inherit; font-family: Roboto, sans-serif; font-size: 12px; font-weight: 200;" fill="rgb(33, 33, 33)" stroke="none" stroke-width="1px">0.001</text><text x="712.4308333333333" y="0" dx="0em" dy="0.95em" style="text-anchor: middle; visibility: inherit; font-family: Roboto, sans-serif; font-size: 12px; font-weight: 200;" fill="rgb(33, 33, 33)" stroke="none" stroke-width="1px">0.001</text><text x="814.2066666666667" y="0" dx="0em" dy="0.95em" style="text-anchor: middle; visibility: inherit; font-family: Roboto, sans-serif; font-size: 12px; font-weight: 200;" fill="rgb(33, 33, 33)" stroke="none" stroke-width="1px">0.001</text><text x="915.9825000000002" y="0" dx="0em" dy="0.95em" style="text-anchor: middle; visibility: inherit; font-family: Roboto, sans-serif; font-size: 12px; font-weight: 200;" fill="rgb(33, 33, 33)" stroke="none" stroke-width="1px">0.002</text><text x="1017.7583333333333" y="0" dx="0em" dy="0.95em" style="text-anchor: middle; visibility: inherit; font-family: Roboto, sans-serif; font-size: 12px; font-weight: 200;" fill="rgb(33, 33, 33)" stroke="none" stroke-width="1px">0.002</text><text x="1119.5341666666668" y="0" dx="0em" dy="0.95em" style="text-anchor: middle; visibility: inherit; font-family: Roboto, sans-serif; font-size: 12px; font-weight: 200;" fill="rgb(33, 33, 33)" stroke="none" stroke-width="1px">0.002</text><text x="1221.3100000000002" y="0" dx="0em" dy="0.95em" style="text-anchor: middle; visibility: inherit; font-family: Roboto, sans-serif; font-size: 12px; font-weight: 200;" fill="rgb(33, 33, 33)" stroke="none" stroke-width="1px">0.002</text><text x="1323.0858333333333" y="0" dx="0em" dy="0.95em" style="text-anchor: middle; visibility: inherit; font-family: Roboto, sans-serif; font-size: 12px; font-weight: 200;" fill="rgb(33, 33, 33)" stroke="none" stroke-width="1px">0.002</text><text x="1424.8616666666667" y="0" dx="0em" dy="0.95em" style="text-anchor: middle; visibility: inherit; font-family: Roboto, sans-serif; font-size: 12px; font-weight: 200;" fill="rgb(33, 33, 33)" stroke="none" stroke-width="1px">0.003</text><text x="1526.6375" y="0" dx="0em" dy="0.95em" style="text-anchor: middle; visibility: hidden; font-family: Roboto, sans-serif; font-size: 12px; font-weight: 200;" fill="rgb(33, 33, 33)" stroke="none" stroke-width="1px">0.003</text></g><line x1="0" y1="0" x2="1526.6375" y2="0" fill="rgb(0, 0, 0)" stroke="rgb(204, 204, 204)" stroke-width="1px"></line></g></g></g></g></svg>