<svg viewBox="0 0 330 200" xmlns="http://www.w3.org/2000/svg"><g><g><g><g><g><line x1="51.5625" y1="177" x2="46.5625" y2="177" style="visibility: inherit;" fill="rgb(0, 0, 0)" stroke="rgb(204, 204, 204)" stroke-width="1px"></line><line x1="51.5625" y1="163.3846153846154" x2="46.5625" y2="163.3846153846154" style="visibility: inherit;" fill="rgb(0, 0, 0)" stroke="rgb(204, 204, 204)" stroke-width="1px"></line><line x1="51.5625" y1="149.76923076923077" x2="46.5625" y2="149.76923076923077" style="visibility: inherit;" fill="rgb(0, 0, 0)" stroke="rgb(204, 204, 204)" stroke-width="1px"></line><line x1="51.5625" y1="136.15384615384613" x2="46.5625" y2="136.15384615384613" style="visibility: inherit;" fill="rgb(0, 0, 0)" stroke="rgb(204, 204, 204)" stroke-width="1px"></line><line x1="51.5625" y1="122.53846153846153" x2="46.5625" y2="122.53846153846153" style="visibility: inherit;" fill="rgb(0, 0, 0)" stroke="rgb(204, 204, 204)" stroke-width="1px"></line><line x1="51.5625" y1="108.92307692307693" x2="46.5625" y2="108.92307692307693" style="visibility: inherit;" fill="rgb(0, 0, 0)" stroke="rgb(204, 204, 204)" stroke-width="1px"></line><line x1="51.5625" y1="95.30769230769232" x2="46.5625" y2="95.30769230769232" style="visibility: inherit;" fill="rgb(0, 0, 0)" stroke="rgb(204, 204, 204)" stroke-width="1px"></line><line x1="51.5625" y1="81.6923076923077" x2="46.5625" y2="81.6923076923077" style="visibility: inherit;" fill="rgb(0, 0, 0)" stroke="rgb(204, 204, 204)" stroke-width="1px"></line><line x1="51.5625" y1="68.0769230769231" x2="46.5625" y2="68.0769230769231" style="visibility: inherit;" fill="rgb(0, 0, 0)" stroke="rgb(204, 204, 204)" stroke-width="1px"></line><line x1="51.5625" y1="54.46153846153847" x2="46.5625" y2="54.46153846153847" style="visibility: inherit;" fill="rgb(0, 0, 0)" stroke="rgb(204, 204, 204)" stroke-width="1px"></line><line x1="51.5625" y1="40.84615384615386" x2="46.5625" y2="40.84615384615386" style="visibility: inherit;" fill="rgb(0, 0, 0)" stroke="rgb(204, 204, 204)" stroke-width="1px"></line><line x1="51.5625" y1="27.230769230769234" x2="46.5625" y2="27.230769230769234" style="visibility: inherit;" fill="rgb(0, 0, 0)" stroke="rgb(204, 204, 204)" stroke-width="1px"></line><line x1="51.5625" y1="13.615384615384606" x2="46.5625" y2="13.615384615384606" style="visibility: inherit;" fill="rgb(0, 0, 0)" stroke="rgb(204, 204, 204)" stroke-width="1px"></line><line x1="51.5625" y1="0" x2="46.5625" y2="0" style="visibility: inherit;" fill="rgb(0, 0, 0)" stroke="rgb(204, 204, 204)" stroke-width="1px"></line></g><g transform="translate(41.5625, 0)"><text x="0" y="177" dx="0em" dy="0.3em" style="text-anchor: end; visibility: hidden; font-family: Roboto, sans-serif; font-size: 12px; font-weight: 200;" fill="rgb(33, 33, 33)" stroke="none" stroke-width="1px">-0.1</text><text x="0" y="163.3846153846154" dx="0em" dy="0.3em" style="text-anchor: end; visibility: inherit; font-family: Roboto, sans-serif; font-size: 12px; font-weight: 200;" fill="rgb(33, 33, 33)" stroke="none" stroke-width="1px">0</text><text x="0" y="149.76923076923077" dx="0em" dy="0.3em" style="text-anchor: end; visibility: hidden; font-family: Roboto, sans-serif; font-size: 12px; font-weight: 200;" fill="rgb(33, 33, 33)" stroke="none" stroke-width="1px">0.1</text><text x="0" y="136.15384615384613" dx="0em" dy="0.3em" style="text-anchor: end; visibility: inherit; font-family: Roboto, sans-serif; font-size: 12px; font-weight: 200;" fill="rgb(33, 33, 33)" stroke="none" stroke-width="1px">0.2</text><text x="0" y="122.53846153846153" dx="0em" dy="0.3em" style="text-anchor: end; visibility: hidden; font-family: Roboto, sans-serif; font-size: 12px; font-weight: 200;" fill="rgb(33, 33, 33)" stroke="none" stroke-width="1px">0.3</text><text x="0" y="108.92307692307693" dx="0em" dy="0.3em" style="text-anchor: end; visibility: inherit; font-family: Roboto, sans-serif; font-size: 12px; font-weight: 200;" fill="rgb(33, 33, 33)" stroke="none" stroke-width="1px">0.4</text><text x="0" y="95.30769230769232" dx="0em" dy="0.3em" style="text-anchor: end; visibility: hidden; font-family: Roboto, sans-serif; font-size: 12px; font-weight: 200;" fill="rgb(33, 33, 33)" stroke="none" stroke-width="1px">0.5</text><text x="0" y="81.6923076923077" dx="0em" dy="0.3em" style="text-anchor: end; visibility: inherit; font-family: Roboto, sans-serif; font-size: 12px; font-weight: 200;" fill="rgb(33, 33, 33)" stroke="none" stroke-width="1px">0.6</text><text x="0" y="68.0769230769231" dx="0em" dy="0.3em" style="text-anchor: end; visibility: hidden; font-family: Roboto, sans-serif; font-size: 12px; font-weight: 200;" fill="rgb(33, 33, 33)" stroke="none" stroke-width="1px">0.7</text><text x="0" y="54.46153846153847" dx="0em" dy="0.3em" style="text-anchor: end; visibility: inherit; font-family: Roboto, sans-serif; font-size: 12px; font-weight: 200;" fill="rgb(33, 33, 33)" stroke="none" stroke-width="1px">0.8</text><text x="0" y="40.84615384615386" dx="0em" dy="0.3em" style="text-anchor: end; visibility: hidden; font-family: Roboto, sans-serif; font-size: 12px; font-weight: 200;" fill="rgb(33, 33, 33)" stroke="none" stroke-width="1px">0.9</text><text x="0" y="27.230769230769234" dx="0em" dy="0.3em" style="text-anchor: end; visibility: inherit; font-family: Roboto, sans-serif; font-size: 12px; font-weight: 200;" fill="rgb(33, 33, 33)" stroke="none" stroke-width="1px">1</text><text x="0" y="13.615384615384606" dx="0em" dy="0.3em" style="text-anchor: end; visibility: hidden; font-family: Roboto, sans-serif; font-size: 12px; font-weight: 200;" fill="rgb(33, 33, 33)" stroke="none" stroke-width="1px">1.1</text><text x="0" y="0" dx="0em" dy="0.3em" style="text-anchor: end; visibility: hidden; font-family: Roboto, sans-serif; font-size: 12px; font-weight: 200;" fill="rgb(33, 33, 33)" stroke="none" stroke-width="1px">1.2</text></g><line x1="51.5625" y1="0" x2="51.5625" y2="177" fill="rgb(0, 0, 0)" stroke="rgb(204, 204, 204)" stroke-width="1px"></line></g></g><g transform="translate(51, 0)" clip-path="url(#clip_0)"><clipPath id="clip_0"><rect width="278" height="177"></rect></clipPath><g><g><g><line x1="0" y1="0" x2="0" y2="177" fill="rgb(0, 0, 0)" stroke="rgb(66, 66, 66)" stroke-width="1px" opacity="0.25"></line><line x1="23.203125" y1="0" x2="23.203125" y2="177" fill="rgb(0, 0, 0)" stroke="rgb(66, 66, 66)" stroke-width="1px" opacity="0.25"></line><line x1="46.40625" y1="0" x2="46.40625" y2="177" fill="rgb(0, 0, 0)" stroke="rgb(66, 66, 66)" stroke-width="1px" opacity="0.25"></line><line x1="69.609375" y1="0" x2="69.609375" y2="177" fill="rgb(0, 0, 0)" stroke="rgb(66, 66, 66)" stroke-width="1px" opacity="0.25"></line><line x1="92.8125" y1="0" x2="92.8125" y2="177" fill="rgb(0, 0, 0)" stroke="rgb(66, 66, 66)" stroke-width="1px" opacity="0.25"></line><line x1="116.015625" y1="0" x2="116.015625" y2="177" fill="rgb(0, 0, 0)" stroke="rgb(66, 66, 66)" stroke-width="1px" opacity="0.25"></line><line x1="139.21875" y1="0" x2="139.21875" y2="177" fill="rgb(0, 0, 0)" stroke="rgb(66, 66, 66)" stroke-width="1px" opacity="0.25"></line><line x1="162.421875" y1="0" x2="162.421875" y2="177" fill="rgb(0, 0, 0)" stroke="rgb(66, 66, 66)" stroke-width="1px" opacity="0.25"></line><line x1="185.625" y1="0" x2="185.625" y2="177" fill="rgb(0, 0, 0)" stroke="rgb(66, 66, 66)" stroke-width="1px" opacity="0.25"></line><line x1="208.828125" y1="0" x2="208.828125" y2="177" fill="rgb(0, 0, 0)" stroke="rgb(66, 66, 66)" stroke-width="1px" opacity="0.25"></line><line x1="232.03125" y1="0" x2="232.03125" y2="177" fill="rgb(0, 0, 0)" stroke="rgb(66, 66, 66)" stroke-width="1px" opacity="0.25"></line><line x1="255.234375" y1="0" x2="255.234375" y2="177" fill="rgb(0, 0, 0)" stroke="rgb(66, 66, 66)" stroke-width="1px" opacity="0.25"></line><line x1="278.4375" y1="0" x2="278.4375" y2="177" fill="rgb(0, 0, 0)" stroke="rgb(66, 66, 66)" stroke-width="1px" opacity="0.25"></line></g><g><line x1="0" y1="177" x2="278.4375" y2="177" fill="rgb(0, 0, 0)" stroke="rgb(66, 66, 66)" stroke-width="1px" opacity="0.25"></line><line x1="0" y1="163.3846153846154" x2="278.4375" y2="163.3846153846154" fill="rgb(0, 0, 0)" stroke="rgb(66, 66, 66)" stroke-width="1px" opacity="0.25"></line><line x1="0" y1="149.76923076923077" x2="278.4375" y2="149.76923076923077" fill="rgb(0, 0, 0)" stroke="rgb(66, 66, 66)" stroke-width="1px" opacity="0.25"></line><line x1="0" y1="136.15384615384613" x2="278.4375" y2="136.15384615384613" fill="rgb(0, 0, 0)" stroke="rgb(66, 66, 66)" stroke-width="1px" opacity="0.25"></line><line x1="0" y1="122.53846153846153" x2="278.4375" y2="122.53846153846153" fill="rgb(0, 0, 0)" stroke="rgb(66, 66, 66)" stroke-width="1px" opacity="0.25"></line><line x1="0" y1="108.92307692307693" x2="278.4375" y2="108.92307692307693" fill="rgb(0, 0, 0)" stroke="rgb(66, 66, 66)" stroke-width="1px" opacity="0.25"></line><line x1="0" y1="95.30769230769232" x2="278.4375" y2="95.30769230769232" fill="rgb(0, 0, 0)" stroke="rgb(66, 66, 66)" stroke-width="1px" opacity="0.25"></line><line x1="0" y1="81.6923076923077" x2="278.4375" y2="81.6923076923077" fill="rgb(0, 0, 0)" stroke="rgb(66, 66, 66)" stroke-width="1px" opacity="0.25"></line><line x1="0" y1="68.0769230769231" x2="278.4375" y2="68.0769230769231" fill="rgb(0, 0, 0)" stroke="rgb(66, 66, 66)" stroke-width="1px" opacity="0.25"></line><line x1="0" y1="54.46153846153847" x2="278.4375" y2="54.46153846153847" fill="rgb(0, 0, 0)" stroke="rgb(66, 66, 66)" stroke-width="1px" opacity="0.25"></line><line x1="0" y1="40.84615384615386" x2="278.4375" y2="40.84615384615386" fill="rgb(0, 0, 0)" stroke="rgb(66, 66, 66)" stroke-width="1px" opacity="0.25"></line><line x1="0" y1="27.230769230769234" x2="278.4375" y2="27.230769230769234" fill="rgb(0, 0, 0)" stroke="rgb(66, 66, 66)" stroke-width="1px" opacity="0.25"></line><line x1="0" y1="13.615384615384606" x2="278.4375" y2="13.615384615384606" fill="rgb(0, 0, 0)" stroke="rgb(66, 66, 66)" stroke-width="1px" opacity="0.25"></line><line x1="0" y1="0" x2="278.4375" y2="0" fill="rgb(0, 0, 0)" stroke="rgb(66, 66, 66)" stroke-width="1px" opacity="0.25"></line></g></g></g><g><g><line x1="0" y1="163.3846153846154" x2="278.4375" y2="163.3846153846154" fill="rgb(0, 0, 0)" stroke="rgb(153, 153, 153)" stroke-width="1.5px"></line></g></g><g><g><line x1="23.203125" y1="0" x2="23.203125" y2="177" fill="rgb(0, 0, 0)" stroke="rgb(153, 153, 153)" stroke-width="1.5px"></line></g></g><g><g><g><g><g><path stroke="rgb(0, 119, 187)" stroke-width="2px" d="M23.203125,11.983114407612726L25.523437499999996,12.501152955568744L27.84375,13.019337580754206L30.1640625,13.535606971153838L32.484375,14.040255106412438L34.8046875,14.552418103584868L37.125,15.061773171791655L39.4453125,15.563889301740197L41.765625,16.0723841373737L44.0859375,16.57482488338764L46.40625,17.080235866399914L48.7265625,17.58405623069176L51.04687499999999,18.083445585691003L53.36718750000001,18.58327317237854L55.6875,19.08529191750745L58.0078125,19.584859811342668L60.328125,20.094133725533112L62.6484375,20.59576293138356L64.96875,21.10339753444378L67.2890625,21.602916735869183L69.609375,22.109382721093983L71.92968750000001,22.61890009733346L74.25,23.126177622721748L76.5703125,23.635630075748143L78.890625,24.146981532757085L81.2109375,24.657050756307733L83.53125,25.177296693508428L85.8515625,25.694280239251942L88.171875,26.21678225810711L90.4921875,26.73759627342224L92.8125,27.264821456028862L95.1328125,27.79420533547033L97.453125,28.32175513414235L99.7734375,28.860625918094915L102.09374999999999,29.398190122384275L104.4140625,29.93644413581261L106.73437500000001,30.485102094136742L109.0546875,31.031877279281616L111.375,31.586021249110875L113.6953125,32.142526800815865L116.015625,32.70222982076497L118.3359375,33.26992651132436L120.65625,33.83915701279272L122.9765625,34.408509245285614L125.296875,34.98684522738823L127.6171875,35.569198333300065L129.9375,36.15425386795629L132.2578125,36.7452255304043L134.578125,37.3446615567574L136.8984375,37.94435727596283L139.21875,38.550415470049934L141.5390625,39.15952505515172L143.85937500000003,39.77403949774228L146.1796875,40.39278206458458L148.5,41.01673471927643L150.8203125,41.646132808465225L153.140625,42.28297272095314L155.4609375,42.92128963653858L157.78125,43.56453260091636L160.1015625,44.21790358653437L162.421875,44.86544771377857L164.7421875,45.527875487621024L167.0625,46.19488846338714L169.38281249999997,46.86182028513689L171.703125,47.53213622936836L174.0234375,48.209382726595955L176.34375,48.89486635648288L178.66406250000003,49.580991103098945L180.984375,50.27459825002231L183.3046875,50.966622893626884L185.625,51.668053287726195L187.9453125,52.373257343585685L190.265625,53.082884293336136L192.5859375,53.79652836689583L194.90625,54.51181175158575L197.2265625,55.230958067453834L199.546875,55.952628273230346L201.8671875,56.68061226147872L204.18749999999997,57.40995963720176L206.5078125,58.140094206883354L208.828125,58.87724859897907L211.1484375,59.615352493066055L213.46875000000003,60.35227153851436L215.7890625,61.09345928522258L218.109375,61.84147208470565L220.4296875,62.58406379589668L222.75,63.332595981084395L225.0703125,64.08226432250098L227.390625,64.8313645858031L229.7109375,65.5849770124142L232.03125,66.33272200364334L234.3515625,67.08368069391986L236.671875,67.83950862517723L238.99218749999997,68.59198489555946L241.3125,69.34132862091064L243.6328125,70.09481120109558L245.953125,70.84739297169907L248.27343750000003,71.59469973123991L250.59375,72.34306149299329L252.9140625,73.09095256145184" style="fill: none;" fill="none"></path></g><g><path stroke="rgb(255, 112, 67)" stroke-width="2px" d="M23.203125,12.637978627131536L25.523437499999996,12.683944261991051L27.84375,12.730250743719251L30.1640625,12.77607030134934L32.484375,12.820347932668836L34.8046875,12.859918631040124L37.125,12.900657947246831L39.4453125,12.936008636768042L41.765625,12.977835416793823L44.0859375,13.018006654886095L46.40625,13.052643189063428L48.7265625,13.086143567011908L51.04687499999999,13.125146187268761L53.36718750000001,13.155367942956774L55.6875,13.185281313382653L58.0078125,13.215535530677197L60.328125,13.248500292117773L62.6484375,13.275897888036878L64.96875,13.306720183445856L67.2890625,13.333906778922437L69.609375,13.359600140498236L71.92968750000001,13.385894041794982L74.25,13.412788482812731L76.5703125,13.437150918520404L78.890625,13.463688281866224L81.2109375,13.483376246232238L83.53125,13.50721929623529L85.8515625,13.529634035550622L88.171875,13.554012702061579L90.4921875,13.575047823098986L92.8125,13.593339938383831L95.1328125,13.612248824192926L97.453125,13.632959329164935L99.7734375,13.651981830596924L102.09374999999999,13.672335257897002L104.4140625,13.68679690361023L106.73437500000001,13.706241405927209L109.0546875,13.72286174847528L111.375,13.738492012023926L113.6953125,13.755225970194891L116.015625,13.774199779217046L118.3359375,13.791371969076307L120.65625,13.804762381773724L122.9765625,13.817438639127282L125.296875,13.833718134806707L127.6171875,13.84715723991394L129.9375,13.859671189234808L132.2578125,13.875268991176885L134.578125,13.888594480661242L136.8984375,13.897050729164702L139.21875,13.915261690433203L141.5390625,13.926185021033643L143.85937500000003,13.938682739551245L146.1796875,13.949070453643799L148.5,13.962379712324871L150.8203125,13.975526662973254L153.140625,13.98360960300152L155.4609375,13.998249787550701L157.78125,14.007501345414367L160.1015625,14.021102758554308L162.421875,14.027173078977135L164.7421875,14.039005334560674L167.0625,14.048743816522448L169.38281249999997,14.060705918532147L171.703125,14.069681552740247L174.0234375,14.079225265062762L176.34375,14.08549035512483L178.66406250000003,14.094693220578698L180.984375,14.107775248014L183.3046875,14.117189113910376L185.625,14.11876350182752L187.9453125,14.13418276493366L190.265625,14.141259395159198L192.5859375,14.148611949040339L194.90625,14.155493809626654L197.2265625,14.167553296455962L199.546875,14.17391577133766L201.8671875,14.184384639446538L204.18749999999997,14.190097882197454L206.5078125,14.197791282947241L208.828125,14.205127606025098L211.1484375,14.209347614875195L213.46875000000003,14.220644253950848L215.7890625,14.229814657798169L218.109375,14.238546829957214L220.4296875,14.241241143299982L222.75,14.252018396670996L225.0703125,14.257017484078032L227.390625,14.266285272744982L229.7109375,14.275390753379224L232.03125,14.281461073802069L234.3515625,14.286443930405822L236.671875,14.294510639630822L238.99218749999997,14.29866572526784L241.3125,14.304151736772967L243.6328125,14.310968674146203L245.953125,14.321421311451838L248.27343750000003,14.32637170644906L250.59375,14.33427610764137L252.9140625,14.341579969112676" style="fill: none;" fill="none"></path></g><g><path stroke="rgb(187, 187, 187)" stroke-width="2px" d="M23.203125,2.3689928605006156L25.523437499999996,2.6000708066500122L27.84375,2.8265067430642814L30.1640625,3.0441780457129752L32.484375,3.2584733412815914L34.8046875,3.462916539265558L37.125,3.66503873238197L39.4453125,3.86448284295888L41.765625,4.053734009082495L44.0859375,4.2387651663560115L46.40625,4.420696240205016L48.7265625,4.599851846694946L51.04687499999999,4.7703726658454215L53.36718750000001,4.937777170768139L55.6875,5.10691837164071L58.0078125,5.263951393274158L60.328125,5.424425345200744L62.6484375,5.574414198215186L64.96875,5.726577978867736L67.2890625,5.871421667245715L69.609375,6.01517789180462L71.92968750000001,6.149796174122735L74.25,6.289024004569408L76.5703125,6.422197745396539L78.890625,6.551963017537042L81.2109375,6.677427126811103L83.53125,6.805114856133087L85.8515625,6.922999180280236L88.171875,7.04268512359032L90.4921875,7.16050452452439L92.8125,7.27627884424649L95.1328125,7.386502229250384L97.453125,7.494826610271733L99.7734375,7.606608152389526L102.09374999999999,7.70902452102074L104.4140625,7.813437278454106L106.73437500000001,7.916908649297864L109.0546875,8.010820077015802L111.375,8.112781983155456L113.6953125,8.21178988310006L116.015625,8.305100771097033L118.3359375,8.394500035506024L120.65625,8.486236535585833L122.9765625,8.576138954896178L125.296875,8.661334441258356L127.6171875,8.748250392767103L129.9375,8.834176265276385L132.2578125,8.91565489768982L134.578125,8.996289528333214L136.8984375,9.082345247268677L139.21875,9.162671492649958L141.5390625,9.237154648854181L143.85937500000003,9.317188739776611L146.1796875,9.392369820521429L148.5,9.468768211511462L150.8203125,9.542147673093346L153.140625,9.61536482664254L155.4609375,9.688322287339416L157.78125,9.755858659744263L160.1015625,9.828978428473828L162.421875,9.895346183043255L164.7421875,9.966891563855675L167.0625,10.035450476866497L169.38281249999997,10.098166300700262L171.703125,10.163868592335627L174.0234375,10.234066816476671L176.34375,10.293812403312085L178.66406250000003,10.358297384702233L180.984375,10.421905902715833L183.3046875,10.483907571205718L185.625,10.545682008449834L187.9453125,10.605151671629681L190.265625,10.665854875858008L192.5859375,10.73097285857567L194.90625,10.784826663824232L197.2265625,10.842235014988825L199.546875,10.900730829972472L201.8671875,10.95789571908803L204.18749999999997,11.017576382710383L206.5078125,11.072468959368182L208.828125,11.127978306550231L211.1484375,11.186149505468519L213.46875000000003,11.239289155373198L215.7890625,11.295123118620648L218.109375,11.348538692180913L220.4296875,11.400915494331938L222.75,11.457268843284009L225.0703125,11.508574412419245L227.390625,11.56101613778333L229.7109375,11.612776169410107L232.03125,11.665948280921338L234.3515625,11.715176307238055L236.671875,11.768056264290434L238.99218749999997,11.818631447278527L241.3125,11.871121865052428L243.6328125,11.919781813254712L245.953125,11.970373227046087L248.27343750000003,12.021711257787855L250.59375,12.068033970319298L252.9140625,12.117310689045832" style="fill: none;" fill="none"></path></g><g><path stroke="rgb(204, 51, 17)" stroke-width="2px" d="M23.203125,16.87944459915161L25.523437499999996,17.184827162669258L27.84375,17.48917095477764L30.1640625,17.795478674081654L32.484375,18.08899652040921L34.8046875,18.392139233075646L37.125,18.684277461125298L39.4453125,18.984888168481678L41.765625,19.280207633972168L44.0859375,19.572134861579297L46.40625,19.863347933842583L48.7265625,20.15029230484596L51.04687499999999,20.436912059783936L53.36718750000001,20.722233350460332L55.6875,21.00382155638474L58.0078125,21.285783070784344L60.328125,21.575437985933732L62.6484375,21.863242589510392L64.96875,22.1481418793018L67.2890625,22.43675802304193L69.609375,22.723215469947217L71.92968750000001,23.007400604394764L74.25,23.29022235136765L76.5703125,23.578367801812977L78.890625,23.866302251815796L81.2109375,24.15040623224698L83.53125,24.43467252071087L85.8515625,24.726453671088574L88.171875,25.014875045189484L90.4921875,25.30378334338848L92.8125,25.59616503348717L95.1328125,25.8896504182082L97.453125,26.178104253915638L99.7734375,26.475874570699823L102.09374999999999,26.77265480848458L104.4140625,27.070230355629548L106.73437500000001,27.37017560005188L109.0546875,27.669820574613702L111.375,27.973125595312847L113.6953125,28.27764792625721L116.015625,28.58653634328107L118.3359375,28.8914725597088L120.65625,29.19834024172562L122.9765625,29.510044703116773L125.296875,29.82019100739404L127.6171875,30.13127869826096L129.9375,30.44571805000305L132.2578125,30.764198871759266L134.578125,31.080951112967266L136.8984375,31.401071245853704L139.21875,31.729103895334095L141.5390625,32.054150077012864L143.85937500000003,32.38378146061529L146.1796875,32.71774646869072L148.5,33.06038684111375L150.8203125,33.394814427082345L153.140625,33.74367931255926L155.4609375,34.08798334231743L157.78125,34.434981685418336L160.1015625,34.7833434159939L162.421875,35.133198380470276L164.7421875,35.49171247849096L167.0625,35.85414631550129L169.38281249999997,36.219104042420014L171.703125,36.5836073068472L174.0234375,36.95568224099965L176.34375,37.33256149291992L178.66406250000003,37.714805025320786L180.984375,38.09491420709168L183.3046875,38.47954366757318L185.625,38.87012983285462L187.9453125,39.26552031590387L190.265625,39.65829763962671L192.5859375,40.06077286830315L194.90625,40.46233105659485L197.2265625,40.867882022490875L199.546875,41.27907319252308L201.8671875,41.686368969770584L204.18749999999997,42.10189376427577L206.5078125,42.52061602702509L208.828125,42.9364492067924L211.1484375,43.36093340470241L213.46875000000003,43.78752760703747L215.7890625,44.21627239080577L218.109375,44.65088460995601L220.4296875,45.087712333752556L222.75,45.52262482276331L225.0703125,45.96881772004642L227.390625,46.41565173405868L229.7109375,46.86619448661804L232.03125,47.31673723917742L234.3515625,47.772839041856635L236.671875,48.22646564703722L238.99218749999997,48.68875138576214L241.3125,49.15339059096117L243.6328125,49.62342653824733L245.953125,50.091660866370574L248.27343750000003,50.57460841765772L250.59375,51.04951360592476L252.9140625,51.529807420877326" style="fill: none;" fill="none"></path></g></g></g></g></g></g><g transform="translate(51, 177)" clip-path="url(#clip_1)"><clipPath id="clip_1"><rect width="278" height="23"></rect></clipPath><g><g><line x1="0" y1="0" x2="0" y2="5" style="visibility: inherit;" fill="rgb(0, 0, 0)" stroke="rgb(204, 204, 204)" stroke-width="1px"></line><line x1="23.203125" y1="0" x2="23.203125" y2="5" style="visibility: inherit;" fill="rgb(0, 0, 0)" stroke="rgb(204, 204, 204)" stroke-width="1px"></line><line x1="46.40625" y1="0" x2="46.40625" y2="5" style="visibility: inherit;" fill="rgb(0, 0, 0)" stroke="rgb(204, 204, 204)" stroke-width="1px"></line><line x1="69.609375" y1="0" x2="69.609375" y2="5" style="visibility: inherit;" fill="rgb(0, 0, 0)" stroke="rgb(204, 204, 204)" stroke-width="1px"></line><line x1="92.8125" y1="0" x2="92.8125" y2="5" style="visibility: inherit;" fill="rgb(0, 0, 0)" stroke="rgb(204, 204, 204)" stroke-width="1px"></line><line x1="116.015625" y1="0" x2="116.015625" y2="5" style="visibility: inherit;" fill="rgb(0, 0, 0)" stroke="rgb(204, 204, 204)" stroke-width="1px"></line><line x1="139.21875" y1="0" x2="139.21875" y2="5" style="visibility: inherit;" fill="rgb(0, 0, 0)" stroke="rgb(204, 204, 204)" stroke-width="1px"></line><line x1="162.421875" y1="0" x2="162.421875" y2="5" style="visibility: inherit;" fill="rgb(0, 0, 0)" stroke="rgb(204, 204, 204)" stroke-width="1px"></line><line x1="185.625" y1="0" x2="185.625" y2="5" style="visibility: inherit;" fill="rgb(0, 0, 0)" stroke="rgb(204, 204, 204)" stroke-width="1px"></line><line x1="208.828125" y1="0" x2="208.828125" y2="5" style="visibility: inherit;" fill="rgb(0, 0, 0)" stroke="rgb(204, 204, 204)" stroke-width="1px"></line><line x1="232.03125" y1="0" x2="232.03125" y2="5" style="visibility: inherit;" fill="rgb(0, 0, 0)" stroke="rgb(204, 204, 204)" stroke-width="1px"></line><line x1="255.234375" y1="0" x2="255.234375" y2="5" style="visibility: inherit;" fill="rgb(0, 0, 0)" stroke="rgb(204, 204, 204)" stroke-width="1px"></line><line x1="278.4375" y1="0" x2="278.4375" y2="5" style="visibility: inherit;" fill="rgb(0, 0, 0)" stroke="rgb(204, 204, 204)" stroke-width="1px"></line></g><g transform="translate(0, 8)"><text x="0" y="0" dx="0em" dy="0.95em" style="text-anchor: middle; visibility: hidden; font-family: Roboto, sans-serif; font-size: 12px; font-weight: 200;" fill="rgb(33, 33, 33)" stroke="none" stroke-width="1px">-10</text><text x="23.203125" y="0" dx="0em" dy="0.95em" style="text-anchor: middle; visibility: inherit; font-family: Roboto, sans-serif; font-size: 12px; font-weight: 200;" fill="rgb(33, 33, 33)" stroke="none" stroke-width="1px">0</text><text x="46.40625" y="0" dx="0em" dy="0.95em" style="text-anchor: middle; visibility: inherit; font-family: Roboto, sans-serif; font-size: 12px; font-weight: 200;" fill="rgb(33, 33, 33)" stroke="none" stroke-width="1px">10</text><text x="69.609375" y="0" dx="0em" dy="0.95em" style="text-anchor: middle; visibility: inherit; font-family: Roboto, sans-serif; font-size: 12px; font-weight: 200;" fill="rgb(33, 33, 33)" stroke="none" stroke-width="1px">20</text><text x="92.8125" y="0" dx="0em" dy="0.95em" style="text-anchor: middle; visibility: inherit; font-family: Roboto, sans-serif; font-size: 12px; font-weight: 200;" fill="rgb(33, 33, 33)" stroke="none" stroke-width="1px">30</text><text x="116.015625" y="0" dx="0em" dy="0.95em" style="text-anchor: middle; visibility: inherit; font-family: Roboto, sans-serif; font-size: 12px; font-weight: 200;" fill="rgb(33, 33, 33)" stroke="none" stroke-width="1px">40</text><text x="139.21875" y="0" dx="0em" dy="0.95em" style="text-anchor: middle; visibility: inherit; font-family: Roboto, sans-serif; font-size: 12px; font-weight: 200;" fill="rgb(33, 33, 33)" stroke="none" stroke-width="1px">50</text><text x="162.421875" y="0" dx="0em" dy="0.95em" style="text-anchor: middle; visibility: inherit; font-family: Roboto, sans-serif; font-size: 12px; font-weight: 200;" fill="rgb(33, 33, 33)" stroke="none" stroke-width="1px">60</text><text x="185.625" y="0" dx="0em" dy="0.95em" style="text-anchor: middle; visibility: inherit; font-family: Roboto, sans-serif; font-size: 12px; font-weight: 200;" fill="rgb(33, 33, 33)" stroke="none" stroke-width="1px">70</text><text x="208.828125" y="0" dx="0em" dy="0.95em" style="text-anchor: middle; visibility: inherit; font-family: Roboto, sans-serif; font-size: 12px; font-weight: 200;" fill="rgb(33, 33, 33)" stroke="none" stroke-width="1px">80</text><text x="232.03125" y="0" dx="0em" dy="0.95em" style="text-anchor: middle; visibility: inherit; font-family: Roboto, sans-serif; font-size: 12px; font-weight: 200;" fill="rgb(33, 33, 33)" stroke="none" stroke-width="1px">90</text><text x="255.234375" y="0" dx="0em" dy="0.95em" style="text-anchor: middle; visibility: inherit; font-family: Roboto, sans-serif; font-size: 12px; font-weight: 200;" fill="rgb(33, 33, 33)" stroke="none" stroke-width="1px">100</text><text x="278.4375" y="0" dx="0em" dy="0.95em" style="text-anchor: middle; visibility: hidden; font-family: Roboto, sans-serif; font-size: 12px; font-weight: 200;" fill="rgb(33, 33, 33)" stroke="none" stroke-width="1px">110</text></g><line x1="0" y1="0" x2="278.4375" y2="0" fill="rgb(0, 0, 0)" stroke="rgb(204, 204, 204)" stroke-width="1px"></line></g></g></g></g></svg>